<?xml version="1.0" encoding="UTF-8" standalone="no"?>
<!DOCTYPE svg PUBLIC "-//W3C//DTD SVG 1.1//EN" "http://www.w3.org/Graphics/SVG/1.1/DTD/svg11.dtd">
<svg width="100%" height="100%" viewBox="0 0 1128 284" version="1.1" xmlns="http://www.w3.org/2000/svg" xmlns:xlink="http://www.w3.org/1999/xlink" xml:space="preserve" xmlns:serif="http://www.serif.com/" style="fill-rule:evenodd;clip-rule:evenodd;stroke-linecap:round;stroke-linejoin:round;stroke-miterlimit:1.5;">
    <g transform="matrix(1,0,0,1,-463.736,-1190.27)">
        <g transform="matrix(4.43186,0,0,4.43186,1030.36,1262.89)">
            <g transform="matrix(22.5639,0,0,22.5639,0,0)">
                <path d="M0.231,0.013C0.202,0.013 0.174,0.009 0.146,0.001C0.118,-0.006 0.093,-0.017 0.069,-0.03C0.046,-0.044 0.026,-0.06 0.009,-0.078L0.096,-0.166C0.112,-0.148 0.131,-0.135 0.153,-0.125C0.175,-0.116 0.199,-0.111 0.225,-0.111C0.243,-0.111 0.257,-0.114 0.266,-0.119C0.276,-0.124 0.281,-0.131 0.281,-0.141C0.281,-0.153 0.275,-0.162 0.263,-0.169C0.252,-0.175 0.237,-0.18 0.219,-0.185C0.201,-0.19 0.182,-0.196 0.162,-0.202C0.142,-0.208 0.123,-0.216 0.105,-0.227C0.087,-0.238 0.072,-0.252 0.061,-0.271C0.049,-0.29 0.044,-0.314 0.044,-0.344C0.044,-0.375 0.052,-0.402 0.068,-0.425C0.084,-0.448 0.106,-0.467 0.136,-0.48C0.165,-0.493 0.199,-0.5 0.239,-0.5C0.28,-0.5 0.318,-0.492 0.353,-0.478C0.388,-0.464 0.417,-0.443 0.439,-0.415L0.352,-0.327C0.337,-0.345 0.32,-0.357 0.301,-0.365C0.282,-0.372 0.263,-0.376 0.245,-0.376C0.227,-0.376 0.214,-0.373 0.206,-0.368C0.197,-0.363 0.193,-0.356 0.193,-0.347C0.193,-0.337 0.199,-0.329 0.21,-0.323C0.221,-0.317 0.236,-0.311 0.254,-0.307C0.272,-0.302 0.291,-0.296 0.311,-0.29C0.331,-0.283 0.349,-0.274 0.368,-0.263C0.386,-0.251 0.4,-0.236 0.412,-0.217C0.423,-0.198 0.428,-0.173 0.429,-0.143C0.428,-0.095 0.411,-0.058 0.375,-0.03C0.339,-0.002 0.291,0.013 0.231,0.013Z" style="fill:url(#_Linear1);fill-rule:nonzero;"/>
            </g>
            <g transform="matrix(22.5639,0,0,22.5639,10.3343,0)">
                <path d="M0.188,-0.291L0.188,-0.407L0.337,-0.407C0.368,-0.407 0.393,-0.415 0.41,-0.431C0.427,-0.447 0.435,-0.468 0.435,-0.496C0.435,-0.521 0.427,-0.542 0.41,-0.559C0.393,-0.576 0.369,-0.584 0.338,-0.584L0.188,-0.584L0.188,-0.706L0.356,-0.706C0.403,-0.706 0.444,-0.697 0.479,-0.679C0.514,-0.661 0.542,-0.637 0.562,-0.606C0.582,-0.575 0.592,-0.539 0.592,-0.498C0.592,-0.456 0.582,-0.42 0.562,-0.389C0.542,-0.358 0.514,-0.334 0.478,-0.317C0.442,-0.299 0.399,-0.291 0.351,-0.291L0.188,-0.291ZM0.068,-0L0.068,-0.706L0.225,-0.706L0.225,-0L0.068,-0ZM0.452,-0L0.232,-0.304L0.376,-0.343L0.638,-0L0.452,-0Z" style="fill:url(#_Linear2);fill-rule:nonzero;"/>
            </g>
            <g transform="matrix(22.5639,0,0,22.5639,25.0459,0)">
                <path d="M0.068,-0L0.068,-0.706L0.178,-0.706L0.225,-0.565L0.225,-0L0.068,-0ZM0.555,-0L0.139,-0.533L0.178,-0.706L0.594,-0.173L0.555,-0ZM0.555,-0L0.513,-0.141L0.513,-0.706L0.67,-0.706L0.67,-0L0.555,-0Z" style="fill:url(#_Linear3);fill-rule:nonzero;"/>
            </g>
            <g transform="matrix(22.5639,0,0,22.5639,41.6981,0)">
                <path d="M0.015,-0L0.295,-0.706L0.437,-0.706L0.714,-0L0.548,-0L0.336,-0.586L0.393,-0.586L0.178,-0L0.015,-0ZM0.174,-0.128L0.174,-0.256L0.559,-0.256L0.559,-0.128L0.174,-0.128Z" style="fill:url(#_Linear4);fill-rule:nonzero;"/>
            </g>
            <g transform="matrix(22.5639,0,0,22.5639,58.1472,0)">
            </g>
        </g>
        <g transform="matrix(4.43186,0,0,4.43186,1030.66,1473.06)">
            <g transform="matrix(5.64097,0,0,5.64097,0,0)">
                <path d="M0.252,-0L0.252,-0.68L0.367,-0.68L0.367,-0L0.252,-0ZM0.024,-0.595L0.024,-0.7L0.595,-0.7L0.595,-0.595L0.024,-0.595Z" style="fill:url(#_Linear5);fill-rule:nonzero;"/>
            </g>
            <g transform="matrix(5.64097,0,0,5.64097,3.49176,0)">
                <path d="M0.076,-0L0.076,-0.7L0.191,-0.7L0.191,-0L0.076,-0ZM0.155,-0L0.155,-0.105L0.547,-0.105L0.547,-0L0.155,-0ZM0.155,-0.307L0.155,-0.408L0.513,-0.408L0.513,-0.307L0.155,-0.307ZM0.155,-0.595L0.155,-0.7L0.542,-0.7L0.542,-0.595L0.155,-0.595Z" style="fill:url(#_Linear6);fill-rule:nonzero;"/>
            </g>
            <g transform="matrix(5.64097,0,0,5.64097,6.81994,0)">
                <path d="M0.252,-0L0.252,-0.68L0.367,-0.68L0.367,-0L0.252,-0ZM0.024,-0.595L0.024,-0.7L0.595,-0.7L0.595,-0.595L0.024,-0.595Z" style="fill:url(#_Linear7);fill-rule:nonzero;"/>
            </g>
            <g transform="matrix(5.64097,0,0,5.64097,10.3117,0)">
                <rect x="0.061" y="-0.307" width="0.339" height="0.104" style="fill:url(#_Linear8);fill-rule:nonzero;"/>
            </g>
            <g transform="matrix(5.64097,0,0,5.64097,12.9122,0)">
                <path d="M0.024,-0L0.312,-0.7L0.392,-0.7L0.678,-0L0.554,-0L0.33,-0.567L0.372,-0.567L0.146,-0L0.024,-0ZM0.166,-0.135L0.166,-0.235L0.537,-0.235L0.537,-0.135L0.166,-0.135Z" style="fill:url(#_Linear9);fill-rule:nonzero;"/>
            </g>
            <g transform="matrix(5.64097,0,0,5.64097,16.8722,0)">
                <path d="M0.271,0.01C0.216,0.01 0.169,0 0.13,-0.02C0.091,-0.04 0.057,-0.069 0.026,-0.108L0.104,-0.186C0.123,-0.158 0.146,-0.136 0.173,-0.121C0.2,-0.105 0.234,-0.097 0.275,-0.097C0.314,-0.097 0.345,-0.105 0.368,-0.121C0.391,-0.137 0.402,-0.159 0.402,-0.187C0.402,-0.21 0.396,-0.229 0.384,-0.244C0.372,-0.259 0.356,-0.271 0.337,-0.281C0.317,-0.29 0.295,-0.299 0.272,-0.307C0.248,-0.314 0.224,-0.323 0.201,-0.333C0.177,-0.342 0.155,-0.354 0.136,-0.369C0.116,-0.384 0.1,-0.403 0.088,-0.426C0.076,-0.449 0.07,-0.479 0.07,-0.515C0.07,-0.556 0.08,-0.592 0.101,-0.621C0.121,-0.65 0.148,-0.672 0.183,-0.687C0.218,-0.702 0.256,-0.71 0.299,-0.71C0.345,-0.71 0.386,-0.701 0.423,-0.683C0.459,-0.665 0.488,-0.642 0.511,-0.614L0.433,-0.536C0.413,-0.559 0.392,-0.576 0.371,-0.587C0.349,-0.598 0.324,-0.603 0.296,-0.603C0.261,-0.603 0.234,-0.596 0.215,-0.582C0.195,-0.568 0.185,-0.548 0.185,-0.523C0.185,-0.502 0.191,-0.485 0.203,-0.472C0.215,-0.459 0.231,-0.448 0.251,-0.439C0.27,-0.43 0.292,-0.421 0.316,-0.413C0.339,-0.405 0.363,-0.396 0.387,-0.386C0.41,-0.376 0.432,-0.363 0.452,-0.348C0.471,-0.332 0.487,-0.312 0.499,-0.287C0.511,-0.262 0.517,-0.231 0.517,-0.194C0.517,-0.131 0.495,-0.082 0.451,-0.045C0.406,-0.008 0.346,0.01 0.271,0.01Z" style="fill:url(#_Linear10);fill-rule:nonzero;"/>
            </g>
            <g transform="matrix(5.64097,0,0,5.64097,20.0085,0)">
                <path d="M0.271,0.01C0.216,0.01 0.169,0 0.13,-0.02C0.091,-0.04 0.057,-0.069 0.026,-0.108L0.104,-0.186C0.123,-0.158 0.146,-0.136 0.173,-0.121C0.2,-0.105 0.234,-0.097 0.275,-0.097C0.314,-0.097 0.345,-0.105 0.368,-0.121C0.391,-0.137 0.402,-0.159 0.402,-0.187C0.402,-0.21 0.396,-0.229 0.384,-0.244C0.372,-0.259 0.356,-0.271 0.337,-0.281C0.317,-0.29 0.295,-0.299 0.272,-0.307C0.248,-0.314 0.224,-0.323 0.201,-0.333C0.177,-0.342 0.155,-0.354 0.136,-0.369C0.116,-0.384 0.1,-0.403 0.088,-0.426C0.076,-0.449 0.07,-0.479 0.07,-0.515C0.07,-0.556 0.08,-0.592 0.101,-0.621C0.121,-0.65 0.148,-0.672 0.183,-0.687C0.218,-0.702 0.256,-0.71 0.299,-0.71C0.345,-0.71 0.386,-0.701 0.423,-0.683C0.459,-0.665 0.488,-0.642 0.511,-0.614L0.433,-0.536C0.413,-0.559 0.392,-0.576 0.371,-0.587C0.349,-0.598 0.324,-0.603 0.296,-0.603C0.261,-0.603 0.234,-0.596 0.215,-0.582C0.195,-0.568 0.185,-0.548 0.185,-0.523C0.185,-0.502 0.191,-0.485 0.203,-0.472C0.215,-0.459 0.231,-0.448 0.251,-0.439C0.27,-0.43 0.292,-0.421 0.316,-0.413C0.339,-0.405 0.363,-0.396 0.387,-0.386C0.41,-0.376 0.432,-0.363 0.452,-0.348C0.471,-0.332 0.487,-0.312 0.499,-0.287C0.511,-0.262 0.517,-0.231 0.517,-0.194C0.517,-0.131 0.495,-0.082 0.451,-0.045C0.406,-0.008 0.346,0.01 0.271,0.01Z" style="fill:url(#_Linear11);fill-rule:nonzero;"/>
            </g>
            <g transform="matrix(5.64097,0,0,5.64097,23.1449,0)">
                <rect x="0.076" y="-0.7" width="0.115" height="0.7" style="fill:url(#_Linear12);fill-rule:nonzero;"/>
            </g>
            <g transform="matrix(5.64097,0,0,5.64097,24.6511,0)">
                <path d="M0.271,0.01C0.216,0.01 0.169,0 0.13,-0.02C0.091,-0.04 0.057,-0.069 0.026,-0.108L0.104,-0.186C0.123,-0.158 0.146,-0.136 0.173,-0.121C0.2,-0.105 0.234,-0.097 0.275,-0.097C0.314,-0.097 0.345,-0.105 0.368,-0.121C0.391,-0.137 0.402,-0.159 0.402,-0.187C0.402,-0.21 0.396,-0.229 0.384,-0.244C0.372,-0.259 0.356,-0.271 0.337,-0.281C0.317,-0.29 0.295,-0.299 0.272,-0.307C0.248,-0.314 0.224,-0.323 0.201,-0.333C0.177,-0.342 0.155,-0.354 0.136,-0.369C0.116,-0.384 0.1,-0.403 0.088,-0.426C0.076,-0.449 0.07,-0.479 0.07,-0.515C0.07,-0.556 0.08,-0.592 0.101,-0.621C0.121,-0.65 0.148,-0.672 0.183,-0.687C0.218,-0.702 0.256,-0.71 0.299,-0.71C0.345,-0.71 0.386,-0.701 0.423,-0.683C0.459,-0.665 0.488,-0.642 0.511,-0.614L0.433,-0.536C0.413,-0.559 0.392,-0.576 0.371,-0.587C0.349,-0.598 0.324,-0.603 0.296,-0.603C0.261,-0.603 0.234,-0.596 0.215,-0.582C0.195,-0.568 0.185,-0.548 0.185,-0.523C0.185,-0.502 0.191,-0.485 0.203,-0.472C0.215,-0.459 0.231,-0.448 0.251,-0.439C0.27,-0.43 0.292,-0.421 0.316,-0.413C0.339,-0.405 0.363,-0.396 0.387,-0.386C0.41,-0.376 0.432,-0.363 0.452,-0.348C0.471,-0.332 0.487,-0.312 0.499,-0.287C0.511,-0.262 0.517,-0.231 0.517,-0.194C0.517,-0.131 0.495,-0.082 0.451,-0.045C0.406,-0.008 0.346,0.01 0.271,0.01Z" style="fill:url(#_Linear13);fill-rule:nonzero;"/>
            </g>
            <g transform="matrix(5.64097,0,0,5.64097,27.7874,0)">
                <path d="M0.252,-0L0.252,-0.68L0.367,-0.68L0.367,-0L0.252,-0ZM0.024,-0.595L0.024,-0.7L0.595,-0.7L0.595,-0.595L0.024,-0.595Z" style="fill:url(#_Linear14);fill-rule:nonzero;"/>
            </g>
            <g transform="matrix(5.64097,0,0,5.64097,31.2792,0)">
                <path d="M0.076,-0L0.076,-0.7L0.191,-0.7L0.191,-0L0.076,-0ZM0.155,-0L0.155,-0.105L0.547,-0.105L0.547,-0L0.155,-0ZM0.155,-0.307L0.155,-0.408L0.513,-0.408L0.513,-0.307L0.155,-0.307ZM0.155,-0.595L0.155,-0.7L0.542,-0.7L0.542,-0.595L0.155,-0.595Z" style="fill:url(#_Linear15);fill-rule:nonzero;"/>
            </g>
            <g transform="matrix(5.64097,0,0,5.64097,34.6074,0)">
                <path d="M0.155,-0L0.155,-0.105L0.339,-0.105C0.387,-0.105 0.429,-0.115 0.466,-0.136C0.502,-0.157 0.53,-0.186 0.551,-0.223C0.571,-0.26 0.581,-0.302 0.581,-0.351C0.581,-0.399 0.571,-0.441 0.55,-0.478C0.529,-0.515 0.501,-0.543 0.465,-0.564C0.428,-0.585 0.386,-0.595 0.339,-0.595L0.155,-0.595L0.155,-0.7L0.342,-0.7C0.393,-0.7 0.44,-0.691 0.483,-0.674C0.526,-0.656 0.564,-0.631 0.597,-0.6C0.629,-0.568 0.654,-0.531 0.672,-0.489C0.69,-0.446 0.699,-0.4 0.699,-0.35C0.699,-0.301 0.69,-0.255 0.672,-0.212C0.654,-0.169 0.629,-0.132 0.597,-0.101C0.565,-0.069 0.527,-0.044 0.484,-0.027C0.441,-0.009 0.394,-0 0.344,-0L0.155,-0ZM0.076,-0L0.076,-0.7L0.191,-0.7L0.191,-0L0.076,-0Z" style="fill:url(#_Linear16);fill-rule:nonzero;"/>
            </g>
            <g transform="matrix(5.64097,0,0,5.64097,38.7817,0)">
            </g>
            <g transform="matrix(5.64097,0,0,5.64097,39.9099,0)">
                <path d="M0.155,-0.264L0.155,-0.364L0.33,-0.364C0.354,-0.364 0.375,-0.369 0.393,-0.378C0.412,-0.388 0.426,-0.401 0.437,-0.419C0.448,-0.437 0.453,-0.458 0.453,-0.482C0.453,-0.506 0.448,-0.527 0.437,-0.545C0.426,-0.563 0.412,-0.576 0.393,-0.586C0.375,-0.595 0.354,-0.6 0.33,-0.6L0.155,-0.6L0.155,-0.7L0.336,-0.7C0.38,-0.7 0.42,-0.691 0.455,-0.673C0.49,-0.655 0.517,-0.63 0.538,-0.597C0.558,-0.565 0.568,-0.526 0.568,-0.482C0.568,-0.438 0.558,-0.4 0.538,-0.367C0.517,-0.334 0.49,-0.309 0.455,-0.291C0.42,-0.273 0.38,-0.264 0.336,-0.264L0.155,-0.264ZM0.076,-0L0.076,-0.7L0.191,-0.7L0.191,-0L0.076,-0Z" style="fill:url(#_Linear17);fill-rule:nonzero;"/>
            </g>
            <g transform="matrix(5.64097,0,0,5.64097,43.317,0)">
                <path d="M0.295,-0.28L0.022,-0.7L0.155,-0.7L0.368,-0.365L0.306,-0.365L0.519,-0.7L0.65,-0.7L0.375,-0.28L0.295,-0.28ZM0.279,-0L0.279,-0.352L0.394,-0.352L0.394,-0L0.279,-0Z" style="fill:url(#_Linear18);fill-rule:nonzero;"/>
            </g>
            <g transform="matrix(5.64097,0,0,5.64097,47.1078,0)">
                <path d="M0.155,-0.297L0.155,-0.392L0.332,-0.392C0.367,-0.392 0.395,-0.401 0.415,-0.42C0.434,-0.438 0.444,-0.463 0.444,-0.496C0.444,-0.525 0.434,-0.55 0.415,-0.57C0.396,-0.59 0.368,-0.6 0.333,-0.6L0.155,-0.6L0.155,-0.7L0.338,-0.7C0.382,-0.7 0.421,-0.691 0.454,-0.674C0.487,-0.656 0.513,-0.632 0.532,-0.602C0.55,-0.571 0.559,-0.537 0.559,-0.498C0.559,-0.457 0.55,-0.422 0.532,-0.392C0.513,-0.362 0.487,-0.339 0.454,-0.322C0.421,-0.305 0.382,-0.297 0.338,-0.297L0.155,-0.297ZM0.076,-0L0.076,-0.7L0.191,-0.7L0.191,-0L0.076,-0ZM0.46,-0L0.215,-0.304L0.322,-0.343L0.605,-0L0.46,-0Z" style="fill:url(#_Linear19);fill-rule:nonzero;"/>
            </g>
            <g transform="matrix(5.64097,0,0,5.64097,50.6503,0)">
                <rect x="0.076" y="-0.7" width="0.115" height="0.7" style="fill:url(#_Linear20);fill-rule:nonzero;"/>
            </g>
            <g transform="matrix(5.64097,0,0,5.64097,52.1564,0)">
                <path d="M0.155,-0L0.155,-0.105L0.339,-0.105C0.387,-0.105 0.429,-0.115 0.466,-0.136C0.502,-0.157 0.53,-0.186 0.551,-0.223C0.571,-0.26 0.581,-0.302 0.581,-0.351C0.581,-0.399 0.571,-0.441 0.55,-0.478C0.529,-0.515 0.501,-0.543 0.465,-0.564C0.428,-0.585 0.386,-0.595 0.339,-0.595L0.155,-0.595L0.155,-0.7L0.342,-0.7C0.393,-0.7 0.44,-0.691 0.483,-0.674C0.526,-0.656 0.564,-0.631 0.597,-0.6C0.629,-0.568 0.654,-0.531 0.672,-0.489C0.69,-0.446 0.699,-0.4 0.699,-0.35C0.699,-0.301 0.69,-0.255 0.672,-0.212C0.654,-0.169 0.629,-0.132 0.597,-0.101C0.565,-0.069 0.527,-0.044 0.484,-0.027C0.441,-0.009 0.394,-0 0.344,-0L0.155,-0ZM0.076,-0L0.076,-0.7L0.191,-0.7L0.191,-0L0.076,-0Z" style="fill:url(#_Linear21);fill-rule:nonzero;"/>
            </g>
            <g transform="matrix(5.64097,0,0,5.64097,56.3308,0)">
                <rect x="0.076" y="-0.7" width="0.115" height="0.7" style="fill:url(#_Linear22);fill-rule:nonzero;"/>
            </g>
            <g transform="matrix(5.64097,0,0,5.64097,57.8369,0)">
                <path d="M0.076,-0L0.076,-0.7L0.156,-0.7L0.191,-0.568L0.191,-0L0.076,-0ZM0.561,-0L0.142,-0.547L0.156,-0.7L0.575,-0.153L0.561,-0ZM0.561,-0L0.526,-0.123L0.526,-0.7L0.641,-0.7L0.641,-0L0.561,-0Z" style="fill:url(#_Linear23);fill-rule:nonzero;"/>
            </g>
            <g transform="matrix(5.64097,0,0,5.64097,61.8815,0)">
                <path d="M0.076,-0L0.076,-0.7L0.191,-0.7L0.191,-0L0.076,-0ZM0.155,-0L0.155,-0.105L0.547,-0.105L0.547,-0L0.155,-0ZM0.155,-0.307L0.155,-0.408L0.513,-0.408L0.513,-0.307L0.155,-0.307ZM0.155,-0.595L0.155,-0.7L0.542,-0.7L0.542,-0.595L0.155,-0.595Z" style="fill:url(#_Linear24);fill-rule:nonzero;"/>
            </g>
            <g transform="matrix(5.64097,0,0,5.64097,65.2097,0)">
            </g>
            <g transform="matrix(5.64097,0,0,5.64097,66.3379,0)">
                <path d="M0.155,-0L0.155,-0.1L0.356,-0.1C0.391,-0.1 0.419,-0.111 0.438,-0.133C0.457,-0.155 0.467,-0.18 0.467,-0.209C0.467,-0.228 0.463,-0.246 0.454,-0.263C0.445,-0.28 0.433,-0.293 0.416,-0.303C0.399,-0.313 0.379,-0.318 0.356,-0.318L0.155,-0.318L0.155,-0.418L0.339,-0.418C0.369,-0.418 0.393,-0.426 0.411,-0.441C0.429,-0.456 0.438,-0.479 0.438,-0.509C0.438,-0.539 0.429,-0.562 0.411,-0.577C0.393,-0.592 0.369,-0.6 0.339,-0.6L0.155,-0.6L0.155,-0.7L0.342,-0.7C0.389,-0.7 0.429,-0.691 0.46,-0.674C0.491,-0.657 0.515,-0.634 0.53,-0.607C0.545,-0.58 0.553,-0.55 0.553,-0.519C0.553,-0.482 0.543,-0.45 0.523,-0.422C0.502,-0.394 0.472,-0.371 0.433,-0.354L0.442,-0.39C0.486,-0.372 0.52,-0.347 0.545,-0.314C0.57,-0.281 0.582,-0.243 0.582,-0.199C0.582,-0.163 0.573,-0.13 0.556,-0.1C0.538,-0.07 0.512,-0.046 0.478,-0.028C0.443,-0.009 0.401,-0 0.351,-0L0.155,-0ZM0.076,-0L0.076,-0.7L0.191,-0.7L0.191,-0L0.076,-0Z" style="fill:url(#_Linear25);fill-rule:nonzero;"/>
            </g>
            <g transform="matrix(5.64097,0,0,5.64097,69.8465,0)">
                <path d="M0.398,0.01C0.348,0.01 0.301,0.001 0.258,-0.018C0.215,-0.037 0.177,-0.063 0.144,-0.096C0.111,-0.128 0.086,-0.167 0.068,-0.211C0.049,-0.254 0.04,-0.301 0.04,-0.351C0.04,-0.401 0.049,-0.448 0.068,-0.491C0.086,-0.534 0.111,-0.573 0.144,-0.606C0.176,-0.639 0.214,-0.664 0.257,-0.683C0.3,-0.701 0.346,-0.71 0.396,-0.71C0.446,-0.71 0.493,-0.701 0.536,-0.683C0.579,-0.664 0.616,-0.639 0.649,-0.606C0.682,-0.573 0.707,-0.534 0.726,-0.491C0.744,-0.447 0.753,-0.4 0.753,-0.35C0.753,-0.3 0.744,-0.253 0.726,-0.21C0.707,-0.166 0.682,-0.128 0.65,-0.095C0.617,-0.062 0.58,-0.037 0.537,-0.018C0.494,0.001 0.447,0.01 0.398,0.01ZM0.396,-0.1C0.443,-0.1 0.485,-0.111 0.521,-0.132C0.556,-0.153 0.584,-0.183 0.605,-0.221C0.625,-0.258 0.635,-0.302 0.635,-0.351C0.635,-0.388 0.629,-0.421 0.618,-0.452C0.606,-0.482 0.589,-0.508 0.568,-0.531C0.547,-0.553 0.522,-0.57 0.493,-0.582C0.464,-0.594 0.431,-0.6 0.396,-0.6C0.349,-0.6 0.308,-0.59 0.273,-0.569C0.237,-0.548 0.209,-0.518 0.189,-0.481C0.168,-0.444 0.158,-0.4 0.158,-0.351C0.158,-0.314 0.164,-0.28 0.176,-0.25C0.187,-0.219 0.204,-0.192 0.225,-0.17C0.246,-0.148 0.271,-0.131 0.3,-0.119C0.329,-0.106 0.361,-0.1 0.396,-0.1Z" style="fill:url(#_Linear26);fill-rule:nonzero;"/>
            </g>
            <g transform="matrix(5.64097,0,0,5.64097,74.3255,0)">
                <path d="M0.155,-0.297L0.155,-0.392L0.332,-0.392C0.367,-0.392 0.395,-0.401 0.415,-0.42C0.434,-0.438 0.444,-0.463 0.444,-0.496C0.444,-0.525 0.434,-0.55 0.415,-0.57C0.396,-0.59 0.368,-0.6 0.333,-0.6L0.155,-0.6L0.155,-0.7L0.338,-0.7C0.382,-0.7 0.421,-0.691 0.454,-0.674C0.487,-0.656 0.513,-0.632 0.532,-0.602C0.55,-0.571 0.559,-0.537 0.559,-0.498C0.559,-0.457 0.55,-0.422 0.532,-0.392C0.513,-0.362 0.487,-0.339 0.454,-0.322C0.421,-0.305 0.382,-0.297 0.338,-0.297L0.155,-0.297ZM0.076,-0L0.076,-0.7L0.191,-0.7L0.191,-0L0.076,-0ZM0.46,-0L0.215,-0.304L0.322,-0.343L0.605,-0L0.46,-0Z" style="fill:url(#_Linear27);fill-rule:nonzero;"/>
            </g>
            <g transform="matrix(5.64097,0,0,5.64097,77.868,0)">
                <path d="M0.024,-0L0.312,-0.7L0.392,-0.7L0.678,-0L0.554,-0L0.33,-0.567L0.372,-0.567L0.146,-0L0.024,-0ZM0.166,-0.135L0.166,-0.235L0.537,-0.235L0.537,-0.135L0.166,-0.135Z" style="fill:url(#_Linear28);fill-rule:nonzero;"/>
            </g>
            <g transform="matrix(5.64097,0,0,5.64097,81.828,0)">
                <path d="M0.076,-0L0.076,-0.7L0.156,-0.7L0.191,-0.568L0.191,-0L0.076,-0ZM0.561,-0L0.142,-0.547L0.156,-0.7L0.575,-0.153L0.561,-0ZM0.561,-0L0.526,-0.123L0.526,-0.7L0.641,-0.7L0.641,-0L0.561,-0Z" style="fill:url(#_Linear29);fill-rule:nonzero;"/>
            </g>
            <g transform="matrix(5.64097,0,0,5.64097,85.8725,0)">
                <path d="M0.076,-0L0.076,-0.7L0.191,-0.7L0.191,-0L0.076,-0ZM0.155,-0L0.155,-0.105L0.547,-0.105L0.547,-0L0.155,-0ZM0.155,-0.307L0.155,-0.408L0.513,-0.408L0.513,-0.307L0.155,-0.307ZM0.155,-0.595L0.155,-0.7L0.542,-0.7L0.542,-0.595L0.155,-0.595Z" style="fill:url(#_Linear30);fill-rule:nonzero;"/>
            </g>
            <g transform="matrix(5.64097,0,0,5.64097,89.2007,0)">
            </g>
            <g transform="matrix(5.64097,0,0,5.64097,90.3289,0)">
                <path d="M0.271,0.01C0.216,0.01 0.169,0 0.13,-0.02C0.091,-0.04 0.057,-0.069 0.026,-0.108L0.104,-0.186C0.123,-0.158 0.146,-0.136 0.173,-0.121C0.2,-0.105 0.234,-0.097 0.275,-0.097C0.314,-0.097 0.345,-0.105 0.368,-0.121C0.391,-0.137 0.402,-0.159 0.402,-0.187C0.402,-0.21 0.396,-0.229 0.384,-0.244C0.372,-0.259 0.356,-0.271 0.337,-0.281C0.317,-0.29 0.295,-0.299 0.272,-0.307C0.248,-0.314 0.224,-0.323 0.201,-0.333C0.177,-0.342 0.155,-0.354 0.136,-0.369C0.116,-0.384 0.1,-0.403 0.088,-0.426C0.076,-0.449 0.07,-0.479 0.07,-0.515C0.07,-0.556 0.08,-0.592 0.101,-0.621C0.121,-0.65 0.148,-0.672 0.183,-0.687C0.218,-0.702 0.256,-0.71 0.299,-0.71C0.345,-0.71 0.386,-0.701 0.423,-0.683C0.459,-0.665 0.488,-0.642 0.511,-0.614L0.433,-0.536C0.413,-0.559 0.392,-0.576 0.371,-0.587C0.349,-0.598 0.324,-0.603 0.296,-0.603C0.261,-0.603 0.234,-0.596 0.215,-0.582C0.195,-0.568 0.185,-0.548 0.185,-0.523C0.185,-0.502 0.191,-0.485 0.203,-0.472C0.215,-0.459 0.231,-0.448 0.251,-0.439C0.27,-0.43 0.292,-0.421 0.316,-0.413C0.339,-0.405 0.363,-0.396 0.387,-0.386C0.41,-0.376 0.432,-0.363 0.452,-0.348C0.471,-0.332 0.487,-0.312 0.499,-0.287C0.511,-0.262 0.517,-0.231 0.517,-0.194C0.517,-0.131 0.495,-0.082 0.451,-0.045C0.406,-0.008 0.346,0.01 0.271,0.01Z" style="fill:url(#_Linear31);fill-rule:nonzero;"/>
            </g>
            <g transform="matrix(5.64097,0,0,5.64097,93.4653,0)">
                <path d="M0.076,-0L0.076,-0.7L0.191,-0.7L0.191,-0L0.076,-0ZM0.155,-0L0.155,-0.105L0.547,-0.105L0.547,-0L0.155,-0ZM0.155,-0.307L0.155,-0.408L0.513,-0.408L0.513,-0.307L0.155,-0.307ZM0.155,-0.595L0.155,-0.7L0.542,-0.7L0.542,-0.595L0.155,-0.595Z" style="fill:url(#_Linear32);fill-rule:nonzero;"/>
            </g>
            <g transform="matrix(5.64097,0,0,5.64097,96.7935,0)">
                <path d="M0.399,0.01C0.349,0.01 0.302,0.001 0.259,-0.018C0.216,-0.037 0.178,-0.063 0.145,-0.096C0.112,-0.128 0.087,-0.167 0.069,-0.211C0.05,-0.254 0.041,-0.301 0.041,-0.351C0.041,-0.401 0.05,-0.448 0.069,-0.491C0.087,-0.534 0.112,-0.573 0.145,-0.606C0.177,-0.639 0.215,-0.664 0.258,-0.683C0.301,-0.701 0.347,-0.71 0.397,-0.71C0.447,-0.71 0.494,-0.701 0.537,-0.683C0.58,-0.664 0.617,-0.639 0.65,-0.606C0.683,-0.573 0.708,-0.534 0.727,-0.491C0.745,-0.447 0.754,-0.4 0.754,-0.35C0.754,-0.3 0.745,-0.253 0.727,-0.21C0.708,-0.166 0.683,-0.128 0.651,-0.095C0.618,-0.062 0.58,-0.037 0.538,-0.018C0.495,0.001 0.448,0.01 0.399,0.01ZM0.719,0.048L0.404,-0.267L0.478,-0.341L0.793,-0.026L0.719,0.048ZM0.397,-0.1C0.444,-0.1 0.486,-0.111 0.522,-0.132C0.557,-0.153 0.585,-0.183 0.606,-0.221C0.626,-0.258 0.636,-0.302 0.636,-0.351C0.636,-0.388 0.63,-0.421 0.619,-0.452C0.607,-0.482 0.59,-0.508 0.569,-0.531C0.548,-0.553 0.523,-0.57 0.494,-0.582C0.464,-0.594 0.432,-0.6 0.397,-0.6C0.35,-0.6 0.309,-0.59 0.274,-0.569C0.238,-0.548 0.21,-0.518 0.19,-0.481C0.169,-0.444 0.159,-0.4 0.159,-0.351C0.159,-0.314 0.165,-0.28 0.177,-0.25C0.188,-0.219 0.205,-0.192 0.226,-0.17C0.247,-0.148 0.272,-0.131 0.301,-0.119C0.33,-0.106 0.362,-0.1 0.397,-0.1Z" style="fill:url(#_Linear33);fill-rule:nonzero;"/>
            </g>
            <g transform="matrix(5.64097,0,0,5.64097,101.419,0)">
                <path d="M0.346,0.01C0.293,0.01 0.246,-0.002 0.204,-0.026C0.162,-0.05 0.129,-0.083 0.104,-0.125C0.08,-0.166 0.068,-0.213 0.068,-0.266L0.068,-0.7L0.183,-0.7L0.183,-0.267C0.183,-0.233 0.19,-0.203 0.204,-0.178C0.219,-0.153 0.238,-0.134 0.263,-0.12C0.288,-0.107 0.315,-0.1 0.346,-0.1C0.377,-0.1 0.405,-0.107 0.429,-0.12C0.453,-0.134 0.472,-0.153 0.486,-0.178C0.5,-0.203 0.507,-0.233 0.507,-0.266L0.507,-0.7L0.622,-0.7L0.622,-0.265C0.622,-0.212 0.61,-0.165 0.586,-0.124C0.562,-0.083 0.53,-0.05 0.488,-0.026C0.447,-0.002 0.399,0.01 0.346,0.01Z" style="fill:url(#_Linear34);fill-rule:nonzero;"/>
            </g>
            <g transform="matrix(5.64097,0,0,5.64097,105.311,0)">
                <path d="M0.076,-0L0.076,-0.7L0.191,-0.7L0.191,-0L0.076,-0ZM0.155,-0L0.155,-0.105L0.547,-0.105L0.547,-0L0.155,-0ZM0.155,-0.307L0.155,-0.408L0.513,-0.408L0.513,-0.307L0.155,-0.307ZM0.155,-0.595L0.155,-0.7L0.542,-0.7L0.542,-0.595L0.155,-0.595Z" style="fill:url(#_Linear35);fill-rule:nonzero;"/>
            </g>
            <g transform="matrix(5.64097,0,0,5.64097,108.64,0)">
                <path d="M0.076,-0L0.076,-0.7L0.156,-0.7L0.191,-0.568L0.191,-0L0.076,-0ZM0.561,-0L0.142,-0.547L0.156,-0.7L0.575,-0.153L0.561,-0ZM0.561,-0L0.526,-0.123L0.526,-0.7L0.641,-0.7L0.641,-0L0.561,-0Z" style="fill:url(#_Linear36);fill-rule:nonzero;"/>
            </g>
            <g transform="matrix(5.64097,0,0,5.64097,112.684,0)">
                <path d="M0.394,0.01C0.343,0.01 0.297,0.001 0.254,-0.018C0.211,-0.036 0.173,-0.062 0.141,-0.095C0.109,-0.128 0.084,-0.166 0.067,-0.21C0.05,-0.253 0.041,-0.3 0.041,-0.35C0.041,-0.4 0.05,-0.447 0.067,-0.491C0.084,-0.534 0.109,-0.572 0.141,-0.605C0.173,-0.638 0.211,-0.663 0.254,-0.682C0.297,-0.701 0.343,-0.71 0.394,-0.71C0.451,-0.71 0.5,-0.701 0.541,-0.682C0.582,-0.663 0.619,-0.638 0.651,-0.606L0.573,-0.528C0.552,-0.551 0.527,-0.568 0.498,-0.581C0.468,-0.594 0.433,-0.6 0.394,-0.6C0.359,-0.6 0.328,-0.594 0.299,-0.582C0.27,-0.57 0.246,-0.553 0.225,-0.531C0.204,-0.508 0.187,-0.482 0.176,-0.451C0.165,-0.42 0.159,-0.387 0.159,-0.35C0.159,-0.313 0.165,-0.28 0.176,-0.249C0.187,-0.218 0.204,-0.192 0.225,-0.17C0.246,-0.147 0.27,-0.13 0.299,-0.118C0.328,-0.106 0.359,-0.1 0.394,-0.1C0.437,-0.1 0.473,-0.107 0.503,-0.12C0.532,-0.133 0.557,-0.15 0.578,-0.173L0.656,-0.095C0.624,-0.062 0.586,-0.037 0.543,-0.018C0.5,0.001 0.45,0.01 0.394,0.01Z" style="fill:url(#_Linear37);fill-rule:nonzero;"/>
            </g>
            <g transform="matrix(5.64097,0,0,5.64097,116.537,0)">
                <rect x="0.076" y="-0.7" width="0.115" height="0.7" style="fill:url(#_Linear38);fill-rule:nonzero;"/>
            </g>
            <g transform="matrix(5.64097,0,0,5.64097,118.043,0)">
                <path d="M0.076,-0L0.076,-0.7L0.156,-0.7L0.191,-0.568L0.191,-0L0.076,-0ZM0.561,-0L0.142,-0.547L0.156,-0.7L0.575,-0.153L0.561,-0ZM0.561,-0L0.526,-0.123L0.526,-0.7L0.641,-0.7L0.641,-0L0.561,-0Z" style="fill:url(#_Linear39);fill-rule:nonzero;"/>
            </g>
            <g transform="matrix(5.64097,0,0,5.64097,122.088,0)">
                <path d="M0.392,0.01C0.344,0.01 0.299,0.001 0.256,-0.018C0.213,-0.037 0.176,-0.063 0.144,-0.096C0.112,-0.128 0.087,-0.167 0.069,-0.211C0.05,-0.254 0.041,-0.301 0.041,-0.351C0.041,-0.401 0.05,-0.448 0.069,-0.491C0.087,-0.534 0.112,-0.573 0.145,-0.606C0.177,-0.639 0.215,-0.664 0.259,-0.683C0.302,-0.701 0.349,-0.71 0.4,-0.71C0.455,-0.71 0.507,-0.699 0.554,-0.678C0.601,-0.657 0.641,-0.626 0.673,-0.587L0.595,-0.509C0.574,-0.538 0.547,-0.561 0.512,-0.577C0.477,-0.592 0.44,-0.6 0.4,-0.6C0.352,-0.6 0.31,-0.59 0.274,-0.569C0.237,-0.548 0.209,-0.518 0.189,-0.481C0.169,-0.444 0.159,-0.4 0.159,-0.351C0.159,-0.302 0.169,-0.258 0.19,-0.221C0.21,-0.183 0.237,-0.153 0.272,-0.132C0.307,-0.111 0.346,-0.1 0.39,-0.1C0.437,-0.1 0.477,-0.109 0.511,-0.126C0.544,-0.142 0.57,-0.168 0.588,-0.202C0.606,-0.235 0.615,-0.277 0.615,-0.326L0.687,-0.274L0.388,-0.274L0.388,-0.379L0.734,-0.379L0.734,-0.363C0.734,-0.28 0.719,-0.21 0.69,-0.155C0.66,-0.1 0.619,-0.058 0.568,-0.031C0.517,-0.004 0.458,0.01 0.392,0.01Z" style="fill:url(#_Linear40);fill-rule:nonzero;"/>
            </g>
            <g transform="matrix(5.64097,0,0,5.64097,126.442,0)">
            </g>
        </g>
        <g transform="matrix(4.43186,0,0,4.43186,1028.56,1405.39)">
            <g transform="matrix(33.8458,0,0,33.8458,0,0)">
                <path d="M0.235,-0L0.235,-0.704L0.414,-0.704L0.414,-0L0.235,-0ZM0.018,-0.555L0.018,-0.709L0.631,-0.709L0.631,-0.555L0.018,-0.555Z" style="fill:url(#_Linear41);fill-rule:nonzero;"/>
            </g>
            <g transform="matrix(33.8458,0,0,33.8458,21.966,0)">
                <path d="M0.011,-0L0.286,-0.709L0.459,-0.709L0.731,-0L0.544,-0L0.339,-0.596L0.404,-0.596L0.194,-0L0.011,-0ZM0.178,-0.124L0.178,-0.266L0.569,-0.266L0.569,-0.124L0.178,-0.124Z" style="fill:url(#_Linear42);fill-rule:nonzero;"/>
            </g>
            <g transform="matrix(33.8458,0,0,33.8458,47.0796,0)">
                <path d="M0.205,-0.254L0.205,-0.387L0.345,-0.387C0.362,-0.387 0.378,-0.39 0.393,-0.397C0.407,-0.404 0.419,-0.415 0.427,-0.429C0.436,-0.443 0.44,-0.461 0.44,-0.481C0.44,-0.502 0.436,-0.519 0.427,-0.533C0.419,-0.548 0.407,-0.558 0.393,-0.565C0.378,-0.572 0.362,-0.576 0.345,-0.576L0.205,-0.576L0.205,-0.709L0.376,-0.709C0.421,-0.709 0.462,-0.7 0.499,-0.682C0.535,-0.663 0.564,-0.637 0.586,-0.603C0.607,-0.57 0.618,-0.529 0.618,-0.481C0.618,-0.434 0.607,-0.394 0.586,-0.36C0.564,-0.325 0.535,-0.299 0.499,-0.281C0.462,-0.263 0.421,-0.254 0.376,-0.254L0.205,-0.254ZM0.063,-0L0.063,-0.709L0.242,-0.709L0.242,-0L0.063,-0Z" style="fill:url(#_Linear43);fill-rule:nonzero;"/>
            </g>
            <g transform="matrix(33.8458,0,0,33.8458,68.7409,0)">
                <path d="M0.285,0.012C0.225,0.012 0.174,0.002 0.13,-0.016C0.087,-0.034 0.047,-0.063 0.011,-0.101L0.124,-0.215C0.149,-0.189 0.175,-0.169 0.203,-0.156C0.231,-0.142 0.263,-0.135 0.298,-0.135C0.328,-0.135 0.351,-0.14 0.367,-0.151C0.383,-0.161 0.392,-0.175 0.392,-0.193C0.392,-0.21 0.386,-0.224 0.374,-0.235C0.362,-0.246 0.346,-0.255 0.326,-0.263C0.306,-0.271 0.285,-0.279 0.261,-0.287C0.237,-0.295 0.214,-0.305 0.19,-0.316C0.167,-0.327 0.145,-0.34 0.126,-0.356C0.106,-0.372 0.09,-0.392 0.078,-0.416C0.066,-0.44 0.06,-0.47 0.06,-0.505C0.06,-0.55 0.071,-0.589 0.093,-0.621C0.114,-0.653 0.144,-0.678 0.183,-0.695C0.222,-0.712 0.267,-0.721 0.318,-0.721C0.369,-0.721 0.417,-0.712 0.46,-0.695C0.503,-0.677 0.539,-0.654 0.567,-0.623L0.453,-0.51C0.432,-0.531 0.41,-0.548 0.388,-0.558C0.366,-0.569 0.342,-0.574 0.316,-0.574C0.291,-0.574 0.272,-0.57 0.258,-0.561C0.244,-0.553 0.237,-0.54 0.237,-0.524C0.237,-0.508 0.243,-0.495 0.255,-0.485C0.267,-0.475 0.283,-0.466 0.302,-0.458C0.322,-0.451 0.344,-0.443 0.367,-0.435C0.391,-0.427 0.414,-0.417 0.438,-0.407C0.461,-0.396 0.483,-0.382 0.503,-0.366C0.522,-0.349 0.538,-0.328 0.55,-0.303C0.562,-0.278 0.568,-0.247 0.568,-0.211C0.568,-0.14 0.543,-0.086 0.493,-0.047C0.443,-0.008 0.374,0.012 0.285,0.012Z" style="fill:url(#_Linear44);fill-rule:nonzero;"/>
            </g>
            <g transform="matrix(33.8458,0,0,33.8458,88.913,0)">
            </g>
        </g>
        <g transform="matrix(1.89698,0,0,2.14745,696.862,1139.31)">
            <path d="M176.278,135.914L470.778,135.914" style="fill:none;stroke:url(#_Linear45);stroke-width:1.31px;"/>
        </g>
        <g transform="matrix(4.43186,0,0,4.43186,1486.92,1225.63)">
            <g transform="matrix(6.58114,0,0,6.58114,0,0)">
                <path d="M0.229,-0L0.011,-0.475L0.111,-0.475L0.286,-0.074L0.228,-0.074L0.404,-0.475L0.5,-0.475L0.282,-0L0.229,-0Z" style="fill:url(#_Linear46);fill-rule:nonzero;"/>
            </g>
            <g transform="matrix(6.58114,0,0,6.58114,3.36296,0)">
                <path d="M0.33,0.01C0.278,0.01 0.231,-0.005 0.188,-0.034C0.145,-0.064 0.111,-0.105 0.085,-0.159C0.06,-0.212 0.047,-0.276 0.047,-0.348C0.047,-0.421 0.06,-0.484 0.085,-0.537C0.11,-0.59 0.144,-0.631 0.186,-0.66C0.229,-0.689 0.276,-0.704 0.327,-0.704C0.38,-0.704 0.427,-0.689 0.47,-0.66C0.512,-0.631 0.546,-0.59 0.571,-0.537C0.596,-0.483 0.609,-0.42 0.609,-0.347C0.609,-0.274 0.596,-0.211 0.571,-0.158C0.546,-0.104 0.512,-0.063 0.47,-0.034C0.428,-0.005 0.381,0.01 0.33,0.01ZM0.328,-0.079C0.365,-0.079 0.397,-0.089 0.425,-0.109C0.452,-0.13 0.474,-0.16 0.49,-0.2C0.506,-0.24 0.514,-0.289 0.514,-0.348C0.514,-0.406 0.506,-0.455 0.49,-0.495C0.474,-0.535 0.452,-0.565 0.424,-0.585C0.396,-0.605 0.364,-0.616 0.327,-0.616C0.291,-0.616 0.259,-0.605 0.231,-0.585C0.203,-0.565 0.181,-0.535 0.166,-0.496C0.15,-0.456 0.142,-0.407 0.142,-0.348C0.142,-0.289 0.15,-0.24 0.166,-0.2C0.181,-0.16 0.203,-0.13 0.231,-0.109C0.259,-0.089 0.291,-0.079 0.328,-0.079Z" style="fill:url(#_Linear47);fill-rule:nonzero;"/>
            </g>
            <g transform="matrix(6.58114,0,0,6.58114,7.5025,0)">
                <path d="M0.145,0.01C0.126,0.01 0.11,0.004 0.098,-0.009C0.086,-0.022 0.08,-0.038 0.08,-0.056C0.08,-0.075 0.086,-0.09 0.098,-0.103C0.11,-0.115 0.126,-0.121 0.145,-0.121C0.164,-0.121 0.179,-0.115 0.191,-0.103C0.203,-0.09 0.21,-0.075 0.21,-0.056C0.21,-0.038 0.203,-0.022 0.191,-0.009C0.179,0.004 0.164,0.01 0.145,0.01Z" style="fill:url(#_Linear48);fill-rule:nonzero;"/>
            </g>
            <g transform="matrix(6.58114,0,0,6.58114,9.41102,0)">
                <path d="M0.247,0.01C0.202,0.01 0.16,0.001 0.123,-0.016C0.086,-0.033 0.055,-0.058 0.03,-0.09L0.094,-0.154C0.109,-0.131 0.13,-0.112 0.157,-0.099C0.184,-0.085 0.213,-0.078 0.246,-0.078C0.276,-0.078 0.303,-0.084 0.326,-0.096C0.348,-0.107 0.366,-0.124 0.378,-0.145C0.391,-0.166 0.398,-0.191 0.398,-0.219C0.398,-0.248 0.391,-0.273 0.378,-0.293C0.366,-0.314 0.348,-0.33 0.324,-0.342C0.301,-0.353 0.273,-0.359 0.241,-0.359C0.229,-0.359 0.217,-0.358 0.205,-0.357C0.193,-0.355 0.181,-0.353 0.17,-0.349L0.21,-0.403C0.223,-0.409 0.236,-0.413 0.251,-0.417C0.265,-0.42 0.28,-0.422 0.295,-0.422C0.332,-0.422 0.366,-0.413 0.396,-0.396C0.425,-0.378 0.449,-0.354 0.466,-0.323C0.484,-0.292 0.493,-0.256 0.493,-0.214C0.493,-0.17 0.482,-0.131 0.461,-0.097C0.441,-0.064 0.412,-0.037 0.375,-0.018C0.338,0.001 0.296,0.01 0.247,0.01ZM0.17,-0.349L0.17,-0.406L0.373,-0.637L0.485,-0.638L0.276,-0.401L0.17,-0.349ZM0.063,-0.61L0.063,-0.694L0.485,-0.694L0.485,-0.638L0.403,-0.61L0.063,-0.61Z" style="fill:url(#_Linear49);fill-rule:nonzero;"/>
            </g>
            <g transform="matrix(6.58114,0,0,6.58114,12.7674,0)">
                <path d="M0.145,0.01C0.126,0.01 0.11,0.004 0.098,-0.009C0.086,-0.022 0.08,-0.038 0.08,-0.056C0.08,-0.075 0.086,-0.09 0.098,-0.103C0.11,-0.115 0.126,-0.121 0.145,-0.121C0.164,-0.121 0.179,-0.115 0.191,-0.103C0.203,-0.09 0.21,-0.075 0.21,-0.056C0.21,-0.038 0.203,-0.022 0.191,-0.009C0.179,0.004 0.164,0.01 0.145,0.01Z" style="fill:url(#_Linear50);fill-rule:nonzero;"/>
            </g>
            <g transform="matrix(6.58114,0,0,6.58114,14.4982,0)">
                <path d="M0.33,0.01C0.278,0.01 0.231,-0.005 0.188,-0.034C0.145,-0.064 0.111,-0.105 0.085,-0.159C0.06,-0.212 0.047,-0.276 0.047,-0.348C0.047,-0.421 0.06,-0.484 0.085,-0.537C0.11,-0.59 0.144,-0.631 0.186,-0.66C0.229,-0.689 0.276,-0.704 0.327,-0.704C0.38,-0.704 0.427,-0.689 0.47,-0.66C0.512,-0.631 0.546,-0.59 0.571,-0.537C0.596,-0.483 0.609,-0.42 0.609,-0.347C0.609,-0.274 0.596,-0.211 0.571,-0.158C0.546,-0.104 0.512,-0.063 0.47,-0.034C0.428,-0.005 0.381,0.01 0.33,0.01ZM0.328,-0.079C0.365,-0.079 0.397,-0.089 0.425,-0.109C0.452,-0.13 0.474,-0.16 0.49,-0.2C0.506,-0.24 0.514,-0.289 0.514,-0.348C0.514,-0.406 0.506,-0.455 0.49,-0.495C0.474,-0.535 0.452,-0.565 0.424,-0.585C0.396,-0.605 0.364,-0.616 0.327,-0.616C0.291,-0.616 0.259,-0.605 0.231,-0.585C0.203,-0.565 0.181,-0.535 0.166,-0.496C0.15,-0.456 0.142,-0.407 0.142,-0.348C0.142,-0.289 0.15,-0.24 0.166,-0.2C0.181,-0.16 0.203,-0.13 0.231,-0.109C0.259,-0.089 0.291,-0.079 0.328,-0.079Z" style="fill:url(#_Linear51);fill-rule:nonzero;"/>
            </g>
            <g transform="matrix(6.58114,0,0,6.58114,18.8155,0)">
            </g>
        </g>
        <g transform="matrix(-0.644475,0,0,0.760839,2671.27,255.827)">
            <path d="M1872.13,1235.9L1872.13,1286.78C1872.13,1290.29 1868.77,1293.14 1864.62,1293.14L1685.38,1293.14C1681.23,1293.14 1677.87,1290.29 1677.87,1286.78L1677.87,1235.9C1677.87,1232.39 1681.23,1229.54 1685.38,1229.54L1864.62,1229.54C1868.77,1229.54 1872.13,1232.39 1872.13,1235.9Z" style="fill:none;stroke:url(#_Linear52);stroke-width:2.95px;"/>
        </g>
        <g transform="matrix(1,0,0,0.467466,95.2071,672.777)">
            <path d="M610.831,1492.48L610.831,1366.19" style="fill:none;stroke:rgb(54,127,172);stroke-width:8.54px;"/>
        </g>
        <g transform="matrix(1,0,0,1,-13.7998,-173.583)">
            <path d="M829.298,1456.77L829.298,1500.82" style="fill:none;stroke:rgb(76,152,193);stroke-width:4.17px;"/>
        </g>
        <g transform="matrix(4.43186,0,0,4.43186,626.317,1451.25)">
            <g transform="matrix(7.5213,0,0,7.5213,0,0)">
                <path d="M0.394,0.01C0.343,0.01 0.297,0.001 0.254,-0.018C0.211,-0.036 0.173,-0.062 0.141,-0.095C0.109,-0.128 0.084,-0.166 0.067,-0.21C0.05,-0.253 0.041,-0.3 0.041,-0.35C0.041,-0.4 0.05,-0.447 0.067,-0.491C0.084,-0.534 0.109,-0.572 0.141,-0.605C0.173,-0.638 0.211,-0.663 0.254,-0.682C0.297,-0.701 0.343,-0.71 0.394,-0.71C0.451,-0.71 0.5,-0.701 0.541,-0.682C0.582,-0.663 0.619,-0.638 0.651,-0.606L0.573,-0.528C0.552,-0.551 0.527,-0.568 0.498,-0.581C0.468,-0.594 0.433,-0.6 0.394,-0.6C0.359,-0.6 0.328,-0.594 0.299,-0.582C0.27,-0.57 0.246,-0.553 0.225,-0.531C0.204,-0.508 0.187,-0.482 0.176,-0.451C0.165,-0.42 0.159,-0.387 0.159,-0.35C0.159,-0.313 0.165,-0.28 0.176,-0.249C0.187,-0.218 0.204,-0.192 0.225,-0.17C0.246,-0.147 0.27,-0.13 0.299,-0.118C0.328,-0.106 0.359,-0.1 0.394,-0.1C0.437,-0.1 0.473,-0.107 0.503,-0.12C0.532,-0.133 0.557,-0.15 0.578,-0.173L0.656,-0.095C0.624,-0.062 0.586,-0.037 0.543,-0.018C0.5,0.001 0.45,0.01 0.394,0.01Z" style="fill:rgb(54,127,172);fill-rule:nonzero;"/>
            </g>
            <g transform="matrix(7.5213,0,0,7.5213,5.13705,0)">
            </g>
        </g>
        <g transform="matrix(4.43186,0,0,4.43186,764.93,1450.92)">
            <g transform="matrix(7.5213,0,0,7.5213,0,0)">
                <path d="M0.252,-0L0.252,-0.68L0.367,-0.68L0.367,-0L0.252,-0ZM0.024,-0.595L0.024,-0.7L0.595,-0.7L0.595,-0.595L0.024,-0.595Z" style="fill:rgb(54,127,172);fill-rule:nonzero;"/>
            </g>
            <g transform="matrix(7.5213,0,0,7.5213,4.65568,0)">
            </g>
        </g>
        <g transform="matrix(1,0,0,1,74.9602,-129.377)">
            <g transform="matrix(1,-0,-0,1,388.776,1319.65)">
                <path d="M302.357,209.173L311.381,219.844L297.429,220.66C301.533,219.02 303.997,213.276 302.357,209.173Z" style="fill:rgb(54,127,172);"/>
                <path d="M176.067,219.844C218.108,199.974 260.149,199.148 302.191,215.902" style="fill:none;stroke:rgb(54,127,172);stroke-width:4.17px;"/>
            </g>
        </g>
        <g transform="matrix(0.999888,-0.00586062,-0.00586062,0.694271,66.536,316.521)">
            <path d="M479.447,1391.23L480.192,1430.09" style="fill:none;stroke:rgb(31,70,105);stroke-width:3.9px;"/>
        </g>
        <g transform="matrix(1,0,0,1,60.1004,-122.888)">
            <path d="M543.745,1399.49L543.745,1444.93" style="fill:none;stroke:rgb(40,92,131);stroke-width:4.17px;"/>
        </g>
        <g transform="matrix(4.98584,0,0,4.98584,247.341,1120.25)">
            <circle cx="92" cy="34" r="8" style="fill:rgb(54,127,172);"/>
        </g>
        <g transform="matrix(1,0,0,0.894588,131.087,89.5029)">
            <path d="M753.516,1381.93L753.516,1422.19" style="fill:none;stroke:rgb(94,166,201);stroke-width:4.39px;"/>
        </g>
        <g transform="matrix(1,0,0,1,67.082,-123.276)">
            <path d="M873.819,1449.19L873.819,1486.61" style="fill:none;stroke:rgb(110,177,207);stroke-width:3.33px;"/>
        </g>
        <g transform="matrix(1,0,0,1,74.8206,-126.28)">
            <path d="M913.604,1506.03L913.604,1467.66" style="fill:none;stroke:rgb(123,186,212);stroke-width:3.33px;"/>
        </g>
        <g transform="matrix(4.43186,0,0,4.43186,674.442,1301.95)">
            <g>
                <g transform="matrix(7.5213,0,0,7.5213,0,0)">
                    <path d="M0.061,-0L0.061,-0.48L0.171,-0.48L0.171,-0L0.061,-0ZM0.38,-0L0.38,-0.286C0.38,-0.318 0.37,-0.343 0.35,-0.361C0.33,-0.378 0.305,-0.387 0.276,-0.387C0.256,-0.387 0.238,-0.383 0.223,-0.375C0.207,-0.367 0.194,-0.356 0.185,-0.341C0.176,-0.326 0.171,-0.307 0.171,-0.286L0.128,-0.31C0.128,-0.347 0.136,-0.378 0.152,-0.405C0.168,-0.432 0.19,-0.452 0.217,-0.468C0.244,-0.483 0.275,-0.49 0.309,-0.49C0.343,-0.49 0.374,-0.483 0.401,-0.468C0.428,-0.453 0.45,-0.433 0.466,-0.406C0.482,-0.379 0.49,-0.347 0.49,-0.31L0.49,-0L0.38,-0ZM0.699,-0L0.699,-0.286C0.699,-0.318 0.689,-0.343 0.669,-0.361C0.649,-0.378 0.624,-0.387 0.595,-0.387C0.576,-0.387 0.558,-0.383 0.542,-0.375C0.526,-0.367 0.513,-0.356 0.504,-0.341C0.495,-0.326 0.49,-0.307 0.49,-0.286L0.428,-0.31C0.431,-0.347 0.442,-0.378 0.46,-0.405C0.478,-0.432 0.501,-0.452 0.53,-0.468C0.558,-0.483 0.589,-0.49 0.623,-0.49C0.658,-0.49 0.689,-0.483 0.717,-0.468C0.745,-0.453 0.767,-0.433 0.784,-0.406C0.801,-0.379 0.809,-0.347 0.809,-0.31L0.809,-0L0.699,-0Z" style="fill:white;fill-rule:nonzero;"/>
                </g>
                <g transform="matrix(4.38492,0,0,4.38492,6.47584,-2.50459)">
                    <path d="M0.247,0.01C0.198,0.01 0.155,0.002 0.117,-0.016C0.079,-0.033 0.047,-0.057 0.021,-0.09L0.099,-0.168C0.113,-0.147 0.133,-0.13 0.159,-0.117C0.184,-0.104 0.213,-0.098 0.245,-0.098C0.274,-0.098 0.3,-0.103 0.322,-0.114C0.344,-0.125 0.361,-0.14 0.374,-0.16C0.387,-0.18 0.393,-0.204 0.393,-0.231C0.393,-0.26 0.387,-0.284 0.375,-0.303C0.362,-0.322 0.346,-0.336 0.326,-0.346C0.305,-0.355 0.283,-0.36 0.26,-0.36C0.233,-0.36 0.21,-0.357 0.189,-0.351C0.167,-0.345 0.147,-0.334 0.127,-0.319L0.13,-0.391C0.141,-0.405 0.153,-0.417 0.167,-0.426C0.181,-0.435 0.197,-0.441 0.216,-0.446C0.235,-0.451 0.257,-0.453 0.282,-0.453C0.331,-0.453 0.373,-0.443 0.407,-0.422C0.44,-0.401 0.466,-0.374 0.483,-0.34C0.5,-0.305 0.509,-0.267 0.509,-0.225C0.509,-0.18 0.498,-0.139 0.476,-0.104C0.453,-0.069 0.422,-0.041 0.383,-0.021C0.344,-0 0.298,0.01 0.247,0.01ZM0.127,-0.319L0.064,-0.382L0.095,-0.7L0.2,-0.7L0.164,-0.369L0.127,-0.319ZM0.115,-0.597L0.095,-0.7L0.47,-0.7L0.47,-0.597L0.115,-0.597Z" style="fill:white;fill-rule:nonzero;"/>
                </g>
                <g transform="matrix(7.5213,0,0,7.5213,8.86562,0)">
                    <path d="M0.394,0.01C0.343,0.01 0.297,0.001 0.254,-0.018C0.211,-0.036 0.173,-0.062 0.141,-0.095C0.109,-0.128 0.084,-0.166 0.067,-0.21C0.05,-0.253 0.041,-0.3 0.041,-0.35C0.041,-0.4 0.05,-0.447 0.067,-0.491C0.084,-0.534 0.109,-0.572 0.141,-0.605C0.173,-0.638 0.211,-0.663 0.254,-0.682C0.297,-0.701 0.343,-0.71 0.394,-0.71C0.451,-0.71 0.5,-0.701 0.541,-0.682C0.582,-0.663 0.619,-0.638 0.651,-0.606L0.573,-0.528C0.552,-0.551 0.527,-0.568 0.498,-0.581C0.468,-0.594 0.433,-0.6 0.394,-0.6C0.359,-0.6 0.328,-0.594 0.299,-0.582C0.27,-0.57 0.246,-0.553 0.225,-0.531C0.204,-0.508 0.187,-0.482 0.176,-0.451C0.165,-0.42 0.159,-0.387 0.159,-0.35C0.159,-0.313 0.165,-0.28 0.176,-0.249C0.187,-0.218 0.204,-0.192 0.225,-0.17C0.246,-0.147 0.27,-0.13 0.299,-0.118C0.328,-0.106 0.359,-0.1 0.394,-0.1C0.437,-0.1 0.473,-0.107 0.503,-0.12C0.532,-0.133 0.557,-0.15 0.578,-0.173L0.656,-0.095C0.624,-0.062 0.586,-0.037 0.543,-0.018C0.5,0.001 0.45,0.01 0.394,0.01Z" style="fill:white;fill-rule:nonzero;"/>
                </g>
                <g transform="matrix(7.5213,0,0,7.5213,14.0027,0)">
                </g>
            </g>
        </g>
        <g transform="matrix(3.69094,0,0,3.69094,475.931,1226.74)">
            <circle cx="92" cy="34" r="8" style="fill:rgb(76,152,193);"/>
        </g>
        <g transform="matrix(2.49344,0,0,2.49344,792.555,1359.09)">
            <g>
                <g transform="matrix(7.5213,0,0,7.5213,0,0)">
                    <path d="M0.39,-0L0.39,-0.277C0.39,-0.309 0.38,-0.335 0.36,-0.356C0.339,-0.377 0.313,-0.387 0.281,-0.387C0.26,-0.387 0.24,-0.382 0.224,-0.373C0.207,-0.364 0.194,-0.351 0.185,-0.334C0.176,-0.317 0.171,-0.298 0.171,-0.277L0.128,-0.301C0.128,-0.338 0.136,-0.37 0.152,-0.399C0.168,-0.427 0.19,-0.449 0.218,-0.466C0.247,-0.482 0.279,-0.49 0.314,-0.49C0.35,-0.49 0.382,-0.482 0.41,-0.466C0.438,-0.45 0.46,-0.428 0.476,-0.4C0.492,-0.371 0.5,-0.338 0.5,-0.301L0.5,-0L0.39,-0ZM0.061,-0L0.061,-0.72L0.171,-0.72L0.171,-0L0.061,-0Z" style="fill:white;fill-rule:nonzero;"/>
                </g>
                <g transform="matrix(7.5213,0,0,7.5213,4.14424,0)">
                    <path d="M0.061,-0L0.061,-0.48L0.171,-0.48L0.171,-0L0.061,-0ZM0.38,-0L0.38,-0.286C0.38,-0.318 0.37,-0.343 0.35,-0.361C0.33,-0.378 0.305,-0.387 0.276,-0.387C0.256,-0.387 0.238,-0.383 0.223,-0.375C0.207,-0.367 0.194,-0.356 0.185,-0.341C0.176,-0.326 0.171,-0.307 0.171,-0.286L0.128,-0.31C0.128,-0.347 0.136,-0.378 0.152,-0.405C0.168,-0.432 0.19,-0.452 0.217,-0.468C0.244,-0.483 0.275,-0.49 0.309,-0.49C0.343,-0.49 0.374,-0.483 0.401,-0.468C0.428,-0.453 0.45,-0.433 0.466,-0.406C0.482,-0.379 0.49,-0.347 0.49,-0.31L0.49,-0L0.38,-0ZM0.699,-0L0.699,-0.286C0.699,-0.318 0.689,-0.343 0.669,-0.361C0.649,-0.378 0.624,-0.387 0.595,-0.387C0.576,-0.387 0.558,-0.383 0.542,-0.375C0.526,-0.367 0.513,-0.356 0.504,-0.341C0.495,-0.326 0.49,-0.307 0.49,-0.286L0.428,-0.31C0.431,-0.347 0.442,-0.378 0.46,-0.405C0.478,-0.432 0.501,-0.452 0.53,-0.468C0.558,-0.483 0.589,-0.49 0.623,-0.49C0.658,-0.49 0.689,-0.483 0.717,-0.468C0.745,-0.453 0.767,-0.433 0.784,-0.406C0.801,-0.379 0.809,-0.347 0.809,-0.31L0.809,-0L0.699,-0Z" style="fill:white;fill-rule:nonzero;"/>
                </g>
                <g transform="matrix(4.38492,0,0,4.38492,10.6201,-2.50459)">
                    <path d="M0.247,0.01C0.198,0.01 0.155,0.002 0.117,-0.016C0.079,-0.033 0.047,-0.057 0.021,-0.09L0.099,-0.168C0.113,-0.147 0.133,-0.13 0.159,-0.117C0.184,-0.104 0.213,-0.098 0.245,-0.098C0.274,-0.098 0.3,-0.103 0.322,-0.114C0.344,-0.125 0.361,-0.14 0.374,-0.16C0.387,-0.18 0.393,-0.204 0.393,-0.231C0.393,-0.26 0.387,-0.284 0.375,-0.303C0.362,-0.322 0.346,-0.336 0.326,-0.346C0.305,-0.355 0.283,-0.36 0.26,-0.36C0.233,-0.36 0.21,-0.357 0.189,-0.351C0.167,-0.345 0.147,-0.334 0.127,-0.319L0.13,-0.391C0.141,-0.405 0.153,-0.417 0.167,-0.426C0.181,-0.435 0.197,-0.441 0.216,-0.446C0.235,-0.451 0.257,-0.453 0.282,-0.453C0.331,-0.453 0.373,-0.443 0.407,-0.422C0.44,-0.401 0.466,-0.374 0.483,-0.34C0.5,-0.305 0.509,-0.267 0.509,-0.225C0.509,-0.18 0.498,-0.139 0.476,-0.104C0.453,-0.069 0.422,-0.041 0.383,-0.021C0.344,-0 0.298,0.01 0.247,0.01ZM0.127,-0.319L0.064,-0.382L0.095,-0.7L0.2,-0.7L0.164,-0.369L0.127,-0.319ZM0.115,-0.597L0.095,-0.7L0.47,-0.7L0.47,-0.597L0.115,-0.597Z" style="fill:white;fill-rule:nonzero;"/>
                </g>
                <g transform="matrix(7.5213,0,0,7.5213,13.0099,0)">
                    <path d="M0.394,0.01C0.343,0.01 0.297,0.001 0.254,-0.018C0.211,-0.036 0.173,-0.062 0.141,-0.095C0.109,-0.128 0.084,-0.166 0.067,-0.21C0.05,-0.253 0.041,-0.3 0.041,-0.35C0.041,-0.4 0.05,-0.447 0.067,-0.491C0.084,-0.534 0.109,-0.572 0.141,-0.605C0.173,-0.638 0.211,-0.663 0.254,-0.682C0.297,-0.701 0.343,-0.71 0.394,-0.71C0.451,-0.71 0.5,-0.701 0.541,-0.682C0.582,-0.663 0.619,-0.638 0.651,-0.606L0.573,-0.528C0.552,-0.551 0.527,-0.568 0.498,-0.581C0.468,-0.594 0.433,-0.6 0.394,-0.6C0.359,-0.6 0.328,-0.594 0.299,-0.582C0.27,-0.57 0.246,-0.553 0.225,-0.531C0.204,-0.508 0.187,-0.482 0.176,-0.451C0.165,-0.42 0.159,-0.387 0.159,-0.35C0.159,-0.313 0.165,-0.28 0.176,-0.249C0.187,-0.218 0.204,-0.192 0.225,-0.17C0.246,-0.147 0.27,-0.13 0.299,-0.118C0.328,-0.106 0.359,-0.1 0.394,-0.1C0.437,-0.1 0.473,-0.107 0.503,-0.12C0.532,-0.133 0.557,-0.15 0.578,-0.173L0.656,-0.095C0.624,-0.062 0.586,-0.037 0.543,-0.018C0.5,0.001 0.45,0.01 0.394,0.01Z" style="fill:white;fill-rule:nonzero;"/>
                </g>
                <g transform="matrix(7.5213,0,0,7.5213,18.1469,0)">
                </g>
            </g>
        </g>
        <g transform="matrix(2.67214,0,0,2.67214,767.079,1232.32)">
            <g transform="matrix(7.5213,0,0,7.5213,0,0)">
                <path d="M0.394,0.01C0.343,0.01 0.297,0.001 0.254,-0.018C0.211,-0.036 0.173,-0.062 0.141,-0.095C0.109,-0.128 0.084,-0.166 0.067,-0.21C0.05,-0.253 0.041,-0.3 0.041,-0.35C0.041,-0.4 0.05,-0.447 0.067,-0.491C0.084,-0.534 0.109,-0.572 0.141,-0.605C0.173,-0.638 0.211,-0.663 0.254,-0.682C0.297,-0.701 0.343,-0.71 0.394,-0.71C0.451,-0.71 0.5,-0.701 0.541,-0.682C0.582,-0.663 0.619,-0.638 0.651,-0.606L0.573,-0.528C0.552,-0.551 0.527,-0.568 0.498,-0.581C0.468,-0.594 0.433,-0.6 0.394,-0.6C0.359,-0.6 0.328,-0.594 0.299,-0.582C0.27,-0.57 0.246,-0.553 0.225,-0.531C0.204,-0.508 0.187,-0.482 0.176,-0.451C0.165,-0.42 0.159,-0.387 0.159,-0.35C0.159,-0.313 0.165,-0.28 0.176,-0.249C0.187,-0.218 0.204,-0.192 0.225,-0.17C0.246,-0.147 0.27,-0.13 0.299,-0.118C0.328,-0.106 0.359,-0.1 0.394,-0.1C0.437,-0.1 0.473,-0.107 0.503,-0.12C0.532,-0.133 0.557,-0.15 0.578,-0.173L0.656,-0.095C0.624,-0.062 0.586,-0.037 0.543,-0.018C0.5,0.001 0.45,0.01 0.394,0.01Z" style="fill:rgb(76,153,194);fill-rule:nonzero;"/>
            </g>
            <g transform="matrix(7.5213,0,0,7.5213,5.13705,0)">
            </g>
        </g>
        <g transform="matrix(2.67214,0,0,2.67214,850.655,1232.12)">
            <g transform="matrix(7.5213,0,0,7.5213,0,0)">
                <path d="M0.252,-0L0.252,-0.68L0.367,-0.68L0.367,-0L0.252,-0ZM0.024,-0.595L0.024,-0.7L0.595,-0.7L0.595,-0.595L0.024,-0.595Z" style="fill:rgb(76,153,194);fill-rule:nonzero;"/>
            </g>
            <g transform="matrix(7.5213,0,0,7.5213,4.65568,0)">
            </g>
        </g>
        <g transform="matrix(0.602938,0,0,-0.602938,434.645,2178.58)">
            <g transform="matrix(1.65854,0,0,-1.65854,48.2493,1639.16)">
                <path d="M379.125,59.033L393.06,60.092L383.852,70.605C385.563,66.53 383.2,60.744 379.125,59.033Z" style="fill:rgb(76,152,193);"/>
                <path d="M311.474,60.092C335.584,71.487 359.693,72.494 383.803,63.874" style="fill:none;stroke:rgb(76,152,193);stroke-width:4.17px;"/>
            </g>
        </g>
        <g transform="matrix(2.67214,0,0,2.67214,490.638,1225.82)">
            <g transform="matrix(6.2372,0,0,6.2372,0,0)">
                <path d="M0.394,0.01C0.343,0.01 0.297,0.001 0.254,-0.018C0.211,-0.036 0.173,-0.062 0.141,-0.095C0.109,-0.128 0.084,-0.166 0.067,-0.21C0.05,-0.253 0.041,-0.3 0.041,-0.35C0.041,-0.4 0.05,-0.447 0.067,-0.491C0.084,-0.534 0.109,-0.572 0.141,-0.605C0.173,-0.638 0.211,-0.663 0.254,-0.682C0.297,-0.701 0.343,-0.71 0.394,-0.71C0.451,-0.71 0.5,-0.701 0.541,-0.682C0.582,-0.663 0.619,-0.638 0.651,-0.606L0.573,-0.528C0.552,-0.551 0.527,-0.568 0.498,-0.581C0.468,-0.594 0.433,-0.6 0.394,-0.6C0.359,-0.6 0.328,-0.594 0.299,-0.582C0.27,-0.57 0.246,-0.553 0.225,-0.531C0.204,-0.508 0.187,-0.482 0.176,-0.451C0.165,-0.42 0.159,-0.387 0.159,-0.35C0.159,-0.313 0.165,-0.28 0.176,-0.249C0.187,-0.218 0.204,-0.192 0.225,-0.17C0.246,-0.147 0.27,-0.13 0.299,-0.118C0.328,-0.106 0.359,-0.1 0.394,-0.1C0.437,-0.1 0.473,-0.107 0.503,-0.12C0.532,-0.133 0.557,-0.15 0.578,-0.173L0.656,-0.095C0.624,-0.062 0.586,-0.037 0.543,-0.018C0.5,0.001 0.45,0.01 0.394,0.01Z" style="fill:rgb(35,81,119);fill-rule:nonzero;"/>
            </g>
            <g transform="matrix(6.2372,0,0,6.2372,4.26001,0)">
            </g>
        </g>
        <g transform="matrix(2.67214,0,0,2.67214,574.213,1225.82)">
            <g transform="matrix(6.2372,0,0,6.2372,0,0)">
                <path d="M0.394,0.01C0.343,0.01 0.297,0.001 0.254,-0.018C0.211,-0.036 0.173,-0.062 0.141,-0.095C0.109,-0.128 0.084,-0.166 0.067,-0.21C0.05,-0.253 0.041,-0.3 0.041,-0.35C0.041,-0.4 0.05,-0.447 0.067,-0.491C0.084,-0.534 0.109,-0.572 0.141,-0.605C0.173,-0.638 0.211,-0.663 0.254,-0.682C0.297,-0.701 0.343,-0.71 0.394,-0.71C0.451,-0.71 0.5,-0.701 0.541,-0.682C0.582,-0.663 0.619,-0.638 0.651,-0.606L0.573,-0.528C0.552,-0.551 0.527,-0.568 0.498,-0.581C0.468,-0.594 0.433,-0.6 0.394,-0.6C0.359,-0.6 0.328,-0.594 0.299,-0.582C0.27,-0.57 0.246,-0.553 0.225,-0.531C0.204,-0.508 0.187,-0.482 0.176,-0.451C0.165,-0.42 0.159,-0.387 0.159,-0.35C0.159,-0.313 0.165,-0.28 0.176,-0.249C0.187,-0.218 0.204,-0.192 0.225,-0.17C0.246,-0.147 0.27,-0.13 0.299,-0.118C0.328,-0.106 0.359,-0.1 0.394,-0.1C0.437,-0.1 0.473,-0.107 0.503,-0.12C0.532,-0.133 0.557,-0.15 0.578,-0.173L0.656,-0.095C0.624,-0.062 0.586,-0.037 0.543,-0.018C0.5,0.001 0.45,0.01 0.394,0.01Z" style="fill:rgb(35,81,119);fill-rule:nonzero;"/>
            </g>
            <g transform="matrix(6.2372,0,0,6.2372,4.26001,0)">
            </g>
        </g>
        <g transform="matrix(0.602938,0,0,-0.602938,158.204,2172.08)">
            <g transform="matrix(1.65854,0,0,-1.65854,506.739,1628.38)">
                <path d="M102.684,52.536L116.619,53.595L107.411,64.108C109.122,60.033 106.759,54.247 102.684,52.536Z" style="fill:rgb(35,81,119);"/>
                <path d="M35.033,53.595C59.143,64.99 83.252,65.997 107.362,57.377" style="fill:none;stroke:rgb(35,81,119);stroke-width:4.17px;"/>
            </g>
        </g>
        <g transform="matrix(4.43186,0,0,4.43186,369.157,914.336)">
            <path d="M24.248,90C29.998,84.633 39.212,81.018 48.052,81.28C54.104,81.459 60.207,82.414 64,90C73.333,108.667 78.784,106.153 92,90C101.509,78.378 102.883,82.688 118.943,94.948C128.65,102.358 131.221,104.817 141.089,94.948" style="fill:none;fill-rule:nonzero;stroke:url(#_Linear53);stroke-width:1.41px;stroke-linejoin:miter;stroke-miterlimit:4;"/>
        </g>
        <g transform="matrix(4.43186,0,0,4.43186,319.94,782.826)">
            <circle cx="64" cy="122" r="5" style="fill:rgb(40,92,131);"/>
        </g>
        <g transform="matrix(4.43186,0,0,4.43186,600.964,838.29)">
            <circle cx="64" cy="122" r="5" style="fill:rgb(94,166,201);"/>
        </g>
        <g transform="matrix(2.65911,0,0,2.65911,368.502,989.058)">
            <circle cx="64" cy="122" r="5" style="fill:rgb(31,70,105);"/>
        </g>
        <g transform="matrix(2.65911,0,0,2.65911,770.718,996.353)">
            <circle cx="64" cy="122" r="5" style="fill:rgb(110,177,207);"/>
        </g>
        <g transform="matrix(2.65911,0,0,2.65911,818.241,1057.46)">
            <circle cx="64" cy="122" r="5" style="fill:rgb(123,186,212);"/>
        </g>
        <g transform="matrix(4.43186,0,0,4.43186,875.891,1387.73)">
            <g transform="matrix(5.64097,0,0,5.64097,0,0)">
                <path d="M0.394,0.01C0.343,0.01 0.297,0.001 0.254,-0.018C0.211,-0.036 0.173,-0.062 0.141,-0.095C0.109,-0.128 0.084,-0.166 0.067,-0.21C0.05,-0.253 0.041,-0.3 0.041,-0.35C0.041,-0.4 0.05,-0.447 0.067,-0.491C0.084,-0.534 0.109,-0.572 0.141,-0.605C0.173,-0.638 0.211,-0.663 0.254,-0.682C0.297,-0.701 0.343,-0.71 0.394,-0.71C0.451,-0.71 0.5,-0.701 0.541,-0.682C0.582,-0.663 0.619,-0.638 0.651,-0.606L0.573,-0.528C0.552,-0.551 0.527,-0.568 0.498,-0.581C0.468,-0.594 0.433,-0.6 0.394,-0.6C0.359,-0.6 0.328,-0.594 0.299,-0.582C0.27,-0.57 0.246,-0.553 0.225,-0.531C0.204,-0.508 0.187,-0.482 0.176,-0.451C0.165,-0.42 0.159,-0.387 0.159,-0.35C0.159,-0.313 0.165,-0.28 0.176,-0.249C0.187,-0.218 0.204,-0.192 0.225,-0.17C0.246,-0.147 0.27,-0.13 0.299,-0.118C0.328,-0.106 0.359,-0.1 0.394,-0.1C0.437,-0.1 0.473,-0.107 0.503,-0.12C0.532,-0.133 0.557,-0.15 0.578,-0.173L0.656,-0.095C0.624,-0.062 0.586,-0.037 0.543,-0.018C0.5,0.001 0.45,0.01 0.394,0.01Z" style="fill:white;fill-rule:nonzero;"/>
            </g>
        </g>
        <g transform="matrix(4.43186,0,0,4.43186,935.093,1326.6)">
            <g transform="matrix(3.76065,0,0,3.76065,0,0)">
                <path d="M0.394,0.01C0.343,0.01 0.297,0.001 0.254,-0.018C0.211,-0.036 0.173,-0.062 0.141,-0.095C0.109,-0.128 0.084,-0.166 0.067,-0.21C0.05,-0.253 0.041,-0.3 0.041,-0.35C0.041,-0.4 0.05,-0.447 0.067,-0.491C0.084,-0.534 0.109,-0.572 0.141,-0.605C0.173,-0.638 0.211,-0.663 0.254,-0.682C0.297,-0.701 0.343,-0.71 0.394,-0.71C0.451,-0.71 0.5,-0.701 0.541,-0.682C0.582,-0.663 0.619,-0.638 0.651,-0.606L0.573,-0.528C0.552,-0.551 0.527,-0.568 0.498,-0.581C0.468,-0.594 0.433,-0.6 0.394,-0.6C0.359,-0.6 0.328,-0.594 0.299,-0.582C0.27,-0.57 0.246,-0.553 0.225,-0.531C0.204,-0.508 0.187,-0.482 0.176,-0.451C0.165,-0.42 0.159,-0.387 0.159,-0.35C0.159,-0.313 0.165,-0.28 0.176,-0.249C0.187,-0.218 0.204,-0.192 0.225,-0.17C0.246,-0.147 0.27,-0.13 0.299,-0.118C0.328,-0.106 0.359,-0.1 0.394,-0.1C0.437,-0.1 0.473,-0.107 0.503,-0.12C0.532,-0.133 0.557,-0.15 0.578,-0.173L0.656,-0.095C0.624,-0.062 0.586,-0.037 0.543,-0.018C0.5,0.001 0.45,0.01 0.394,0.01Z" style="fill:white;fill-rule:nonzero;"/>
            </g>
        </g>
        <g transform="matrix(4.43186,0,0,4.43186,594.867,1332.26)">
            <g transform="matrix(5.64097,0,0,5.64097,0,0)">
                <path d="M0.394,0.01C0.343,0.01 0.297,0.001 0.254,-0.018C0.211,-0.036 0.173,-0.062 0.141,-0.095C0.109,-0.128 0.084,-0.166 0.067,-0.21C0.05,-0.253 0.041,-0.3 0.041,-0.35C0.041,-0.4 0.05,-0.447 0.067,-0.491C0.084,-0.534 0.109,-0.572 0.141,-0.605C0.173,-0.638 0.211,-0.663 0.254,-0.682C0.297,-0.701 0.343,-0.71 0.394,-0.71C0.451,-0.71 0.5,-0.701 0.541,-0.682C0.582,-0.663 0.619,-0.638 0.651,-0.606L0.573,-0.528C0.552,-0.551 0.527,-0.568 0.498,-0.581C0.468,-0.594 0.433,-0.6 0.394,-0.6C0.359,-0.6 0.328,-0.594 0.299,-0.582C0.27,-0.57 0.246,-0.553 0.225,-0.531C0.204,-0.508 0.187,-0.482 0.176,-0.451C0.165,-0.42 0.159,-0.387 0.159,-0.35C0.159,-0.313 0.165,-0.28 0.176,-0.249C0.187,-0.218 0.204,-0.192 0.225,-0.17C0.246,-0.147 0.27,-0.13 0.299,-0.118C0.328,-0.106 0.359,-0.1 0.394,-0.1C0.437,-0.1 0.473,-0.107 0.503,-0.12C0.532,-0.133 0.557,-0.15 0.578,-0.173L0.656,-0.095C0.624,-0.062 0.586,-0.037 0.543,-0.018C0.5,0.001 0.45,0.01 0.394,0.01Z" style="fill:white;fill-rule:nonzero;"/>
            </g>
        </g>
        <g transform="matrix(4.43186,0,0,4.43186,982.616,1387.7)">
            <g transform="matrix(3.76065,0,0,3.76065,0,0)">
                <path d="M0.394,0.01C0.343,0.01 0.297,0.001 0.254,-0.018C0.211,-0.036 0.173,-0.062 0.141,-0.095C0.109,-0.128 0.084,-0.166 0.067,-0.21C0.05,-0.253 0.041,-0.3 0.041,-0.35C0.041,-0.4 0.05,-0.447 0.067,-0.491C0.084,-0.534 0.109,-0.572 0.141,-0.605C0.173,-0.638 0.211,-0.663 0.254,-0.682C0.297,-0.701 0.343,-0.71 0.394,-0.71C0.451,-0.71 0.5,-0.701 0.541,-0.682C0.582,-0.663 0.619,-0.638 0.651,-0.606L0.573,-0.528C0.552,-0.551 0.527,-0.568 0.498,-0.581C0.468,-0.594 0.433,-0.6 0.394,-0.6C0.359,-0.6 0.328,-0.594 0.299,-0.582C0.27,-0.57 0.246,-0.553 0.225,-0.531C0.204,-0.508 0.187,-0.482 0.176,-0.451C0.165,-0.42 0.159,-0.387 0.159,-0.35C0.159,-0.313 0.165,-0.28 0.176,-0.249C0.187,-0.218 0.204,-0.192 0.225,-0.17C0.246,-0.147 0.27,-0.13 0.299,-0.118C0.328,-0.106 0.359,-0.1 0.394,-0.1C0.437,-0.1 0.473,-0.107 0.503,-0.12C0.532,-0.133 0.557,-0.15 0.578,-0.173L0.656,-0.095C0.624,-0.062 0.586,-0.037 0.543,-0.018C0.5,0.001 0.45,0.01 0.394,0.01Z" style="fill:white;fill-rule:nonzero;"/>
            </g>
        </g>
        <g transform="matrix(4.43186,0,0,4.43186,532.877,1319.3)">
            <g transform="matrix(3.76065,0,0,3.76065,0,0)">
                <path d="M0.394,0.01C0.343,0.01 0.297,0.001 0.254,-0.018C0.211,-0.036 0.173,-0.062 0.141,-0.095C0.109,-0.128 0.084,-0.166 0.067,-0.21C0.05,-0.253 0.041,-0.3 0.041,-0.35C0.041,-0.4 0.05,-0.447 0.067,-0.491C0.084,-0.534 0.109,-0.572 0.141,-0.605C0.173,-0.638 0.211,-0.663 0.254,-0.682C0.297,-0.701 0.343,-0.71 0.394,-0.71C0.451,-0.71 0.5,-0.701 0.541,-0.682C0.582,-0.663 0.619,-0.638 0.651,-0.606L0.573,-0.528C0.552,-0.551 0.527,-0.568 0.498,-0.581C0.468,-0.594 0.433,-0.6 0.394,-0.6C0.359,-0.6 0.328,-0.594 0.299,-0.582C0.27,-0.57 0.246,-0.553 0.225,-0.531C0.204,-0.508 0.187,-0.482 0.176,-0.451C0.165,-0.42 0.159,-0.387 0.159,-0.35C0.159,-0.313 0.165,-0.28 0.176,-0.249C0.187,-0.218 0.204,-0.192 0.225,-0.17C0.246,-0.147 0.27,-0.13 0.299,-0.118C0.328,-0.106 0.359,-0.1 0.394,-0.1C0.437,-0.1 0.473,-0.107 0.503,-0.12C0.532,-0.133 0.557,-0.15 0.578,-0.173L0.656,-0.095C0.624,-0.062 0.586,-0.037 0.543,-0.018C0.5,0.001 0.45,0.01 0.394,0.01Z" style="fill:white;fill-rule:nonzero;"/>
            </g>
        </g>
    </g>
    <defs>
        <linearGradient id="_Linear1" x1="0" y1="0" x2="1" y2="0" gradientUnits="userSpaceOnUse" gradientTransform="matrix(2.72266,0,0,1.11719,0,-0.34668)"><stop offset="0" style="stop-color:rgb(26,58,92);stop-opacity:1"/><stop offset="1" style="stop-color:rgb(58,142,187);stop-opacity:1"/></linearGradient>
        <linearGradient id="_Linear2" x1="0" y1="0" x2="1" y2="0" gradientUnits="userSpaceOnUse" gradientTransform="matrix(2.72266,0,0,1.11719,-0.458,-0.34668)"><stop offset="0" style="stop-color:rgb(26,58,92);stop-opacity:1"/><stop offset="1" style="stop-color:rgb(58,142,187);stop-opacity:1"/></linearGradient>
        <linearGradient id="_Linear3" x1="0" y1="0" x2="1" y2="0" gradientUnits="userSpaceOnUse" gradientTransform="matrix(2.72266,0,0,1.11719,-1.11,-0.34668)"><stop offset="0" style="stop-color:rgb(26,58,92);stop-opacity:1"/><stop offset="1" style="stop-color:rgb(58,142,187);stop-opacity:1"/></linearGradient>
        <linearGradient id="_Linear4" x1="0" y1="0" x2="1" y2="0" gradientUnits="userSpaceOnUse" gradientTransform="matrix(2.72266,0,0,1.11719,-1.848,-0.34668)"><stop offset="0" style="stop-color:rgb(26,58,92);stop-opacity:1"/><stop offset="1" style="stop-color:rgb(58,142,187);stop-opacity:1"/></linearGradient>
        <linearGradient id="_Linear5" x1="0" y1="0" x2="1" y2="0" gradientUnits="userSpaceOnUse" gradientTransform="matrix(23.8359,0,0,1.11719,0,-0.34668)"><stop offset="0" style="stop-color:rgb(59,125,182);stop-opacity:1"/><stop offset="1" style="stop-color:rgb(56,154,189);stop-opacity:1"/></linearGradient>
        <linearGradient id="_Linear6" x1="0" y1="0" x2="1" y2="0" gradientUnits="userSpaceOnUse" gradientTransform="matrix(23.8359,0,0,1.11719,-0.619,-0.34668)"><stop offset="0" style="stop-color:rgb(59,125,182);stop-opacity:1"/><stop offset="1" style="stop-color:rgb(56,154,189);stop-opacity:1"/></linearGradient>
        <linearGradient id="_Linear7" x1="0" y1="0" x2="1" y2="0" gradientUnits="userSpaceOnUse" gradientTransform="matrix(23.8359,0,0,1.11719,-1.209,-0.34668)"><stop offset="0" style="stop-color:rgb(59,125,182);stop-opacity:1"/><stop offset="1" style="stop-color:rgb(56,154,189);stop-opacity:1"/></linearGradient>
        <linearGradient id="_Linear8" x1="0" y1="0" x2="1" y2="0" gradientUnits="userSpaceOnUse" gradientTransform="matrix(23.8359,0,0,1.11719,-1.828,-0.34668)"><stop offset="0" style="stop-color:rgb(59,125,182);stop-opacity:1"/><stop offset="1" style="stop-color:rgb(56,154,189);stop-opacity:1"/></linearGradient>
        <linearGradient id="_Linear9" x1="0" y1="0" x2="1" y2="0" gradientUnits="userSpaceOnUse" gradientTransform="matrix(23.8359,0,0,1.11719,-2.289,-0.34668)"><stop offset="0" style="stop-color:rgb(59,125,182);stop-opacity:1"/><stop offset="1" style="stop-color:rgb(56,154,189);stop-opacity:1"/></linearGradient>
        <linearGradient id="_Linear10" x1="0" y1="0" x2="1" y2="0" gradientUnits="userSpaceOnUse" gradientTransform="matrix(23.8359,0,0,1.11719,-2.991,-0.34668)"><stop offset="0" style="stop-color:rgb(59,125,182);stop-opacity:1"/><stop offset="1" style="stop-color:rgb(56,154,189);stop-opacity:1"/></linearGradient>
        <linearGradient id="_Linear11" x1="0" y1="0" x2="1" y2="0" gradientUnits="userSpaceOnUse" gradientTransform="matrix(23.8359,0,0,1.11719,-3.547,-0.34668)"><stop offset="0" style="stop-color:rgb(59,125,182);stop-opacity:1"/><stop offset="1" style="stop-color:rgb(56,154,189);stop-opacity:1"/></linearGradient>
        <linearGradient id="_Linear12" x1="0" y1="0" x2="1" y2="0" gradientUnits="userSpaceOnUse" gradientTransform="matrix(23.8359,0,0,1.11719,-4.103,-0.34668)"><stop offset="0" style="stop-color:rgb(59,125,182);stop-opacity:1"/><stop offset="1" style="stop-color:rgb(56,154,189);stop-opacity:1"/></linearGradient>
        <linearGradient id="_Linear13" x1="0" y1="0" x2="1" y2="0" gradientUnits="userSpaceOnUse" gradientTransform="matrix(23.8359,0,0,1.11719,-4.37,-0.34668)"><stop offset="0" style="stop-color:rgb(59,125,182);stop-opacity:1"/><stop offset="1" style="stop-color:rgb(56,154,189);stop-opacity:1"/></linearGradient>
        <linearGradient id="_Linear14" x1="0" y1="0" x2="1" y2="0" gradientUnits="userSpaceOnUse" gradientTransform="matrix(23.8359,0,0,1.11719,-4.926,-0.34668)"><stop offset="0" style="stop-color:rgb(59,125,182);stop-opacity:1"/><stop offset="1" style="stop-color:rgb(56,154,189);stop-opacity:1"/></linearGradient>
        <linearGradient id="_Linear15" x1="0" y1="0" x2="1" y2="0" gradientUnits="userSpaceOnUse" gradientTransform="matrix(23.8359,0,0,1.11719,-5.545,-0.34668)"><stop offset="0" style="stop-color:rgb(59,125,182);stop-opacity:1"/><stop offset="1" style="stop-color:rgb(56,154,189);stop-opacity:1"/></linearGradient>
        <linearGradient id="_Linear16" x1="0" y1="0" x2="1" y2="0" gradientUnits="userSpaceOnUse" gradientTransform="matrix(23.8359,0,0,1.11719,-6.135,-0.34668)"><stop offset="0" style="stop-color:rgb(59,125,182);stop-opacity:1"/><stop offset="1" style="stop-color:rgb(56,154,189);stop-opacity:1"/></linearGradient>
        <linearGradient id="_Linear17" x1="0" y1="0" x2="1" y2="0" gradientUnits="userSpaceOnUse" gradientTransform="matrix(23.8359,0,0,1.11719,-7.075,-0.34668)"><stop offset="0" style="stop-color:rgb(59,125,182);stop-opacity:1"/><stop offset="1" style="stop-color:rgb(56,154,189);stop-opacity:1"/></linearGradient>
        <linearGradient id="_Linear18" x1="0" y1="0" x2="1" y2="0" gradientUnits="userSpaceOnUse" gradientTransform="matrix(23.8359,0,0,1.11719,-7.679,-0.34668)"><stop offset="0" style="stop-color:rgb(59,125,182);stop-opacity:1"/><stop offset="1" style="stop-color:rgb(56,154,189);stop-opacity:1"/></linearGradient>
        <linearGradient id="_Linear19" x1="0" y1="0" x2="1" y2="0" gradientUnits="userSpaceOnUse" gradientTransform="matrix(23.8359,0,0,1.11719,-8.351,-0.34668)"><stop offset="0" style="stop-color:rgb(59,125,182);stop-opacity:1"/><stop offset="1" style="stop-color:rgb(56,154,189);stop-opacity:1"/></linearGradient>
        <linearGradient id="_Linear20" x1="0" y1="0" x2="1" y2="0" gradientUnits="userSpaceOnUse" gradientTransform="matrix(23.8359,0,0,1.11719,-8.979,-0.34668)"><stop offset="0" style="stop-color:rgb(59,125,182);stop-opacity:1"/><stop offset="1" style="stop-color:rgb(56,154,189);stop-opacity:1"/></linearGradient>
        <linearGradient id="_Linear21" x1="0" y1="0" x2="1" y2="0" gradientUnits="userSpaceOnUse" gradientTransform="matrix(23.8359,0,0,1.11719,-9.246,-0.34668)"><stop offset="0" style="stop-color:rgb(59,125,182);stop-opacity:1"/><stop offset="1" style="stop-color:rgb(56,154,189);stop-opacity:1"/></linearGradient>
        <linearGradient id="_Linear22" x1="0" y1="0" x2="1" y2="0" gradientUnits="userSpaceOnUse" gradientTransform="matrix(23.8359,0,0,1.11719,-9.986,-0.34668)"><stop offset="0" style="stop-color:rgb(59,125,182);stop-opacity:1"/><stop offset="1" style="stop-color:rgb(56,154,189);stop-opacity:1"/></linearGradient>
        <linearGradient id="_Linear23" x1="0" y1="0" x2="1" y2="0" gradientUnits="userSpaceOnUse" gradientTransform="matrix(23.8359,0,0,1.11719,-10.253,-0.34668)"><stop offset="0" style="stop-color:rgb(59,125,182);stop-opacity:1"/><stop offset="1" style="stop-color:rgb(56,154,189);stop-opacity:1"/></linearGradient>
        <linearGradient id="_Linear24" x1="0" y1="0" x2="1" y2="0" gradientUnits="userSpaceOnUse" gradientTransform="matrix(23.8359,0,0,1.11719,-10.97,-0.34668)"><stop offset="0" style="stop-color:rgb(59,125,182);stop-opacity:1"/><stop offset="1" style="stop-color:rgb(56,154,189);stop-opacity:1"/></linearGradient>
        <linearGradient id="_Linear25" x1="0" y1="0" x2="1" y2="0" gradientUnits="userSpaceOnUse" gradientTransform="matrix(23.8359,0,0,1.11719,-11.76,-0.34668)"><stop offset="0" style="stop-color:rgb(59,125,182);stop-opacity:1"/><stop offset="1" style="stop-color:rgb(56,154,189);stop-opacity:1"/></linearGradient>
        <linearGradient id="_Linear26" x1="0" y1="0" x2="1" y2="0" gradientUnits="userSpaceOnUse" gradientTransform="matrix(23.8359,0,0,1.11719,-12.382,-0.34668)"><stop offset="0" style="stop-color:rgb(59,125,182);stop-opacity:1"/><stop offset="1" style="stop-color:rgb(56,154,189);stop-opacity:1"/></linearGradient>
        <linearGradient id="_Linear27" x1="0" y1="0" x2="1" y2="0" gradientUnits="userSpaceOnUse" gradientTransform="matrix(23.8359,0,0,1.11719,-13.176,-0.34668)"><stop offset="0" style="stop-color:rgb(59,125,182);stop-opacity:1"/><stop offset="1" style="stop-color:rgb(56,154,189);stop-opacity:1"/></linearGradient>
        <linearGradient id="_Linear28" x1="0" y1="0" x2="1" y2="0" gradientUnits="userSpaceOnUse" gradientTransform="matrix(23.8359,0,0,1.11719,-13.804,-0.34668)"><stop offset="0" style="stop-color:rgb(59,125,182);stop-opacity:1"/><stop offset="1" style="stop-color:rgb(56,154,189);stop-opacity:1"/></linearGradient>
        <linearGradient id="_Linear29" x1="0" y1="0" x2="1" y2="0" gradientUnits="userSpaceOnUse" gradientTransform="matrix(23.8359,0,0,1.11719,-14.506,-0.34668)"><stop offset="0" style="stop-color:rgb(59,125,182);stop-opacity:1"/><stop offset="1" style="stop-color:rgb(56,154,189);stop-opacity:1"/></linearGradient>
        <linearGradient id="_Linear30" x1="0" y1="0" x2="1" y2="0" gradientUnits="userSpaceOnUse" gradientTransform="matrix(23.8359,0,0,1.11719,-15.223,-0.34668)"><stop offset="0" style="stop-color:rgb(59,125,182);stop-opacity:1"/><stop offset="1" style="stop-color:rgb(56,154,189);stop-opacity:1"/></linearGradient>
        <linearGradient id="_Linear31" x1="0" y1="0" x2="1" y2="0" gradientUnits="userSpaceOnUse" gradientTransform="matrix(23.8359,0,0,1.11719,-16.013,-0.34668)"><stop offset="0" style="stop-color:rgb(59,125,182);stop-opacity:1"/><stop offset="1" style="stop-color:rgb(56,154,189);stop-opacity:1"/></linearGradient>
        <linearGradient id="_Linear32" x1="0" y1="0" x2="1" y2="0" gradientUnits="userSpaceOnUse" gradientTransform="matrix(23.8359,0,0,1.11719,-16.569,-0.34668)"><stop offset="0" style="stop-color:rgb(59,125,182);stop-opacity:1"/><stop offset="1" style="stop-color:rgb(56,154,189);stop-opacity:1"/></linearGradient>
        <linearGradient id="_Linear33" x1="0" y1="0" x2="1" y2="0" gradientUnits="userSpaceOnUse" gradientTransform="matrix(23.8359,0,0,1.11719,-17.159,-0.34668)"><stop offset="0" style="stop-color:rgb(59,125,182);stop-opacity:1"/><stop offset="1" style="stop-color:rgb(56,154,189);stop-opacity:1"/></linearGradient>
        <linearGradient id="_Linear34" x1="0" y1="0" x2="1" y2="0" gradientUnits="userSpaceOnUse" gradientTransform="matrix(23.8359,0,0,1.11719,-17.979,-0.34668)"><stop offset="0" style="stop-color:rgb(59,125,182);stop-opacity:1"/><stop offset="1" style="stop-color:rgb(56,154,189);stop-opacity:1"/></linearGradient>
        <linearGradient id="_Linear35" x1="0" y1="0" x2="1" y2="0" gradientUnits="userSpaceOnUse" gradientTransform="matrix(23.8359,0,0,1.11719,-18.669,-0.34668)"><stop offset="0" style="stop-color:rgb(59,125,182);stop-opacity:1"/><stop offset="1" style="stop-color:rgb(56,154,189);stop-opacity:1"/></linearGradient>
        <linearGradient id="_Linear36" x1="0" y1="0" x2="1" y2="0" gradientUnits="userSpaceOnUse" gradientTransform="matrix(23.8359,0,0,1.11719,-19.259,-0.34668)"><stop offset="0" style="stop-color:rgb(59,125,182);stop-opacity:1"/><stop offset="1" style="stop-color:rgb(56,154,189);stop-opacity:1"/></linearGradient>
        <linearGradient id="_Linear37" x1="0" y1="0" x2="1" y2="0" gradientUnits="userSpaceOnUse" gradientTransform="matrix(23.8359,0,0,1.11719,-19.976,-0.34668)"><stop offset="0" style="stop-color:rgb(59,125,182);stop-opacity:1"/><stop offset="1" style="stop-color:rgb(56,154,189);stop-opacity:1"/></linearGradient>
        <linearGradient id="_Linear38" x1="0" y1="0" x2="1" y2="0" gradientUnits="userSpaceOnUse" gradientTransform="matrix(23.8359,0,0,1.11719,-20.659,-0.34668)"><stop offset="0" style="stop-color:rgb(59,125,182);stop-opacity:1"/><stop offset="1" style="stop-color:rgb(56,154,189);stop-opacity:1"/></linearGradient>
        <linearGradient id="_Linear39" x1="0" y1="0" x2="1" y2="0" gradientUnits="userSpaceOnUse" gradientTransform="matrix(23.8359,0,0,1.11719,-20.926,-0.34668)"><stop offset="0" style="stop-color:rgb(59,125,182);stop-opacity:1"/><stop offset="1" style="stop-color:rgb(56,154,189);stop-opacity:1"/></linearGradient>
        <linearGradient id="_Linear40" x1="0" y1="0" x2="1" y2="0" gradientUnits="userSpaceOnUse" gradientTransform="matrix(23.8359,0,0,1.11719,-21.643,-0.34668)"><stop offset="0" style="stop-color:rgb(59,125,182);stop-opacity:1"/><stop offset="1" style="stop-color:rgb(56,154,189);stop-opacity:1"/></linearGradient>
        <linearGradient id="_Linear41" x1="0" y1="0" x2="1" y2="0" gradientUnits="userSpaceOnUse" gradientTransform="matrix(2.66699,0,0,1.11719,0,-0.34668)"><stop offset="0" style="stop-color:rgb(59,136,186);stop-opacity:1"/><stop offset="1" style="stop-color:rgb(56,155,189);stop-opacity:1"/></linearGradient>
        <linearGradient id="_Linear42" x1="0" y1="0" x2="1" y2="0" gradientUnits="userSpaceOnUse" gradientTransform="matrix(2.66699,0,0,1.11719,-0.649,-0.34668)"><stop offset="0" style="stop-color:rgb(59,136,186);stop-opacity:1"/><stop offset="1" style="stop-color:rgb(56,155,189);stop-opacity:1"/></linearGradient>
        <linearGradient id="_Linear43" x1="0" y1="0" x2="1" y2="0" gradientUnits="userSpaceOnUse" gradientTransform="matrix(2.66699,0,0,1.11719,-1.391,-0.34668)"><stop offset="0" style="stop-color:rgb(59,136,186);stop-opacity:1"/><stop offset="1" style="stop-color:rgb(56,155,189);stop-opacity:1"/></linearGradient>
        <linearGradient id="_Linear44" x1="0" y1="0" x2="1" y2="0" gradientUnits="userSpaceOnUse" gradientTransform="matrix(2.66699,0,0,1.11719,-2.031,-0.34668)"><stop offset="0" style="stop-color:rgb(59,136,186);stop-opacity:1"/><stop offset="1" style="stop-color:rgb(56,155,189);stop-opacity:1"/></linearGradient>
        <linearGradient id="_Linear45" x1="0" y1="0" x2="1" y2="0" gradientUnits="userSpaceOnUse" gradientTransform="matrix(294.5,0,0,2e-06,176.278,135.914)"><stop offset="0" style="stop-color:rgb(28,64,98);stop-opacity:1"/><stop offset="0.32" style="stop-color:rgb(54,131,175);stop-opacity:1"/><stop offset="0.7" style="stop-color:rgb(56,152,189);stop-opacity:1"/><stop offset="1" style="stop-color:white;stop-opacity:1"/></linearGradient>
        <linearGradient id="_Linear46" x1="0" y1="0" x2="1" y2="0" gradientUnits="userSpaceOnUse" gradientTransform="matrix(3.11328,0,0,1.27679,0,-0.396205)"><stop offset="0" style="stop-color:rgb(58,143,187);stop-opacity:1"/><stop offset="1" style="stop-color:rgb(56,154,189);stop-opacity:1"/></linearGradient>
        <linearGradient id="_Linear47" x1="0" y1="0" x2="1" y2="0" gradientUnits="userSpaceOnUse" gradientTransform="matrix(3.11328,0,0,1.27679,-0.511,-0.396205)"><stop offset="0" style="stop-color:rgb(58,143,187);stop-opacity:1"/><stop offset="1" style="stop-color:rgb(56,154,189);stop-opacity:1"/></linearGradient>
        <linearGradient id="_Linear48" x1="0" y1="0" x2="1" y2="0" gradientUnits="userSpaceOnUse" gradientTransform="matrix(3.11328,0,0,1.27679,-1.14,-0.396205)"><stop offset="0" style="stop-color:rgb(58,143,187);stop-opacity:1"/><stop offset="1" style="stop-color:rgb(56,154,189);stop-opacity:1"/></linearGradient>
        <linearGradient id="_Linear49" x1="0" y1="0" x2="1" y2="0" gradientUnits="userSpaceOnUse" gradientTransform="matrix(3.11328,0,0,1.27679,-1.43,-0.396205)"><stop offset="0" style="stop-color:rgb(58,143,187);stop-opacity:1"/><stop offset="1" style="stop-color:rgb(56,154,189);stop-opacity:1"/></linearGradient>
        <linearGradient id="_Linear50" x1="0" y1="0" x2="1" y2="0" gradientUnits="userSpaceOnUse" gradientTransform="matrix(3.11328,0,0,1.27679,-1.94,-0.396205)"><stop offset="0" style="stop-color:rgb(58,143,187);stop-opacity:1"/><stop offset="1" style="stop-color:rgb(56,154,189);stop-opacity:1"/></linearGradient>
        <linearGradient id="_Linear51" x1="0" y1="0" x2="1" y2="0" gradientUnits="userSpaceOnUse" gradientTransform="matrix(3.11328,0,0,1.27679,-2.203,-0.396205)"><stop offset="0" style="stop-color:rgb(58,143,187);stop-opacity:1"/><stop offset="1" style="stop-color:rgb(56,154,189);stop-opacity:1"/></linearGradient>
        <linearGradient id="_Linear52" x1="0" y1="0" x2="1" y2="0" gradientUnits="userSpaceOnUse" gradientTransform="matrix(194.262,0,0,63.5976,1677.87,1261.34)"><stop offset="0" style="stop-color:rgb(58,143,187);stop-opacity:1"/><stop offset="1" style="stop-color:rgb(55,134,178);stop-opacity:1"/></linearGradient>
        <linearGradient id="_Linear53" x1="0" y1="0" x2="1" y2="0" gradientUnits="userSpaceOnUse" gradientTransform="matrix(109.303,0,0,27.4527,31.7862,90.2739)"><stop offset="0" style="stop-color:rgb(26,58,92);stop-opacity:1"/><stop offset="0.5" style="stop-color:rgb(59,140,187);stop-opacity:1"/><stop offset="1" style="stop-color:rgb(124,187,212);stop-opacity:1"/></linearGradient>
    </defs>
</svg>
