<?xml version="1.0" encoding="UTF-8" standalone="no"?>
<!DOCTYPE svg PUBLIC "-//W3C//DTD SVG 1.1//EN" "http://www.w3.org/Graphics/SVG/1.1/DTD/svg11.dtd">
<svg width="100%" height="100%" viewBox="0 0 278 311" version="1.1" xmlns="http://www.w3.org/2000/svg" xmlns:xlink="http://www.w3.org/1999/xlink" xml:space="preserve" xmlns:serif="http://www.serif.com/" style="fill-rule:evenodd;clip-rule:evenodd;stroke-linejoin:round;stroke-miterlimit:2;">
    <g transform="matrix(1,0,0,1,-1101.29,-1905.69)">
        <g transform="matrix(0.144197,0,0,0.144197,1322.66,1988.99)">
            <text x="0px" y="0px" style="font-family:'ArialMT', 'Arial', sans-serif;font-size:200px;">N</text>
        </g>
        <g transform="matrix(0.144197,0,0,0.144197,621.12,1805.04)">
            <path d="M4432.23,1201.11L4438.23,1197.65L4444.23,1201.11L4444.23,1482.19L4432.23,1489.1L4432.23,1201.11Z" style="fill-rule:nonzero;"/>
        </g>
        <g transform="matrix(0.144197,0,0,0.144197,621.12,1805.04)">
            <rect x="4484.07" y="1227.57" width="12" height="228.2" style="fill-rule:nonzero;"/>
        </g>
        <g transform="matrix(0.144197,0,0,0.144197,621.12,1805.04)">
            <path d="M4943.39,1489.11L4931.39,1482.18L4931.39,1306.81L4943.39,1306.81L4943.39,1489.11Z" style="fill-rule:nonzero;"/>
        </g>
        <g transform="matrix(0.144197,0,0,0.144197,621.12,1805.04)">
            <path d="M4843.27,1136.48L4837.28,1146.88L4687.55,1060.59L4687.55,1053.67L4693.55,1050.2L4843.27,1136.48Z" style="fill-rule:nonzero;"/>
        </g>
        <g transform="matrix(0.144197,0,0,0.144197,621.12,1805.04)">
            <path d="M4817.36,1181.45L4811.36,1191.85L4684.58,1118.79L4690.57,1108.39L4817.36,1181.45Z" style="fill-rule:nonzero;"/>
        </g>
        <g transform="matrix(0.144197,0,0,0.144197,621.12,1805.04)">
            <path d="M4444.23,1201.11L4438.23,1197.65L4438.23,1190.72L4681.55,1050.2L4687.55,1053.67L4687.55,1060.59L4444.23,1201.11Z" style="fill-rule:nonzero;"/>
        </g>
        <g transform="matrix(0.144197,0,0,0.144197,1286.64,1929.63)">
            <text x="0px" y="0px" style="font-family:'ArialMT', 'Arial', sans-serif;font-size:200px;">NH</text>
        </g>
        <g transform="matrix(0.144197,0,0,0.144197,1328.29,1935.98)">
            <text x="0px" y="0px" style="font-family:'ArialMT', 'Arial', sans-serif;font-size:150px;">2</text>
        </g>
        <g transform="matrix(0.144197,0,0,0.144197,621.12,1805.04)">
            <path d="M4693.55,1050.2L4687.55,1053.67L4681.55,1050.2L4681.55,897.185L4693.55,897.185L4693.55,1050.2Z" style="fill-rule:nonzero;"/>
        </g>
        <g transform="matrix(0.144197,0,0,0.144197,1357.88,2051.35)">
            <text x="0px" y="0px" style="font-family:'ArialMT', 'Arial', sans-serif;font-size:200px;">O</text>
        </g>
        <g transform="matrix(0.144197,0,0,0.144197,621.12,1805.04)">
            <path d="M4934.38,1460.83L4940.39,1450.44L5116.68,1552.4L5110.67,1562.79L4934.38,1460.83Z" style="fill-rule:nonzero;"/>
        </g>
        <g transform="matrix(0.144197,0,0,0.144197,621.12,1805.04)">
            <path d="M4908.44,1505.84L4914.45,1495.45L5090.67,1597.37L5084.66,1607.76L4908.44,1505.84Z" style="fill-rule:nonzero;"/>
        </g>
        <g transform="matrix(0.144197,0,0,0.144197,1286.64,2051.35)">
            <text x="0px" y="0px" style="font-family:'ArialMT', 'Arial', sans-serif;font-size:200px;">N</text>
        </g>
        <g transform="matrix(0.144197,0,0,0.144197,1229.63,2113.13)">
            <text x="0px" y="0px" style="font-family:'ArialMT', 'Arial', sans-serif;font-size:200px;">O</text>
        </g>
        <g transform="matrix(0.144197,0,0,0.144197,621.12,1805.04)">
            <path d="M4062.09,2392.02L4056.09,2372.02L4078.44,2352.02L4518.21,2352.02L4540.51,2372.02L4534.51,2392.02L4062.09,2392.02Z" style="fill-rule:nonzero;"/>
        </g>
        <g transform="matrix(0.144197,0,0,0.144197,621.12,1805.04)">
            <path d="M4546.51,2415.54L4540.51,2372.02L4518.21,2352.02L4676.35,2205.33L4687.55,2203.08L4693.55,2204.91L4546.51,2415.54Z" style="fill-rule:nonzero;"/>
        </g>
        <g transform="matrix(0.144197,0,0,0.144197,621.12,1805.04)">
            <path d="M4681.55,2194.46L4687.55,2203.08L4676.35,2205.33L4393.06,2100.3L4397.23,2089.05L4681.55,2194.46Z" style="fill-rule:nonzero;"/>
        </g>
        <g transform="matrix(0.144197,0,0,0.144197,621.12,1805.04)">
            <path d="M4196.93,2089.38L4201.08,2100.64L3917.3,2205.31L3905.99,2203.08L3911.99,2194.47L4196.93,2089.38Z" style="fill-rule:nonzero;"/>
        </g>
        <g transform="matrix(0.144197,0,0,0.144197,621.12,1805.04)">
            <path d="M4078.44,2352.02L4056.09,2372.02L4050.09,2414.93L3899.99,2204.95L3905.99,2203.08L3917.3,2205.31L4078.44,2352.02Z" style="fill-rule:nonzero;"/>
        </g>
        <g transform="matrix(0.144197,0,0,0.144197,1264.63,2185.77)">
            <text x="0px" y="0px" style="font-family:'ArialMT', 'Arial', sans-serif;font-size:200px;">OH</text>
        </g>
        <g transform="matrix(0.144197,0,0,0.144197,621.12,1805.04)">
            <path d="M4534.51,2392.02L4540.51,2372.02L4546.51,2415.54L4546.51,2465.15L4534.51,2465.15L4534.51,2392.02Z" style="fill-rule:nonzero;"/>
        </g>
        <g transform="matrix(0.144197,0,0,0.144197,1194.78,2185.77)">
            <text x="0px" y="0px" style="font-family:'ArialMT', 'Arial', sans-serif;font-size:200px;">O</text>
        </g>
        <g transform="matrix(0.144197,0,0,0.144197,621.12,1805.04)">
            <path d="M4050.09,2414.93L4056.09,2372.02L4062.09,2392.02L4062.09,2465.15L4050.09,2465.15L4050.09,2414.93Z" style="fill-rule:nonzero;"/>
        </g>
        <g transform="matrix(0.144197,0,0,0.144197,621.12,1805.04)">
            <path d="M3911.99,2194.47L3905.99,2203.08L3899.99,2204.95L3899.99,1978.08L3911.99,1966.08L3911.99,2194.47Z" style="fill-rule:nonzero;"/>
        </g>
        <g transform="matrix(0.144197,0,0,0.144197,621.12,1805.04)">
            <path d="M4681.55,1739.31L4693.55,1739.31L4693.55,2204.91L4687.55,2203.08L4681.55,2194.46L4681.55,1739.31Z" style="fill-rule:nonzero;"/>
        </g>
        <g transform="matrix(0.144197,0,0,0.144197,1131.61,2100.66)">
            <text x="0px" y="0px" style="font-family:'ArialMT', 'Arial', sans-serif;font-size:200px;">O</text>
        </g>
        <g transform="matrix(0.144197,0,0,0.144197,621.12,1805.04)">
            <path d="M3911.99,1966.08L3899.99,1978.08L3717.21,1978.08L3717.21,1966.08L3911.99,1966.08Z" style="fill-rule:nonzero;"/>
        </g>
        <g transform="matrix(0.144197,0,0,0.144197,621.12,1805.04)">
            <path d="M4786.53,1579.82L4780.53,1569.44L4931.39,1482.18L4943.39,1489.11L4786.53,1579.82Z" style="fill-rule:nonzero;"/>
        </g>
        <g transform="matrix(0.144197,0,0,0.144197,621.12,1805.04)">
            <path d="M4593.53,1568.72L4587.51,1579.1L4432.23,1489.1L4444.23,1482.19L4593.53,1568.72Z" style="fill-rule:nonzero;"/>
        </g>
        <g transform="matrix(0.144197,0,0,0.144197,621.12,1805.04)">
            <rect x="3505.21" y="1952.08" width="12" height="40" style="fill-rule:nonzero;"/>
        </g>
        <g transform="matrix(0.144197,0,0,0.144197,621.12,1805.04)">
            <rect x="3446.8" y="1952.08" width="12" height="40" style="fill-rule:nonzero;"/>
        </g>
        <g transform="matrix(0.144197,0,0,0.144197,621.12,1805.04)">
            <rect x="3388.4" y="1952.08" width="12" height="40" style="fill-rule:nonzero;"/>
        </g>
        <g transform="matrix(0.144197,0,0,0.144197,621.12,1805.04)">
            <rect x="3329.99" y="1952.08" width="12" height="40" style="fill-rule:nonzero;"/>
        </g>
        <g transform="matrix(0.144197,0,0,0.144197,621.12,1805.04)">
            <rect x="4036.09" y="2674.15" width="40" height="12" style="fill-rule:nonzero;"/>
        </g>
        <g transform="matrix(0.144197,0,0,0.144197,621.12,1805.04)">
            <rect x="4036.09" y="2728.87" width="40" height="12" style="fill-rule:nonzero;"/>
        </g>
        <g transform="matrix(0.144197,0,0,0.144197,621.12,1805.04)">
            <rect x="4036.09" y="2783.59" width="40" height="12" style="fill-rule:nonzero;"/>
        </g>
        <g transform="matrix(0.144197,0,0,0.144197,621.12,1805.04)">
            <rect x="4036.09" y="2838.32" width="40" height="12" style="fill-rule:nonzero;"/>
        </g>
        <g transform="matrix(0.144197,0,0,0.144197,621.12,1805.04)">
            <path d="M4438.23,1190.72L4438.23,1197.65L4432.23,1201.11L4188.8,1060.59L4188.8,1046.73L4438.23,1190.72Z" style="fill-rule:nonzero;"/>
        </g>
        <g transform="matrix(0.144197,0,0,0.144197,1157.13,1988.99)">
            <text x="0px" y="0px" style="font-family:'ArialMT', 'Arial', sans-serif;font-size:200px;">HO</text>
        </g>
        <g transform="matrix(0.144197,0,0,0.144197,621.12,1805.04)">
            <path d="M4188.8,1046.73L4188.8,1060.59L4027.37,1153.8L4021.37,1143.41L4188.8,1046.73Z" style="fill-rule:nonzero;"/>
        </g>
        <g transform="matrix(0.144197,0,0,0.144197,1213.91,1926.7)">
            <text x="0px" y="0px" style="font-family:'ArialMT', 'Arial', sans-serif;font-size:200px;">O</text>
        </g>
        <g transform="matrix(0.144197,0,0,0.144197,621.12,1805.04)">
            <path d="M4168.88,1068.62L4156.88,1068.62L4156.87,877.493L4168.87,877.492L4168.88,1068.62Z" style="fill-rule:nonzero;"/>
        </g>
        <g transform="matrix(0.144197,0,0,0.144197,621.12,1805.04)">
            <path d="M4220.72,1068.62L4208.72,1068.62L4208.71,877.49L4220.71,877.49L4220.72,1068.62Z" style="fill-rule:nonzero;"/>
        </g>
    </g>
</svg>
