<?xml version="1.0" encoding="UTF-8" standalone="no"?>
<!DOCTYPE svg PUBLIC "-//W3C//DTD SVG 1.1//EN" "http://www.w3.org/Graphics/SVG/1.1/DTD/svg11.dtd">
<svg width="100%" height="100%" viewBox="0 0 278 308" version="1.1" xmlns="http://www.w3.org/2000/svg" xmlns:xlink="http://www.w3.org/1999/xlink" xml:space="preserve" xmlns:serif="http://www.serif.com/" style="fill-rule:evenodd;clip-rule:evenodd;stroke-linejoin:round;stroke-miterlimit:2;">
    <g transform="matrix(1,0,0,1,-1514.84,-1911.01)">
        <g transform="matrix(0.144197,0,0,0.144197,1736.21,1991.37)">
            <text x="0px" y="0px" style="font-family:'ArialMT', 'Arial', sans-serif;font-size:200px;">NH</text>
        </g>
        <g transform="matrix(0.144197,0,0,0.144197,637.76,1806.27)">
            <path d="M7695.93,1497.11L7683.93,1490.19L7683.93,1314.82L7695.93,1314.82L7695.93,1497.11Z" style="fill-rule:nonzero;"/>
        </g>
        <g transform="matrix(0.144197,0,0,0.144197,637.76,1806.27)">
            <path d="M7196.77,1209.12L7184.77,1202.19L7440.09,1054.75L7440.09,1068.6L7196.77,1209.12Z" style="fill-rule:nonzero;"/>
        </g>
        <g transform="matrix(0.144197,0,0,0.144197,1699.38,1932.02)">
            <text x="0px" y="0px" style="font-family:'ArialMT', 'Arial', sans-serif;font-size:200px;">O</text>
        </g>
        <g transform="matrix(0.144197,0,0,0.144197,637.76,1806.27)">
            <rect x="7410" y="905.86" width="12" height="169.72" style="fill-rule:nonzero;"/>
        </g>
        <g transform="matrix(0.144197,0,0,0.144197,637.76,1806.27)">
            <rect x="7458.18" y="905.86" width="12" height="169.7" style="fill-rule:nonzero;"/>
        </g>
        <g transform="matrix(0.144197,0,0,0.144197,1771.43,2053.74)">
            <text x="0px" y="0px" style="font-family:'ArialMT', 'Arial', sans-serif;font-size:200px;">O</text>
        </g>
        <g transform="matrix(0.144197,0,0,0.144197,637.76,1806.27)">
            <path d="M7686.93,1468.84L7692.93,1458.45L7869.22,1560.41L7863.21,1570.8L7686.93,1468.84Z" style="fill-rule:nonzero;"/>
        </g>
        <g transform="matrix(0.144197,0,0,0.144197,637.76,1806.27)">
            <path d="M7660.98,1513.85L7666.99,1503.46L7843.21,1605.38L7837.2,1615.77L7660.98,1513.85Z" style="fill-rule:nonzero;"/>
        </g>
        <g transform="matrix(0.144197,0,0,0.144197,1700.18,2053.74)">
            <text x="0px" y="0px" style="font-family:'ArialMT', 'Arial', sans-serif;font-size:200px;">N</text>
        </g>
        <g transform="matrix(0.144197,0,0,0.144197,1643.18,2115.51)">
            <text x="0px" y="0px" style="font-family:'ArialMT', 'Arial', sans-serif;font-size:200px;">O</text>
        </g>
        <g transform="matrix(0.144197,0,0,0.144197,637.76,1806.27)">
            <path d="M6814.64,2400.03L6808.64,2380.03L6830.98,2360.03L7270.75,2360.03L7293.05,2380.03L7287.05,2400.03L6814.64,2400.03Z" style="fill-rule:nonzero;"/>
        </g>
        <g transform="matrix(0.144197,0,0,0.144197,637.76,1806.27)">
            <path d="M7299.05,2423.55L7293.05,2380.03L7270.75,2360.03L7428.9,2213.34L7440.09,2211.09L7446.09,2212.92L7299.05,2423.55Z" style="fill-rule:nonzero;"/>
        </g>
        <g transform="matrix(0.144197,0,0,0.144197,637.76,1806.27)">
            <path d="M7434.09,2202.47L7440.09,2211.09L7428.9,2213.34L7145.6,2108.31L7149.77,2097.06L7434.09,2202.47Z" style="fill-rule:nonzero;"/>
        </g>
        <g transform="matrix(0.144197,0,0,0.144197,637.76,1806.27)">
            <path d="M6949.47,2097.39L6953.63,2108.65L6669.84,2213.31L6658.54,2211.09L6664.54,2202.48L6949.47,2097.39Z" style="fill-rule:nonzero;"/>
        </g>
        <g transform="matrix(0.144197,0,0,0.144197,637.76,1806.27)">
            <path d="M6830.98,2360.03L6808.64,2380.03L6802.64,2422.94L6652.54,2212.96L6658.54,2211.09L6669.84,2213.31L6830.98,2360.03Z" style="fill-rule:nonzero;"/>
        </g>
        <g transform="matrix(0.144197,0,0,0.144197,1678.18,2188.15)">
            <text x="0px" y="0px" style="font-family:'ArialMT', 'Arial', sans-serif;font-size:200px;">OH</text>
        </g>
        <g transform="matrix(0.144197,0,0,0.144197,637.76,1806.27)">
            <path d="M7287.05,2400.03L7293.05,2380.03L7299.05,2423.55L7299.05,2473.16L7287.05,2473.16L7287.05,2400.03Z" style="fill-rule:nonzero;"/>
        </g>
        <g transform="matrix(0.144197,0,0,0.144197,1608.33,2188.15)">
            <text x="0px" y="0px" style="font-family:'ArialMT', 'Arial', sans-serif;font-size:200px;">O</text>
        </g>
        <g transform="matrix(0.144197,0,0,0.144197,637.76,1806.27)">
            <path d="M6802.64,2422.94L6808.64,2380.03L6814.64,2400.03L6814.64,2473.16L6802.64,2473.16L6802.64,2422.94Z" style="fill-rule:nonzero;"/>
        </g>
        <g transform="matrix(0.144197,0,0,0.144197,637.76,1806.27)">
            <path d="M6664.54,2202.48L6658.54,2211.09L6652.54,2212.96L6652.54,1986.09L6664.54,1974.09L6664.54,2202.48Z" style="fill-rule:nonzero;"/>
        </g>
        <g transform="matrix(0.144197,0,0,0.144197,637.76,1806.27)">
            <path d="M7434.09,1747.32L7446.09,1747.32L7446.09,2212.92L7440.09,2211.09L7434.09,2202.47L7434.09,1747.32Z" style="fill-rule:nonzero;"/>
        </g>
        <g transform="matrix(0.144197,0,0,0.144197,1545.15,2103.04)">
            <text x="0px" y="0px" style="font-family:'ArialMT', 'Arial', sans-serif;font-size:200px;">O</text>
        </g>
        <g transform="matrix(0.144197,0,0,0.144197,637.76,1806.27)">
            <path d="M6664.54,1974.09L6652.54,1986.09L6469.75,1986.09L6469.75,1974.09L6664.54,1974.09Z" style="fill-rule:nonzero;"/>
        </g>
        <g transform="matrix(0.144197,0,0,0.144197,637.76,1806.27)">
            <path d="M7539.08,1587.83L7533.07,1577.44L7683.93,1490.19L7695.93,1497.11L7539.08,1587.83Z" style="fill-rule:nonzero;"/>
        </g>
        <g transform="matrix(0.144197,0,0,0.144197,637.76,1806.27)">
            <path d="M7346.07,1576.73L7340.06,1587.11L7184.77,1497.11L7196.77,1490.2L7346.07,1576.73Z" style="fill-rule:nonzero;"/>
        </g>
        <g transform="matrix(0.144197,0,0,0.144197,637.76,1806.27)">
            <rect x="6257.75" y="1960.09" width="12" height="40" style="fill-rule:nonzero;"/>
        </g>
        <g transform="matrix(0.144197,0,0,0.144197,637.76,1806.27)">
            <rect x="6199.35" y="1960.09" width="12" height="40" style="fill-rule:nonzero;"/>
        </g>
        <g transform="matrix(0.144197,0,0,0.144197,637.76,1806.27)">
            <rect x="6140.94" y="1960.09" width="12" height="40" style="fill-rule:nonzero;"/>
        </g>
        <g transform="matrix(0.144197,0,0,0.144197,637.76,1806.27)">
            <rect x="6082.54" y="1960.09" width="12" height="40" style="fill-rule:nonzero;"/>
        </g>
        <g transform="matrix(0.144197,0,0,0.144197,637.76,1806.27)">
            <rect x="6788.64" y="2682.16" width="40" height="12" style="fill-rule:nonzero;"/>
        </g>
        <g transform="matrix(0.144197,0,0,0.144197,637.76,1806.27)">
            <rect x="6788.64" y="2736.88" width="40" height="12" style="fill-rule:nonzero;"/>
        </g>
        <g transform="matrix(0.144197,0,0,0.144197,637.76,1806.27)">
            <rect x="6788.64" y="2791.6" width="40" height="12" style="fill-rule:nonzero;"/>
        </g>
        <g transform="matrix(0.144197,0,0,0.144197,637.76,1806.27)">
            <rect x="6788.64" y="2846.32" width="40" height="12" style="fill-rule:nonzero;"/>
        </g>
        <g transform="matrix(0.144197,0,0,0.144197,637.76,1806.27)">
            <path d="M7184.77,1202.19L7196.77,1209.12L7196.77,1490.2L7184.77,1497.11L7184.77,1202.19Z" style="fill-rule:nonzero;"/>
        </g>
        <g transform="matrix(0.144197,0,0,0.144197,637.76,1806.27)">
            <path d="M7440.09,1068.6L7440.09,1054.75L7595.82,1144.49L7589.82,1154.89L7440.09,1068.6Z" style="fill-rule:nonzero;"/>
        </g>
    </g>
</svg>
