<?xml version="1.0" encoding="UTF-8" standalone="no"?>
<!DOCTYPE svg PUBLIC "-//W3C//DTD SVG 1.1//EN" "http://www.w3.org/Graphics/SVG/1.1/DTD/svg11.dtd">
<svg width="100%" height="100%" viewBox="0 0 278 308" version="1.1" xmlns="http://www.w3.org/2000/svg" xmlns:xlink="http://www.w3.org/1999/xlink" xml:space="preserve" xmlns:serif="http://www.serif.com/" style="fill-rule:evenodd;clip-rule:evenodd;stroke-linejoin:round;stroke-miterlimit:2;">
    <g transform="matrix(1,0,0,1,-1995.45,-1911)">
        <g transform="matrix(0.144197,0,0,0.144197,2216.82,1991.37)">
            <text x="0px" y="0px" style="font-family:'ArialMT', 'Arial', sans-serif;font-size:200px;">NH</text>
        </g>
        <g transform="matrix(0.144197,0,0,0.144197,762.213,1783.45)">
            <path d="M9654.73,1367.36L9660.73,1363.9L9666.73,1367.36L9666.73,1648.44L9654.73,1655.35L9654.73,1367.36Z" style="fill-rule:nonzero;"/>
        </g>
        <g transform="matrix(0.144197,0,0,0.144197,762.213,1783.45)">
            <rect x="9706.57" y="1393.82" width="12" height="228.2" style="fill-rule:nonzero;"/>
        </g>
        <g transform="matrix(0.144197,0,0,0.144197,762.213,1783.45)">
            <path d="M10165.9,1655.36L10153.9,1648.43L10153.9,1473.06L10165.9,1473.06L10165.9,1655.36Z" style="fill-rule:nonzero;"/>
        </g>
        <g transform="matrix(0.144197,0,0,0.144197,762.213,1783.45)">
            <path d="M9666.73,1367.36L9660.73,1363.9L9660.73,1356.97L9910.04,1212.99L9910.05,1226.84L9666.73,1367.36Z" style="fill-rule:nonzero;"/>
        </g>
        <g transform="matrix(0.144197,0,0,0.144197,2179.99,1932.01)">
            <text x="0px" y="0px" style="font-family:'ArialMT', 'Arial', sans-serif;font-size:200px;">O</text>
        </g>
        <g transform="matrix(0.144197,0,0,0.144197,762.213,1783.45)">
            <rect x="9879.96" y="1064.1" width="12" height="169.73" style="fill-rule:nonzero;"/>
        </g>
        <g transform="matrix(0.144197,0,0,0.144197,762.213,1783.45)">
            <rect x="9928.14" y="1064.1" width="12" height="169.7" style="fill-rule:nonzero;"/>
        </g>
        <g transform="matrix(0.144197,0,0,0.144197,2252.05,2053.73)">
            <text x="0px" y="0px" style="font-family:'ArialMT', 'Arial', sans-serif;font-size:200px;">O</text>
        </g>
        <g transform="matrix(0.144197,0,0,0.144197,762.213,1783.45)">
            <path d="M10156.9,1627.08L10162.9,1616.69L10339.2,1718.65L10333.2,1729.04L10156.9,1627.08Z" style="fill-rule:nonzero;"/>
        </g>
        <g transform="matrix(0.144197,0,0,0.144197,762.213,1783.45)">
            <path d="M10130.9,1672.09L10136.9,1661.7L10313.2,1763.62L10307.2,1774.01L10130.9,1672.09Z" style="fill-rule:nonzero;"/>
        </g>
        <g transform="matrix(0.144197,0,0,0.144197,2180.8,2053.73)">
            <text x="0px" y="0px" style="font-family:'ArialMT', 'Arial', sans-serif;font-size:200px;">N</text>
        </g>
        <g transform="matrix(0.144197,0,0,0.144197,2123.79,2115.51)">
            <text x="0px" y="0px" style="font-family:'ArialMT', 'Arial', sans-serif;font-size:200px;">O</text>
        </g>
        <g transform="matrix(0.144197,0,0,0.144197,762.213,1783.45)">
            <path d="M9284.59,2558.27L9278.59,2538.27L9300.94,2518.27L9740.71,2518.27L9763.01,2538.27L9757.01,2558.27L9284.59,2558.27Z" style="fill-rule:nonzero;"/>
        </g>
        <g transform="matrix(0.144197,0,0,0.144197,762.213,1783.45)">
            <path d="M9769.01,2581.79L9763.01,2538.27L9740.71,2518.27L9898.85,2371.58L9910.05,2369.33L9916.05,2371.16L9769.01,2581.79Z" style="fill-rule:nonzero;"/>
        </g>
        <g transform="matrix(0.144197,0,0,0.144197,762.213,1783.45)">
            <path d="M9904.05,2360.71L9910.05,2369.33L9898.85,2371.58L9615.56,2266.55L9619.73,2255.3L9904.05,2360.71Z" style="fill-rule:nonzero;"/>
        </g>
        <g transform="matrix(0.144197,0,0,0.144197,762.213,1783.45)">
            <path d="M9419.43,2255.63L9423.58,2266.89L9139.8,2371.56L9128.49,2369.33L9134.49,2360.72L9419.43,2255.63Z" style="fill-rule:nonzero;"/>
        </g>
        <g transform="matrix(0.144197,0,0,0.144197,762.213,1783.45)">
            <path d="M9300.94,2518.27L9278.59,2538.27L9272.59,2581.18L9122.49,2371.2L9128.49,2369.33L9139.8,2371.56L9300.94,2518.27Z" style="fill-rule:nonzero;"/>
        </g>
        <g transform="matrix(0.144197,0,0,0.144197,2159.59,2188.15)">
            <text x="0px" y="0px" style="font-family:'ArialMT', 'Arial', sans-serif;font-size:200px;">H</text>
        </g>
        <g transform="matrix(0.144197,0,0,0.144197,762.213,1783.45)">
            <path d="M9757.01,2558.27L9763.01,2538.27L9769.01,2581.79L9769.01,2633.73L9757.01,2633.73L9757.01,2558.27Z" style="fill-rule:nonzero;"/>
        </g>
        <g transform="matrix(0.144197,0,0,0.144197,2088.94,2188.15)">
            <text x="0px" y="0px" style="font-family:'ArialMT', 'Arial', sans-serif;font-size:200px;">O</text>
        </g>
        <g transform="matrix(0.144197,0,0,0.144197,762.213,1783.45)">
            <path d="M9272.59,2581.18L9278.59,2538.27L9284.59,2558.27L9284.59,2631.4L9272.59,2631.4L9272.59,2581.18Z" style="fill-rule:nonzero;"/>
        </g>
        <g transform="matrix(0.144197,0,0,0.144197,762.213,1783.45)">
            <path d="M9134.49,2360.72L9128.49,2369.33L9122.49,2371.2L9122.49,2144.33L9134.49,2132.33L9134.49,2360.72Z" style="fill-rule:nonzero;"/>
        </g>
        <g transform="matrix(0.144197,0,0,0.144197,762.213,1783.45)">
            <path d="M9904.05,1905.56L9916.05,1905.56L9916.05,2371.16L9910.05,2369.33L9904.05,2360.71L9904.05,1905.56Z" style="fill-rule:nonzero;"/>
        </g>
        <g transform="matrix(0.144197,0,0,0.144197,2025.77,2103.04)">
            <text x="0px" y="0px" style="font-family:'ArialMT', 'Arial', sans-serif;font-size:200px;">O</text>
        </g>
        <g transform="matrix(0.144197,0,0,0.144197,762.213,1783.45)">
            <path d="M9134.49,2132.33L9122.49,2144.33L8939.71,2144.33L8939.71,2132.33L9134.49,2132.33Z" style="fill-rule:nonzero;"/>
        </g>
        <g transform="matrix(0.144197,0,0,0.144197,762.213,1783.45)">
            <path d="M10009,1746.07L10003,1735.69L10153.9,1648.43L10165.9,1655.36L10009,1746.07Z" style="fill-rule:nonzero;"/>
        </g>
        <g transform="matrix(0.144197,0,0,0.144197,762.213,1783.45)">
            <path d="M9816.03,1734.97L9810.01,1745.35L9654.73,1655.35L9666.73,1648.44L9816.03,1734.97Z" style="fill-rule:nonzero;"/>
        </g>
        <g transform="matrix(0.144197,0,0,0.144197,762.213,1783.45)">
            <rect x="8727.71" y="2118.33" width="12" height="40" style="fill-rule:nonzero;"/>
        </g>
        <g transform="matrix(0.144197,0,0,0.144197,762.213,1783.45)">
            <rect x="8669.3" y="2118.33" width="12" height="40" style="fill-rule:nonzero;"/>
        </g>
        <g transform="matrix(0.144197,0,0,0.144197,762.213,1783.45)">
            <rect x="8610.9" y="2118.33" width="12" height="40" style="fill-rule:nonzero;"/>
        </g>
        <g transform="matrix(0.144197,0,0,0.144197,762.213,1783.45)">
            <rect x="8552.49" y="2118.33" width="12" height="40" style="fill-rule:nonzero;"/>
        </g>
        <g transform="matrix(0.144197,0,0,0.144197,762.213,1783.45)">
            <rect x="9258.59" y="2840.4" width="40" height="12" style="fill-rule:nonzero;"/>
        </g>
        <g transform="matrix(0.144197,0,0,0.144197,762.213,1783.45)">
            <rect x="9258.59" y="2895.12" width="40" height="12" style="fill-rule:nonzero;"/>
        </g>
        <g transform="matrix(0.144197,0,0,0.144197,762.213,1783.45)">
            <rect x="9258.59" y="2949.84" width="40" height="12" style="fill-rule:nonzero;"/>
        </g>
        <g transform="matrix(0.144197,0,0,0.144197,762.213,1783.45)">
            <rect x="9258.59" y="3004.57" width="40" height="12" style="fill-rule:nonzero;"/>
        </g>
        <g transform="matrix(0.144197,0,0,0.144197,2076.02,1970.61)">
            <text x="0px" y="0px" style="font-family:'ArialMT', 'Arial', sans-serif;font-size:200px;">H</text>
        </g>
        <g transform="matrix(0.144197,0,0,0.144197,2096.85,1976.95)">
            <text x="0px" y="0px" style="font-family:'ArialMT', 'Arial', sans-serif;font-size:150px;">3</text>
        </g>
        <g transform="matrix(0.144197,0,0,0.144197,2108.88,1970.61)">
            <text x="0px" y="0px" style="font-family:'ArialMT', 'Arial', sans-serif;font-size:200px;">C</text>
        </g>
        <g transform="matrix(0.144197,0,0,0.144197,762.213,1783.45)">
            <path d="M9660.73,1356.97L9660.73,1363.9L9654.73,1367.36L9500.52,1278.34L9506.52,1267.95L9660.73,1356.97Z" style="fill-rule:nonzero;"/>
        </g>
        <g transform="matrix(0.144197,0,0,0.144197,762.213,1783.45)">
            <path d="M9910.05,1226.84L9910.04,1212.99L10065.8,1302.73L10059.8,1313.13L9910.05,1226.84Z" style="fill-rule:nonzero;"/>
        </g>
    </g>
</svg>
