<?xml version="1.0" encoding="UTF-8" standalone="no"?>
<!DOCTYPE svg PUBLIC "-//W3C//DTD SVG 1.1//EN" "http://www.w3.org/Graphics/SVG/1.1/DTD/svg11.dtd">
<svg width="100%" height="100%" viewBox="0 0 276 309" version="1.1" xmlns="http://www.w3.org/2000/svg" xmlns:xlink="http://www.w3.org/1999/xlink" xml:space="preserve" xmlns:serif="http://www.serif.com/" style="fill-rule:evenodd;clip-rule:evenodd;stroke-linejoin:round;stroke-miterlimit:2;">
    <g transform="matrix(1,0,0,1,-711.468,-1910.22)">
        <g transform="matrix(0.143187,0,0,0.143187,931.285,1992.94)">
            <text x="0px" y="0px" style="font-family:'ArialMT', 'Arial', sans-serif;font-size:200px;">N</text>
        </g>
        <g transform="matrix(0.143187,0,0,0.143187,218.405,1423.96)">
            <path d="M4545.7,3899.18L4551.7,3895.72L4557.7,3899.18L4557.7,4180.26L4545.7,4187.18L4545.7,3899.18Z" style="fill-rule:nonzero;"/>
        </g>
        <g transform="matrix(0.143187,0,0,0.143187,218.405,1423.96)">
            <rect x="4597.54" y="3925.65" width="12" height="228.2" style="fill-rule:nonzero;"/>
        </g>
        <g transform="matrix(0.143187,0,0,0.143187,218.405,1423.96)">
            <path d="M5056.9,4187.18L5044.9,4180.26L5044.9,4004.88L5056.9,4004.88L5056.9,4187.18Z" style="fill-rule:nonzero;"/>
        </g>
        <g transform="matrix(0.143187,0,0,0.143187,218.405,1423.96)">
            <path d="M4956.79,3834.54L4950.8,3844.94L4801.1,3758.65L4801.1,3751.72L4807.1,3748.25L4956.79,3834.54Z" style="fill-rule:nonzero;"/>
        </g>
        <g transform="matrix(0.143187,0,0,0.143187,218.405,1423.96)">
            <path d="M4930.87,3879.51L4924.88,3889.9L4798.12,3816.83L4804.12,3806.44L4930.87,3879.51Z" style="fill-rule:nonzero;"/>
        </g>
        <g transform="matrix(0.143187,0,0,0.143187,218.405,1423.96)">
            <path d="M4557.7,3899.18L4551.7,3895.72L4551.7,3888.79L4795.1,3748.25L4801.1,3751.72L4801.1,3758.65L4557.7,3899.18Z" style="fill-rule:nonzero;"/>
        </g>
        <g transform="matrix(0.143187,0,0,0.143187,895.518,1934.01)">
            <text x="0px" y="0px" style="font-family:'ArialMT', 'Arial', sans-serif;font-size:200px;">NH</text>
        </g>
        <g transform="matrix(0.143187,0,0,0.143187,936.88,1940.31)">
            <text x="0px" y="0px" style="font-family:'ArialMT', 'Arial', sans-serif;font-size:150px;">2</text>
        </g>
        <g transform="matrix(0.143187,0,0,0.143187,218.405,1423.96)">
            <path d="M4807.1,3748.25L4801.1,3751.72L4795.1,3748.25L4795.1,3595.28L4807.1,3595.28L4807.1,3748.25Z" style="fill-rule:nonzero;"/>
        </g>
        <g transform="matrix(0.143187,0,0,0.143187,966.256,2054.89)">
            <text x="0px" y="0px" style="font-family:'ArialMT', 'Arial', sans-serif;font-size:200px;">O</text>
        </g>
        <g transform="matrix(0.143187,0,0,0.143187,218.405,1423.96)">
            <path d="M5047.89,4158.9L5053.9,4148.51L5231.24,4251.17L5225.23,4261.55L5047.89,4158.9Z" style="fill-rule:nonzero;"/>
        </g>
        <g transform="matrix(0.143187,0,0,0.143187,218.405,1423.96)">
            <path d="M5021.97,4203.92L5027.98,4193.53L5205.22,4296.13L5199.2,4306.52L5021.97,4203.92Z" style="fill-rule:nonzero;"/>
        </g>
        <g transform="matrix(0.143187,0,0,0.143187,895.518,2054.89)">
            <text x="0px" y="0px" style="font-family:'ArialMT', 'Arial', sans-serif;font-size:200px;">N</text>
        </g>
        <g transform="matrix(0.143187,0,0,0.143187,838.906,2116.23)">
            <text x="0px" y="0px" style="font-family:'ArialMT', 'Arial', sans-serif;font-size:200px;">O</text>
        </g>
        <g transform="matrix(0.143187,0,0,0.143187,218.405,1423.96)">
            <path d="M4175.5,5090.12L4169.5,5070.12L4191.84,5050.12L4631.8,5050.12L4654.1,5070.12L4648.1,5090.12L4175.5,5090.12Z" style="fill-rule:nonzero;"/>
        </g>
        <g transform="matrix(0.143187,0,0,0.143187,218.405,1423.96)">
            <path d="M4660.1,5113.65L4654.1,5070.12L4631.8,5050.12L4789.9,4903.37L4801.1,4901.12L4807.1,4902.94L4660.1,5113.65Z" style="fill-rule:nonzero;"/>
        </g>
        <g transform="matrix(0.143187,0,0,0.143187,218.405,1423.96)">
            <path d="M4795.1,4892.5L4801.1,4901.12L4789.9,4903.37L4507.79,4798.86L4511.95,4787.61L4795.1,4892.5Z" style="fill-rule:nonzero;"/>
        </g>
        <g transform="matrix(0.143187,0,0,0.143187,218.405,1423.96)">
            <path d="M4311.32,4787.17L4315.47,4798.43L4030.8,4903.35L4019.5,4901.12L4025.5,4892.51L4311.32,4787.17Z" style="fill-rule:nonzero;"/>
        </g>
        <g transform="matrix(0.143187,0,0,0.143187,218.405,1423.96)">
            <path d="M4191.84,5050.12L4169.5,5070.12L4163.5,5113.05L4013.5,4902.98L4019.5,4901.12L4030.8,4903.35L4191.84,5050.12Z" style="fill-rule:nonzero;"/>
        </g>
        <g transform="matrix(0.143187,0,0,0.143187,873.673,2188.36)">
            <text x="0px" y="0px" style="font-family:'ArialMT', 'Arial', sans-serif;font-size:200px;">OH</text>
        </g>
        <g transform="matrix(0.143187,0,0,0.143187,218.405,1423.96)">
            <path d="M4648.1,5090.12L4654.1,5070.12L4660.1,5113.65L4660.1,5163.35L4648.1,5163.35L4648.1,5090.12Z" style="fill-rule:nonzero;"/>
        </g>
        <g transform="matrix(0.143187,0,0,0.143187,804.284,2188.36)">
            <text x="0px" y="0px" style="font-family:'ArialMT', 'Arial', sans-serif;font-size:200px;">O</text>
        </g>
        <g transform="matrix(0.143187,0,0,0.143187,218.405,1423.96)">
            <path d="M4163.5,5113.05L4169.5,5070.12L4175.5,5090.12L4175.5,5163.35L4163.5,5163.35L4163.5,5113.05Z" style="fill-rule:nonzero;"/>
        </g>
        <g transform="matrix(0.143187,0,0,0.143187,218.405,1423.96)">
            <path d="M4025.5,4892.51L4019.5,4901.12L4013.5,4902.98L4013.5,4676.12L4025.5,4664.12L4025.5,4892.51Z" style="fill-rule:nonzero;"/>
        </g>
        <g transform="matrix(0.143187,0,0,0.143187,218.405,1423.96)">
            <path d="M4795.1,4437.48L4807.1,4437.48L4807.1,4902.94L4801.1,4901.12L4795.1,4892.5L4795.1,4437.48Z" style="fill-rule:nonzero;"/>
        </g>
        <g transform="matrix(0.143187,0,0,0.143187,741.568,2103.83)">
            <text x="0px" y="0px" style="font-family:'ArialMT', 'Arial', sans-serif;font-size:200px;">O</text>
        </g>
        <g transform="matrix(0.143187,0,0,0.143187,218.405,1423.96)">
            <path d="M4025.5,4664.12L4013.5,4676.12L3831.72,4676.12L3831.72,4664.12L4025.5,4664.12Z" style="fill-rule:nonzero;"/>
        </g>
        <g transform="matrix(0.143187,0,0,0.143187,218.405,1423.96)">
            <path d="M4900.82,4277.52L4894.81,4267.14L5044.9,4180.26L5056.9,4187.18L4900.82,4277.52Z" style="fill-rule:nonzero;"/>
        </g>
        <g transform="matrix(0.143187,0,0,0.143187,218.405,1423.96)">
            <path d="M4707.09,4266.88L4701.07,4277.26L4545.7,4187.18L4557.7,4180.26L4707.09,4266.88Z" style="fill-rule:nonzero;"/>
        </g>
        <g transform="matrix(0.143187,0,0,0.143187,218.405,1423.96)">
            <rect x="3619.72" y="4650.12" width="12" height="40" style="fill-rule:nonzero;"/>
        </g>
        <g transform="matrix(0.143187,0,0,0.143187,218.405,1423.96)">
            <rect x="3560.98" y="4650.12" width="12" height="40" style="fill-rule:nonzero;"/>
        </g>
        <g transform="matrix(0.143187,0,0,0.143187,218.405,1423.96)">
            <rect x="3502.24" y="4650.12" width="12" height="40" style="fill-rule:nonzero;"/>
        </g>
        <g transform="matrix(0.143187,0,0,0.143187,218.405,1423.96)">
            <rect x="3443.5" y="4650.12" width="12" height="40" style="fill-rule:nonzero;"/>
        </g>
        <g transform="matrix(0.143187,0,0,0.143187,218.405,1423.96)">
            <rect x="4149.5" y="5372.35" width="40" height="12" style="fill-rule:nonzero;"/>
        </g>
        <g transform="matrix(0.143187,0,0,0.143187,218.405,1423.96)">
            <rect x="4149.5" y="5427.07" width="40" height="12" style="fill-rule:nonzero;"/>
        </g>
        <g transform="matrix(0.143187,0,0,0.143187,218.405,1423.96)">
            <rect x="4149.5" y="5481.8" width="40" height="12" style="fill-rule:nonzero;"/>
        </g>
        <g transform="matrix(0.143187,0,0,0.143187,218.405,1423.96)">
            <rect x="4149.5" y="5536.52" width="40" height="12" style="fill-rule:nonzero;"/>
        </g>
        <g transform="matrix(0.143187,0,0,0.143187,218.405,1423.96)">
            <path d="M4551.7,3888.79L4551.7,3895.72L4545.7,3899.18L4296.3,3755.18L4308.3,3748.25L4551.7,3888.79Z" style="fill-rule:nonzero;"/>
        </g>
        <g transform="matrix(0.143187,0,0,0.143187,827.01,1931.09)">
            <text x="0px" y="0px" style="font-family:'ArialMT', 'Arial', sans-serif;font-size:200px;">O</text>
        </g>
        <g transform="matrix(0.143187,0,0,0.143187,218.405,1423.96)">
            <path d="M4308.3,3748.25L4296.3,3755.18L4296.3,3575.55L4308.3,3575.55L4308.3,3748.25Z" style="fill-rule:nonzero;"/>
        </g>
        <g transform="matrix(0.143187,0,0,0.143187,218.405,1423.96)">
            <rect x="4348.14" y="3575.55" width="12" height="146.24" style="fill-rule:nonzero;"/>
        </g>
    </g>
</svg>
