<?xml version="1.0" encoding="UTF-8" standalone="no"?>
<!DOCTYPE svg PUBLIC "-//W3C//DTD SVG 1.1//EN" "http://www.w3.org/Graphics/SVG/1.1/DTD/svg11.dtd">
<svg width="100%" height="100%" viewBox="0 0 278 308" version="1.1" xmlns="http://www.w3.org/2000/svg" xmlns:xlink="http://www.w3.org/1999/xlink" xml:space="preserve" xmlns:serif="http://www.serif.com/" style="fill-rule:evenodd;clip-rule:evenodd;stroke-linejoin:round;stroke-miterlimit:2;">
    <g transform="matrix(1,0,0,1,-230.854,-1911.37)">
        <g transform="matrix(0.144197,0,0,0.144197,452.222,1991.37)">
            <text x="0px" y="0px" style="font-family:'ArialMT', 'Arial', sans-serif;font-size:200px;">N</text>
        </g>
        <g transform="matrix(0.144197,0,0,0.144197,124.87,1414.96)">
            <path d="M1837.23,3922.84L1843.23,3919.37L1849.23,3922.84L1849.23,4203.92L1837.23,4210.83L1837.23,3922.84Z" style="fill-rule:nonzero;"/>
        </g>
        <g transform="matrix(0.144197,0,0,0.144197,124.87,1414.96)">
            <rect x="1889.07" y="3949.3" width="12" height="228.2" style="fill-rule:nonzero;"/>
        </g>
        <g transform="matrix(0.144197,0,0,0.144197,124.87,1414.96)">
            <path d="M2348.39,4210.83L2336.39,4203.91L2336.39,4028.54L2348.39,4028.54L2348.39,4210.83Z" style="fill-rule:nonzero;"/>
        </g>
        <g transform="matrix(0.144197,0,0,0.144197,124.87,1414.96)">
            <path d="M2248.28,3858.21L2242.29,3868.61L2092.56,3782.32L2092.55,3775.39L2098.55,3771.93L2248.28,3858.21Z" style="fill-rule:nonzero;"/>
        </g>
        <g transform="matrix(0.144197,0,0,0.144197,124.87,1414.96)">
            <path d="M2222.36,3903.18L2216.37,3913.58L2089.59,3840.51L2095.58,3830.12L2222.36,3903.18Z" style="fill-rule:nonzero;"/>
        </g>
        <g transform="matrix(0.144197,0,0,0.144197,124.87,1414.96)">
            <path d="M1849.23,3922.84L1843.23,3919.37L1843.23,3912.45L2086.55,3771.93L2092.55,3775.39L2092.56,3782.32L1849.23,3922.84Z" style="fill-rule:nonzero;"/>
        </g>
        <g transform="matrix(0.144197,0,0,0.144197,416.196,1932.01)">
            <text x="0px" y="0px" style="font-family:'ArialMT', 'Arial', sans-serif;font-size:200px;">NH</text>
        </g>
        <g transform="matrix(0.144197,0,0,0.144197,457.85,1938.36)">
            <text x="0px" y="0px" style="font-family:'ArialMT', 'Arial', sans-serif;font-size:150px;">2</text>
        </g>
        <g transform="matrix(0.144197,0,0,0.144197,124.87,1414.96)">
            <path d="M2098.55,3771.93L2092.55,3775.39L2086.55,3771.93L2086.55,3618.91L2098.55,3618.91L2098.55,3771.93Z" style="fill-rule:nonzero;"/>
        </g>
        <g transform="matrix(0.144197,0,0,0.144197,487.445,2053.74)">
            <text x="0px" y="0px" style="font-family:'ArialMT', 'Arial', sans-serif;font-size:200px;">O</text>
        </g>
        <g transform="matrix(0.144197,0,0,0.144197,124.87,1414.96)">
            <path d="M2339.39,4182.56L2345.4,4172.17L2521.68,4274.13L2515.68,4284.52L2339.39,4182.56Z" style="fill-rule:nonzero;"/>
        </g>
        <g transform="matrix(0.144197,0,0,0.144197,124.87,1414.96)">
            <path d="M2313.45,4227.57L2319.46,4217.18L2495.67,4319.1L2489.67,4329.49L2313.45,4227.57Z" style="fill-rule:nonzero;"/>
        </g>
        <g transform="matrix(0.144197,0,0,0.144197,416.196,2053.74)">
            <text x="0px" y="0px" style="font-family:'ArialMT', 'Arial', sans-serif;font-size:200px;">N</text>
        </g>
        <g transform="matrix(0.144197,0,0,0.144197,359.19,2115.52)">
            <text x="0px" y="0px" style="font-family:'ArialMT', 'Arial', sans-serif;font-size:200px;">O</text>
        </g>
        <g transform="matrix(0.144197,0,0,0.144197,124.87,1414.96)">
            <path d="M1467.1,5113.75L1461.1,5093.75L1483.45,5073.75L1923.21,5073.75L1945.51,5093.75L1939.51,5113.75L1467.1,5113.75Z" style="fill-rule:nonzero;"/>
        </g>
        <g transform="matrix(0.144197,0,0,0.144197,124.87,1414.96)">
            <path d="M1951.51,5137.27L1945.51,5093.75L1923.21,5073.75L2081.36,4927.06L2092.55,4924.81L2098.55,4926.64L1951.51,5137.27Z" style="fill-rule:nonzero;"/>
        </g>
        <g transform="matrix(0.144197,0,0,0.144197,124.87,1414.96)">
            <path d="M2086.55,4916.19L2092.55,4924.81L2081.36,4927.06L1798.07,4822.03L1802.24,4810.78L2086.55,4916.19Z" style="fill-rule:nonzero;"/>
        </g>
        <g transform="matrix(0.144197,0,0,0.144197,124.87,1414.96)">
            <path d="M1601.94,4811.11L1606.09,4822.37L1322.31,4927.03L1311,4924.81L1317,4916.2L1601.94,4811.11Z" style="fill-rule:nonzero;"/>
        </g>
        <g transform="matrix(0.144197,0,0,0.144197,124.87,1414.96)">
            <path d="M1483.45,5073.75L1461.1,5093.75L1455.1,5136.66L1305,4926.68L1311,4924.81L1322.31,4927.03L1483.45,5073.75Z" style="fill-rule:nonzero;"/>
        </g>
        <g transform="matrix(0.144197,0,0,0.144197,394.191,2188.15)">
            <text x="0px" y="0px" style="font-family:'ArialMT', 'Arial', sans-serif;font-size:200px;">OH</text>
        </g>
        <g transform="matrix(0.144197,0,0,0.144197,124.87,1414.96)">
            <path d="M1939.51,5113.75L1945.51,5093.75L1951.51,5137.27L1951.51,5186.88L1939.51,5186.88L1939.51,5113.75Z" style="fill-rule:nonzero;"/>
        </g>
        <g transform="matrix(0.144197,0,0,0.144197,324.34,2188.15)">
            <text x="0px" y="0px" style="font-family:'ArialMT', 'Arial', sans-serif;font-size:200px;">O</text>
        </g>
        <g transform="matrix(0.144197,0,0,0.144197,124.87,1414.96)">
            <path d="M1455.1,5136.66L1461.1,5093.75L1467.1,5113.75L1467.1,5186.88L1455.1,5186.88L1455.1,5136.66Z" style="fill-rule:nonzero;"/>
        </g>
        <g transform="matrix(0.144197,0,0,0.144197,124.87,1414.96)">
            <path d="M1317,4916.2L1311,4924.81L1305,4926.68L1305,4699.81L1317,4687.81L1317,4916.2Z" style="fill-rule:nonzero;"/>
        </g>
        <g transform="matrix(0.144197,0,0,0.144197,124.87,1414.96)">
            <path d="M2086.55,4461.04L2098.55,4461.04L2098.55,4926.64L2092.55,4924.81L2086.55,4916.19L2086.55,4461.04Z" style="fill-rule:nonzero;"/>
        </g>
        <g transform="matrix(0.144197,0,0,0.144197,261.167,2103.04)">
            <text x="0px" y="0px" style="font-family:'ArialMT', 'Arial', sans-serif;font-size:200px;">O</text>
        </g>
        <g transform="matrix(0.144197,0,0,0.144197,124.87,1414.96)">
            <path d="M1317,4687.81L1305,4699.81L1122.22,4699.81L1122.22,4687.81L1317,4687.81Z" style="fill-rule:nonzero;"/>
        </g>
        <g transform="matrix(0.144197,0,0,0.144197,124.87,1414.96)">
            <path d="M2191.54,4301.55L2185.53,4291.16L2336.39,4203.91L2348.39,4210.83L2191.54,4301.55Z" style="fill-rule:nonzero;"/>
        </g>
        <g transform="matrix(0.144197,0,0,0.144197,124.87,1414.96)">
            <path d="M1998.54,4290.45L1992.52,4300.83L1837.23,4210.83L1849.23,4203.92L1998.54,4290.45Z" style="fill-rule:nonzero;"/>
        </g>
        <g transform="matrix(0.144197,0,0,0.144197,124.87,1414.96)">
            <rect x="910.217" y="4673.81" width="12" height="40" style="fill-rule:nonzero;"/>
        </g>
        <g transform="matrix(0.144197,0,0,0.144197,124.87,1414.96)">
            <rect x="851.811" y="4673.81" width="12" height="40" style="fill-rule:nonzero;"/>
        </g>
        <g transform="matrix(0.144197,0,0,0.144197,124.87,1414.96)">
            <rect x="793.406" y="4673.81" width="11.999" height="40" style="fill-rule:nonzero;"/>
        </g>
        <g transform="matrix(0.144197,0,0,0.144197,124.87,1414.96)">
            <rect x="735" y="4673.81" width="12" height="40" style="fill-rule:nonzero;"/>
        </g>
        <g transform="matrix(0.144197,0,0,0.144197,124.87,1414.96)">
            <rect x="1441.1" y="5395.88" width="40" height="12" style="fill-rule:nonzero;"/>
        </g>
        <g transform="matrix(0.144197,0,0,0.144197,124.87,1414.96)">
            <rect x="1441.1" y="5450.6" width="40" height="12" style="fill-rule:nonzero;"/>
        </g>
        <g transform="matrix(0.144197,0,0,0.144197,124.87,1414.96)">
            <rect x="1441.1" y="5505.32" width="40" height="12" style="fill-rule:nonzero;"/>
        </g>
        <g transform="matrix(0.144197,0,0,0.144197,124.87,1414.96)">
            <rect x="1441.1" y="5560.04" width="40" height="12" style="fill-rule:nonzero;"/>
        </g>
        <g transform="matrix(0.144197,0,0,0.144197,124.87,1414.96)">
            <path d="M1843.23,3912.45L1843.23,3919.37L1837.23,3922.84L1593.81,3782.31L1593.81,3768.46L1843.23,3912.45Z" style="fill-rule:nonzero;"/>
        </g>
        <g transform="matrix(0.144197,0,0,0.144197,286.685,1991.37)">
            <text x="0px" y="0px" style="font-family:'ArialMT', 'Arial', sans-serif;font-size:200px;">HO</text>
        </g>
        <g transform="matrix(0.144197,0,0,0.144197,124.87,1414.96)">
            <path d="M1593.81,3768.46L1593.81,3782.31L1432.38,3875.53L1426.38,3865.14L1593.81,3768.46Z" style="fill-rule:nonzero;"/>
        </g>
    </g>
</svg>
