<?xml version="1.0" encoding="UTF-8" standalone="no"?>
<!DOCTYPE svg PUBLIC "-//W3C//DTD SVG 1.1//EN" "http://www.w3.org/Graphics/SVG/1.1/DTD/svg11.dtd">
<svg width="100%" height="100%" viewBox="0 0 278 308" version="1.1" xmlns="http://www.w3.org/2000/svg" xmlns:xlink="http://www.w3.org/1999/xlink" xml:space="preserve" xmlns:serif="http://www.serif.com/" style="fill-rule:evenodd;clip-rule:evenodd;stroke-linejoin:round;stroke-miterlimit:2;">
    <g transform="matrix(1,0,0,1,-56.4094,-1401.62)">
        <g transform="matrix(0.144197,0,0,0.144197,277.778,1481.62)">
            <text x="0px" y="0px" style="font-family:'ArialMT', 'Arial', sans-serif;font-size:200px;">N</text>
        </g>
        <g transform="matrix(0.144197,0,0,0.144197,-34.7992,1305.16)">
            <path d="M1734.76,1149.19L1740.76,1145.73L1746.76,1149.19L1746.76,1430.27L1734.76,1437.18L1734.76,1149.19Z" style="fill-rule:nonzero;"/>
        </g>
        <g transform="matrix(0.144197,0,0,0.144197,-34.7992,1305.16)">
            <rect x="1786.6" y="1175.65" width="12" height="228.2" style="fill-rule:nonzero;"/>
        </g>
        <g transform="matrix(0.144197,0,0,0.144197,-34.7992,1305.16)">
            <path d="M2245.92,1437.19L2233.92,1430.26L2233.92,1254.89L2245.92,1254.89L2245.92,1437.19Z" style="fill-rule:nonzero;"/>
        </g>
        <g transform="matrix(0.144197,0,0,0.144197,-34.7992,1305.16)">
            <path d="M2145.81,1084.56L2139.82,1094.96L1990.09,1008.67L1990.08,1001.75L1996.08,998.278L2145.81,1084.56Z" style="fill-rule:nonzero;"/>
        </g>
        <g transform="matrix(0.144197,0,0,0.144197,-34.7992,1305.16)">
            <path d="M2119.89,1129.53L2113.9,1139.93L1987.11,1066.87L1993.11,1056.47L2119.89,1129.53Z" style="fill-rule:nonzero;"/>
        </g>
        <g transform="matrix(0.144197,0,0,0.144197,-34.7992,1305.16)">
            <path d="M1746.76,1149.19L1740.76,1145.73L1740.76,1138.8L1984.08,998.282L1990.08,1001.75L1990.09,1008.67L1746.76,1149.19Z" style="fill-rule:nonzero;"/>
        </g>
        <g transform="matrix(0.144197,0,0,0.144197,241.751,1422.27)">
            <text x="0px" y="0px" style="font-family:'ArialMT', 'Arial', sans-serif;font-size:200px;">NH</text>
        </g>
        <g transform="matrix(0.144197,0,0,0.144197,283.406,1428.61)">
            <text x="0px" y="0px" style="font-family:'ArialMT', 'Arial', sans-serif;font-size:150px;">2</text>
        </g>
        <g transform="matrix(0.144197,0,0,0.144197,-34.7992,1305.16)">
            <path d="M1996.08,998.278L1990.08,1001.75L1984.08,998.282L1984.08,845.265L1996.08,845.265L1996.08,998.278Z" style="fill-rule:nonzero;"/>
        </g>
        <g transform="matrix(0.144197,0,0,0.144197,312.999,1543.99)">
            <text x="0px" y="0px" style="font-family:'ArialMT', 'Arial', sans-serif;font-size:200px;">O</text>
        </g>
        <g transform="matrix(0.144197,0,0,0.144197,-34.7992,1305.16)">
            <path d="M2236.92,1408.91L2242.93,1398.52L2419.21,1500.48L2413.2,1510.87L2236.92,1408.91Z" style="fill-rule:nonzero;"/>
        </g>
        <g transform="matrix(0.144197,0,0,0.144197,-34.7992,1305.16)">
            <path d="M2210.98,1453.92L2216.98,1443.54L2393.2,1545.45L2387.2,1555.84L2210.98,1453.92Z" style="fill-rule:nonzero;"/>
        </g>
        <g transform="matrix(0.144197,0,0,0.144197,241.751,1543.99)">
            <text x="0px" y="0px" style="font-family:'ArialMT', 'Arial', sans-serif;font-size:200px;">N</text>
        </g>
        <g transform="matrix(0.144197,0,0,0.144197,184.746,1605.77)">
            <text x="0px" y="0px" style="font-family:'ArialMT', 'Arial', sans-serif;font-size:200px;">O</text>
        </g>
        <g transform="matrix(0.144197,0,0,0.144197,-34.7992,1305.16)">
            <path d="M1364.63,2340.11L1358.63,2320.11L1380.98,2300.11L1820.74,2300.11L1843.04,2320.11L1837.04,2340.11L1364.63,2340.11Z" style="fill-rule:nonzero;"/>
        </g>
        <g transform="matrix(0.144197,0,0,0.144197,-34.7992,1305.16)">
            <path d="M1849.04,2363.62L1843.04,2320.11L1820.74,2300.11L1978.89,2153.41L1990.08,2151.16L1996.08,2152.99L1849.04,2363.62Z" style="fill-rule:nonzero;"/>
        </g>
        <g transform="matrix(0.144197,0,0,0.144197,-34.7992,1305.16)">
            <path d="M1984.08,2142.54L1990.08,2151.16L1978.89,2153.41L1695.59,2048.38L1699.77,2037.13L1984.08,2142.54Z" style="fill-rule:nonzero;"/>
        </g>
        <g transform="matrix(0.144197,0,0,0.144197,-34.7992,1305.16)">
            <path d="M1499.47,2037.47L1503.62,2048.72L1219.83,2153.39L1208.53,2151.16L1214.53,2142.55L1499.47,2037.47Z" style="fill-rule:nonzero;"/>
        </g>
        <g transform="matrix(0.144197,0,0,0.144197,-34.7992,1305.16)">
            <path d="M1380.98,2300.11L1358.63,2320.11L1352.63,2363.01L1202.53,2153.03L1208.53,2151.16L1219.83,2153.39L1380.98,2300.11Z" style="fill-rule:nonzero;"/>
        </g>
        <g transform="matrix(0.144197,0,0,0.144197,219.746,1678.4)">
            <text x="0px" y="0px" style="font-family:'ArialMT', 'Arial', sans-serif;font-size:200px;">OH</text>
        </g>
        <g transform="matrix(0.144197,0,0,0.144197,-34.7992,1305.16)">
            <path d="M1837.04,2340.11L1843.04,2320.11L1849.04,2363.62L1849.04,2413.23L1837.04,2413.23L1837.04,2340.11Z" style="fill-rule:nonzero;"/>
        </g>
        <g transform="matrix(0.144197,0,0,0.144197,149.895,1678.4)">
            <text x="0px" y="0px" style="font-family:'ArialMT', 'Arial', sans-serif;font-size:200px;">O</text>
        </g>
        <g transform="matrix(0.144197,0,0,0.144197,-34.7992,1305.16)">
            <path d="M1352.63,2363.01L1358.63,2320.11L1364.63,2340.11L1364.63,2413.23L1352.63,2413.23L1352.63,2363.01Z" style="fill-rule:nonzero;"/>
        </g>
        <g transform="matrix(0.144197,0,0,0.144197,-34.7992,1305.16)">
            <path d="M1214.53,2142.55L1208.53,2151.16L1202.53,2153.03L1202.53,1926.17L1214.53,1914.17L1214.53,2142.55Z" style="fill-rule:nonzero;"/>
        </g>
        <g transform="matrix(0.144197,0,0,0.144197,-34.7992,1305.16)">
            <path d="M1984.08,1687.39L1996.08,1687.39L1996.08,2152.99L1990.08,2151.16L1984.08,2142.54L1984.08,1687.39Z" style="fill-rule:nonzero;"/>
        </g>
        <g transform="matrix(0.144197,0,0,0.144197,86.7219,1593.29)">
            <text x="0px" y="0px" style="font-family:'ArialMT', 'Arial', sans-serif;font-size:200px;">O</text>
        </g>
        <g transform="matrix(0.144197,0,0,0.144197,-34.7992,1305.16)">
            <path d="M1214.53,1914.17L1202.53,1926.17L1019.75,1926.17L1019.75,1914.17L1214.53,1914.17Z" style="fill-rule:nonzero;"/>
        </g>
        <g transform="matrix(0.144197,0,0,0.144197,-34.7992,1305.16)">
            <path d="M2089.07,1527.9L2083.06,1517.52L2233.92,1430.26L2245.92,1437.19L2089.07,1527.9Z" style="fill-rule:nonzero;"/>
        </g>
        <g transform="matrix(0.144197,0,0,0.144197,-34.7992,1305.16)">
            <path d="M1896.06,1516.8L1890.05,1527.18L1734.76,1437.18L1746.76,1430.27L1896.06,1516.8Z" style="fill-rule:nonzero;"/>
        </g>
        <g transform="matrix(0.144197,0,0,0.144197,-34.7992,1305.16)">
            <rect x="807.746" y="1900.17" width="12" height="40" style="fill-rule:nonzero;"/>
        </g>
        <g transform="matrix(0.144197,0,0,0.144197,-34.7992,1305.16)">
            <rect x="749.34" y="1900.17" width="12" height="40" style="fill-rule:nonzero;"/>
        </g>
        <g transform="matrix(0.144197,0,0,0.144197,-34.7992,1305.16)">
            <rect x="690.935" y="1900.17" width="12" height="40" style="fill-rule:nonzero;"/>
        </g>
        <g transform="matrix(0.144197,0,0,0.144197,-34.7992,1305.16)">
            <rect x="632.529" y="1900.17" width="12" height="40" style="fill-rule:nonzero;"/>
        </g>
        <g transform="matrix(0.144197,0,0,0.144197,-34.7992,1305.16)">
            <rect x="1338.63" y="2622.23" width="40" height="12" style="fill-rule:nonzero;"/>
        </g>
        <g transform="matrix(0.144197,0,0,0.144197,-34.7992,1305.16)">
            <rect x="1338.63" y="2676.95" width="40" height="12" style="fill-rule:nonzero;"/>
        </g>
        <g transform="matrix(0.144197,0,0,0.144197,-34.7992,1305.16)">
            <rect x="1338.63" y="2731.67" width="40" height="12" style="fill-rule:nonzero;"/>
        </g>
        <g transform="matrix(0.144197,0,0,0.144197,-34.7992,1305.16)">
            <rect x="1338.63" y="2786.4" width="40" height="12" style="fill-rule:nonzero;"/>
        </g>
        <g transform="matrix(0.144197,0,0,0.144197,136.977,1460.86)">
            <text x="0px" y="0px" style="font-family:'ArialMT', 'Arial', sans-serif;font-size:200px;">H</text>
        </g>
        <g transform="matrix(0.144197,0,0,0.144197,157.804,1467.2)">
            <text x="0px" y="0px" style="font-family:'ArialMT', 'Arial', sans-serif;font-size:150px;">3</text>
        </g>
        <g transform="matrix(0.144197,0,0,0.144197,169.834,1460.86)">
            <text x="0px" y="0px" style="font-family:'ArialMT', 'Arial', sans-serif;font-size:200px;">C</text>
        </g>
        <g transform="matrix(0.144197,0,0,0.144197,-34.7992,1305.16)">
            <path d="M1740.76,1138.8L1740.76,1145.73L1734.76,1149.19L1580.56,1060.17L1586.56,1049.78L1740.76,1138.8Z" style="fill-rule:nonzero;"/>
        </g>
    </g>
</svg>
