<?xml version="1.0" encoding="UTF-8" standalone="no"?>
<!DOCTYPE svg PUBLIC "-//W3C//DTD SVG 1.1//EN" "http://www.w3.org/Graphics/SVG/1.1/DTD/svg11.dtd">
<svg width="100%" height="100%" viewBox="0 0 544 238" version="1.1" xmlns="http://www.w3.org/2000/svg" xmlns:xlink="http://www.w3.org/1999/xlink" xml:space="preserve" xmlns:serif="http://www.serif.com/" style="fill-rule:evenodd;clip-rule:evenodd;stroke-linecap:round;stroke-linejoin:round;stroke-miterlimit:1.5;">
    <g transform="matrix(1,0,0,1,-463.736,-1213.99)">
        <g transform="matrix(1,0,0,0.467466,95.2071,672.777)">
            <path d="M610.831,1492.48L610.831,1366.19" style="fill:none;stroke:rgb(54,127,172);stroke-width:8.54px;"/>
        </g>
        <g transform="matrix(1,0,0,1,-13.7998,-173.583)">
            <path d="M829.298,1456.77L829.298,1500.82" style="fill:none;stroke:rgb(76,152,193);stroke-width:4.17px;"/>
        </g>
        <g transform="matrix(4.43186,0,0,4.43186,626.317,1451.25)">
            <g transform="matrix(7.5213,0,0,7.5213,0,0)">
                <path d="M0.394,0.01C0.343,0.01 0.297,0.001 0.254,-0.018C0.211,-0.036 0.173,-0.062 0.141,-0.095C0.109,-0.128 0.084,-0.166 0.067,-0.21C0.05,-0.253 0.041,-0.3 0.041,-0.35C0.041,-0.4 0.05,-0.447 0.067,-0.491C0.084,-0.534 0.109,-0.572 0.141,-0.605C0.173,-0.638 0.211,-0.663 0.254,-0.682C0.297,-0.701 0.343,-0.71 0.394,-0.71C0.451,-0.71 0.5,-0.701 0.541,-0.682C0.582,-0.663 0.619,-0.638 0.651,-0.606L0.573,-0.528C0.552,-0.551 0.527,-0.568 0.498,-0.581C0.468,-0.594 0.433,-0.6 0.394,-0.6C0.359,-0.6 0.328,-0.594 0.299,-0.582C0.27,-0.57 0.246,-0.553 0.225,-0.531C0.204,-0.508 0.187,-0.482 0.176,-0.451C0.165,-0.42 0.159,-0.387 0.159,-0.35C0.159,-0.313 0.165,-0.28 0.176,-0.249C0.187,-0.218 0.204,-0.192 0.225,-0.17C0.246,-0.147 0.27,-0.13 0.299,-0.118C0.328,-0.106 0.359,-0.1 0.394,-0.1C0.437,-0.1 0.473,-0.107 0.503,-0.12C0.532,-0.133 0.557,-0.15 0.578,-0.173L0.656,-0.095C0.624,-0.062 0.586,-0.037 0.543,-0.018C0.5,0.001 0.45,0.01 0.394,0.01Z" style="fill:rgb(54,127,172);fill-rule:nonzero;"/>
            </g>
            <g transform="matrix(7.5213,0,0,7.5213,5.13705,0)">
            </g>
        </g>
        <g transform="matrix(4.43186,0,0,4.43186,764.93,1450.92)">
            <g transform="matrix(7.5213,0,0,7.5213,0,0)">
                <path d="M0.252,-0L0.252,-0.68L0.367,-0.68L0.367,-0L0.252,-0ZM0.024,-0.595L0.024,-0.7L0.595,-0.7L0.595,-0.595L0.024,-0.595Z" style="fill:rgb(54,127,172);fill-rule:nonzero;"/>
            </g>
            <g transform="matrix(7.5213,0,0,7.5213,4.65568,0)">
            </g>
        </g>
        <g transform="matrix(1,0,0,1,74.9602,-129.377)">
            <g transform="matrix(1,-0,-0,1,388.776,1343.36)">
                <path d="M302.357,185.454L311.381,196.126L297.429,196.942C301.533,195.302 303.997,189.558 302.357,185.454Z" style="fill:rgb(54,127,172);"/>
                <path d="M176.067,196.126C218.108,176.256 260.149,175.43 302.191,192.184" style="fill:none;stroke:rgb(54,127,172);stroke-width:4.17px;"/>
            </g>
        </g>
        <g transform="matrix(0.999888,-0.00586062,-0.00586062,0.694271,66.536,316.521)">
            <path d="M479.447,1391.23L480.192,1430.09" style="fill:none;stroke:rgb(31,70,105);stroke-width:3.9px;"/>
        </g>
        <g transform="matrix(1,0,0,1,60.1004,-122.888)">
            <path d="M543.745,1399.49L543.745,1444.93" style="fill:none;stroke:rgb(40,92,131);stroke-width:4.17px;"/>
        </g>
        <g transform="matrix(4.98584,0,0,4.98584,247.341,1120.25)">
            <circle cx="92" cy="34" r="8" style="fill:rgb(54,127,172);"/>
        </g>
        <g transform="matrix(1,0,0,0.894588,131.087,89.5029)">
            <path d="M753.516,1381.93L753.516,1422.19" style="fill:none;stroke:rgb(94,166,201);stroke-width:4.39px;"/>
        </g>
        <g transform="matrix(1,0,0,1,67.082,-123.276)">
            <path d="M873.819,1449.19L873.819,1486.61" style="fill:none;stroke:rgb(110,177,207);stroke-width:3.33px;"/>
        </g>
        <g transform="matrix(1,0,0,1,74.8206,-126.28)">
            <path d="M913.604,1506.03L913.604,1467.66" style="fill:none;stroke:rgb(123,186,212);stroke-width:3.33px;"/>
        </g>
        <g transform="matrix(4.43186,0,0,4.43186,674.442,1301.95)">
            <g>
                <g transform="matrix(7.5213,0,0,7.5213,0,0)">
                    <path d="M0.061,-0L0.061,-0.48L0.171,-0.48L0.171,-0L0.061,-0ZM0.38,-0L0.38,-0.286C0.38,-0.318 0.37,-0.343 0.35,-0.361C0.33,-0.378 0.305,-0.387 0.276,-0.387C0.256,-0.387 0.238,-0.383 0.223,-0.375C0.207,-0.367 0.194,-0.356 0.185,-0.341C0.176,-0.326 0.171,-0.307 0.171,-0.286L0.128,-0.31C0.128,-0.347 0.136,-0.378 0.152,-0.405C0.168,-0.432 0.19,-0.452 0.217,-0.468C0.244,-0.483 0.275,-0.49 0.309,-0.49C0.343,-0.49 0.374,-0.483 0.401,-0.468C0.428,-0.453 0.45,-0.433 0.466,-0.406C0.482,-0.379 0.49,-0.347 0.49,-0.31L0.49,-0L0.38,-0ZM0.699,-0L0.699,-0.286C0.699,-0.318 0.689,-0.343 0.669,-0.361C0.649,-0.378 0.624,-0.387 0.595,-0.387C0.576,-0.387 0.558,-0.383 0.542,-0.375C0.526,-0.367 0.513,-0.356 0.504,-0.341C0.495,-0.326 0.49,-0.307 0.49,-0.286L0.428,-0.31C0.431,-0.347 0.442,-0.378 0.46,-0.405C0.478,-0.432 0.501,-0.452 0.53,-0.468C0.558,-0.483 0.589,-0.49 0.623,-0.49C0.658,-0.49 0.689,-0.483 0.717,-0.468C0.745,-0.453 0.767,-0.433 0.784,-0.406C0.801,-0.379 0.809,-0.347 0.809,-0.31L0.809,-0L0.699,-0Z" style="fill:white;fill-rule:nonzero;"/>
                </g>
                <g transform="matrix(4.38492,0,0,4.38492,6.47584,-2.50459)">
                    <path d="M0.247,0.01C0.198,0.01 0.155,0.002 0.117,-0.016C0.079,-0.033 0.047,-0.057 0.021,-0.09L0.099,-0.168C0.113,-0.147 0.133,-0.13 0.159,-0.117C0.184,-0.104 0.213,-0.098 0.245,-0.098C0.274,-0.098 0.3,-0.103 0.322,-0.114C0.344,-0.125 0.361,-0.14 0.374,-0.16C0.387,-0.18 0.393,-0.204 0.393,-0.231C0.393,-0.26 0.387,-0.284 0.375,-0.303C0.362,-0.322 0.346,-0.336 0.326,-0.346C0.305,-0.355 0.283,-0.36 0.26,-0.36C0.233,-0.36 0.21,-0.357 0.189,-0.351C0.167,-0.345 0.147,-0.334 0.127,-0.319L0.13,-0.391C0.141,-0.405 0.153,-0.417 0.167,-0.426C0.181,-0.435 0.197,-0.441 0.216,-0.446C0.235,-0.451 0.257,-0.453 0.282,-0.453C0.331,-0.453 0.373,-0.443 0.407,-0.422C0.44,-0.401 0.466,-0.374 0.483,-0.34C0.5,-0.305 0.509,-0.267 0.509,-0.225C0.509,-0.18 0.498,-0.139 0.476,-0.104C0.453,-0.069 0.422,-0.041 0.383,-0.021C0.344,-0 0.298,0.01 0.247,0.01ZM0.127,-0.319L0.064,-0.382L0.095,-0.7L0.2,-0.7L0.164,-0.369L0.127,-0.319ZM0.115,-0.597L0.095,-0.7L0.47,-0.7L0.47,-0.597L0.115,-0.597Z" style="fill:white;fill-rule:nonzero;"/>
                </g>
                <g transform="matrix(7.5213,0,0,7.5213,8.86562,0)">
                    <path d="M0.394,0.01C0.343,0.01 0.297,0.001 0.254,-0.018C0.211,-0.036 0.173,-0.062 0.141,-0.095C0.109,-0.128 0.084,-0.166 0.067,-0.21C0.05,-0.253 0.041,-0.3 0.041,-0.35C0.041,-0.4 0.05,-0.447 0.067,-0.491C0.084,-0.534 0.109,-0.572 0.141,-0.605C0.173,-0.638 0.211,-0.663 0.254,-0.682C0.297,-0.701 0.343,-0.71 0.394,-0.71C0.451,-0.71 0.5,-0.701 0.541,-0.682C0.582,-0.663 0.619,-0.638 0.651,-0.606L0.573,-0.528C0.552,-0.551 0.527,-0.568 0.498,-0.581C0.468,-0.594 0.433,-0.6 0.394,-0.6C0.359,-0.6 0.328,-0.594 0.299,-0.582C0.27,-0.57 0.246,-0.553 0.225,-0.531C0.204,-0.508 0.187,-0.482 0.176,-0.451C0.165,-0.42 0.159,-0.387 0.159,-0.35C0.159,-0.313 0.165,-0.28 0.176,-0.249C0.187,-0.218 0.204,-0.192 0.225,-0.17C0.246,-0.147 0.27,-0.13 0.299,-0.118C0.328,-0.106 0.359,-0.1 0.394,-0.1C0.437,-0.1 0.473,-0.107 0.503,-0.12C0.532,-0.133 0.557,-0.15 0.578,-0.173L0.656,-0.095C0.624,-0.062 0.586,-0.037 0.543,-0.018C0.5,0.001 0.45,0.01 0.394,0.01Z" style="fill:white;fill-rule:nonzero;"/>
                </g>
                <g transform="matrix(7.5213,0,0,7.5213,14.0027,0)">
                </g>
            </g>
        </g>
        <g transform="matrix(3.69094,0,0,3.69094,475.931,1226.74)">
            <circle cx="92" cy="34" r="8" style="fill:rgb(76,152,193);"/>
        </g>
        <g transform="matrix(2.49344,0,0,2.49344,792.555,1359.09)">
            <g>
                <g transform="matrix(7.5213,0,0,7.5213,0,0)">
                    <path d="M0.39,-0L0.39,-0.277C0.39,-0.309 0.38,-0.335 0.36,-0.356C0.339,-0.377 0.313,-0.387 0.281,-0.387C0.26,-0.387 0.24,-0.382 0.224,-0.373C0.207,-0.364 0.194,-0.351 0.185,-0.334C0.176,-0.317 0.171,-0.298 0.171,-0.277L0.128,-0.301C0.128,-0.338 0.136,-0.37 0.152,-0.399C0.168,-0.427 0.19,-0.449 0.218,-0.466C0.247,-0.482 0.279,-0.49 0.314,-0.49C0.35,-0.49 0.382,-0.482 0.41,-0.466C0.438,-0.45 0.46,-0.428 0.476,-0.4C0.492,-0.371 0.5,-0.338 0.5,-0.301L0.5,-0L0.39,-0ZM0.061,-0L0.061,-0.72L0.171,-0.72L0.171,-0L0.061,-0Z" style="fill:white;fill-rule:nonzero;"/>
                </g>
                <g transform="matrix(7.5213,0,0,7.5213,4.14424,0)">
                    <path d="M0.061,-0L0.061,-0.48L0.171,-0.48L0.171,-0L0.061,-0ZM0.38,-0L0.38,-0.286C0.38,-0.318 0.37,-0.343 0.35,-0.361C0.33,-0.378 0.305,-0.387 0.276,-0.387C0.256,-0.387 0.238,-0.383 0.223,-0.375C0.207,-0.367 0.194,-0.356 0.185,-0.341C0.176,-0.326 0.171,-0.307 0.171,-0.286L0.128,-0.31C0.128,-0.347 0.136,-0.378 0.152,-0.405C0.168,-0.432 0.19,-0.452 0.217,-0.468C0.244,-0.483 0.275,-0.49 0.309,-0.49C0.343,-0.49 0.374,-0.483 0.401,-0.468C0.428,-0.453 0.45,-0.433 0.466,-0.406C0.482,-0.379 0.49,-0.347 0.49,-0.31L0.49,-0L0.38,-0ZM0.699,-0L0.699,-0.286C0.699,-0.318 0.689,-0.343 0.669,-0.361C0.649,-0.378 0.624,-0.387 0.595,-0.387C0.576,-0.387 0.558,-0.383 0.542,-0.375C0.526,-0.367 0.513,-0.356 0.504,-0.341C0.495,-0.326 0.49,-0.307 0.49,-0.286L0.428,-0.31C0.431,-0.347 0.442,-0.378 0.46,-0.405C0.478,-0.432 0.501,-0.452 0.53,-0.468C0.558,-0.483 0.589,-0.49 0.623,-0.49C0.658,-0.49 0.689,-0.483 0.717,-0.468C0.745,-0.453 0.767,-0.433 0.784,-0.406C0.801,-0.379 0.809,-0.347 0.809,-0.31L0.809,-0L0.699,-0Z" style="fill:white;fill-rule:nonzero;"/>
                </g>
                <g transform="matrix(4.38492,0,0,4.38492,10.6201,-2.50459)">
                    <path d="M0.247,0.01C0.198,0.01 0.155,0.002 0.117,-0.016C0.079,-0.033 0.047,-0.057 0.021,-0.09L0.099,-0.168C0.113,-0.147 0.133,-0.13 0.159,-0.117C0.184,-0.104 0.213,-0.098 0.245,-0.098C0.274,-0.098 0.3,-0.103 0.322,-0.114C0.344,-0.125 0.361,-0.14 0.374,-0.16C0.387,-0.18 0.393,-0.204 0.393,-0.231C0.393,-0.26 0.387,-0.284 0.375,-0.303C0.362,-0.322 0.346,-0.336 0.326,-0.346C0.305,-0.355 0.283,-0.36 0.26,-0.36C0.233,-0.36 0.21,-0.357 0.189,-0.351C0.167,-0.345 0.147,-0.334 0.127,-0.319L0.13,-0.391C0.141,-0.405 0.153,-0.417 0.167,-0.426C0.181,-0.435 0.197,-0.441 0.216,-0.446C0.235,-0.451 0.257,-0.453 0.282,-0.453C0.331,-0.453 0.373,-0.443 0.407,-0.422C0.44,-0.401 0.466,-0.374 0.483,-0.34C0.5,-0.305 0.509,-0.267 0.509,-0.225C0.509,-0.18 0.498,-0.139 0.476,-0.104C0.453,-0.069 0.422,-0.041 0.383,-0.021C0.344,-0 0.298,0.01 0.247,0.01ZM0.127,-0.319L0.064,-0.382L0.095,-0.7L0.2,-0.7L0.164,-0.369L0.127,-0.319ZM0.115,-0.597L0.095,-0.7L0.47,-0.7L0.47,-0.597L0.115,-0.597Z" style="fill:white;fill-rule:nonzero;"/>
                </g>
                <g transform="matrix(7.5213,0,0,7.5213,13.0099,0)">
                    <path d="M0.394,0.01C0.343,0.01 0.297,0.001 0.254,-0.018C0.211,-0.036 0.173,-0.062 0.141,-0.095C0.109,-0.128 0.084,-0.166 0.067,-0.21C0.05,-0.253 0.041,-0.3 0.041,-0.35C0.041,-0.4 0.05,-0.447 0.067,-0.491C0.084,-0.534 0.109,-0.572 0.141,-0.605C0.173,-0.638 0.211,-0.663 0.254,-0.682C0.297,-0.701 0.343,-0.71 0.394,-0.71C0.451,-0.71 0.5,-0.701 0.541,-0.682C0.582,-0.663 0.619,-0.638 0.651,-0.606L0.573,-0.528C0.552,-0.551 0.527,-0.568 0.498,-0.581C0.468,-0.594 0.433,-0.6 0.394,-0.6C0.359,-0.6 0.328,-0.594 0.299,-0.582C0.27,-0.57 0.246,-0.553 0.225,-0.531C0.204,-0.508 0.187,-0.482 0.176,-0.451C0.165,-0.42 0.159,-0.387 0.159,-0.35C0.159,-0.313 0.165,-0.28 0.176,-0.249C0.187,-0.218 0.204,-0.192 0.225,-0.17C0.246,-0.147 0.27,-0.13 0.299,-0.118C0.328,-0.106 0.359,-0.1 0.394,-0.1C0.437,-0.1 0.473,-0.107 0.503,-0.12C0.532,-0.133 0.557,-0.15 0.578,-0.173L0.656,-0.095C0.624,-0.062 0.586,-0.037 0.543,-0.018C0.5,0.001 0.45,0.01 0.394,0.01Z" style="fill:white;fill-rule:nonzero;"/>
                </g>
                <g transform="matrix(7.5213,0,0,7.5213,18.1469,0)">
                </g>
            </g>
        </g>
        <g transform="matrix(2.67214,0,0,2.67214,767.079,1232.32)">
            <g transform="matrix(7.5213,0,0,7.5213,0,0)">
                <path d="M0.394,0.01C0.343,0.01 0.297,0.001 0.254,-0.018C0.211,-0.036 0.173,-0.062 0.141,-0.095C0.109,-0.128 0.084,-0.166 0.067,-0.21C0.05,-0.253 0.041,-0.3 0.041,-0.35C0.041,-0.4 0.05,-0.447 0.067,-0.491C0.084,-0.534 0.109,-0.572 0.141,-0.605C0.173,-0.638 0.211,-0.663 0.254,-0.682C0.297,-0.701 0.343,-0.71 0.394,-0.71C0.451,-0.71 0.5,-0.701 0.541,-0.682C0.582,-0.663 0.619,-0.638 0.651,-0.606L0.573,-0.528C0.552,-0.551 0.527,-0.568 0.498,-0.581C0.468,-0.594 0.433,-0.6 0.394,-0.6C0.359,-0.6 0.328,-0.594 0.299,-0.582C0.27,-0.57 0.246,-0.553 0.225,-0.531C0.204,-0.508 0.187,-0.482 0.176,-0.451C0.165,-0.42 0.159,-0.387 0.159,-0.35C0.159,-0.313 0.165,-0.28 0.176,-0.249C0.187,-0.218 0.204,-0.192 0.225,-0.17C0.246,-0.147 0.27,-0.13 0.299,-0.118C0.328,-0.106 0.359,-0.1 0.394,-0.1C0.437,-0.1 0.473,-0.107 0.503,-0.12C0.532,-0.133 0.557,-0.15 0.578,-0.173L0.656,-0.095C0.624,-0.062 0.586,-0.037 0.543,-0.018C0.5,0.001 0.45,0.01 0.394,0.01Z" style="fill:rgb(76,153,194);fill-rule:nonzero;"/>
            </g>
            <g transform="matrix(7.5213,0,0,7.5213,5.13705,0)">
            </g>
        </g>
        <g transform="matrix(2.67214,0,0,2.67214,850.655,1232.12)">
            <g transform="matrix(7.5213,0,0,7.5213,0,0)">
                <path d="M0.252,-0L0.252,-0.68L0.367,-0.68L0.367,-0L0.252,-0ZM0.024,-0.595L0.024,-0.7L0.595,-0.7L0.595,-0.595L0.024,-0.595Z" style="fill:rgb(76,153,194);fill-rule:nonzero;"/>
            </g>
            <g transform="matrix(7.5213,0,0,7.5213,4.65568,0)">
            </g>
        </g>
        <g transform="matrix(0.602938,0,0,-0.602938,434.645,2178.58)">
            <g transform="matrix(1.65854,0,0,-1.65854,48.2493,1599.82)">
                <path d="M379.125,35.315L393.06,36.374L383.852,46.887C385.563,42.812 383.2,37.026 379.125,35.315Z" style="fill:rgb(76,152,193);"/>
                <path d="M311.474,36.374C335.584,47.769 359.693,48.776 383.803,40.156" style="fill:none;stroke:rgb(76,152,193);stroke-width:4.17px;"/>
            </g>
        </g>
        <g transform="matrix(2.67214,0,0,2.67214,490.638,1225.82)">
            <g transform="matrix(6.2372,0,0,6.2372,0,0)">
                <path d="M0.394,0.01C0.343,0.01 0.297,0.001 0.254,-0.018C0.211,-0.036 0.173,-0.062 0.141,-0.095C0.109,-0.128 0.084,-0.166 0.067,-0.21C0.05,-0.253 0.041,-0.3 0.041,-0.35C0.041,-0.4 0.05,-0.447 0.067,-0.491C0.084,-0.534 0.109,-0.572 0.141,-0.605C0.173,-0.638 0.211,-0.663 0.254,-0.682C0.297,-0.701 0.343,-0.71 0.394,-0.71C0.451,-0.71 0.5,-0.701 0.541,-0.682C0.582,-0.663 0.619,-0.638 0.651,-0.606L0.573,-0.528C0.552,-0.551 0.527,-0.568 0.498,-0.581C0.468,-0.594 0.433,-0.6 0.394,-0.6C0.359,-0.6 0.328,-0.594 0.299,-0.582C0.27,-0.57 0.246,-0.553 0.225,-0.531C0.204,-0.508 0.187,-0.482 0.176,-0.451C0.165,-0.42 0.159,-0.387 0.159,-0.35C0.159,-0.313 0.165,-0.28 0.176,-0.249C0.187,-0.218 0.204,-0.192 0.225,-0.17C0.246,-0.147 0.27,-0.13 0.299,-0.118C0.328,-0.106 0.359,-0.1 0.394,-0.1C0.437,-0.1 0.473,-0.107 0.503,-0.12C0.532,-0.133 0.557,-0.15 0.578,-0.173L0.656,-0.095C0.624,-0.062 0.586,-0.037 0.543,-0.018C0.5,0.001 0.45,0.01 0.394,0.01Z" style="fill:rgb(35,81,119);fill-rule:nonzero;"/>
            </g>
            <g transform="matrix(6.2372,0,0,6.2372,4.26001,0)">
            </g>
        </g>
        <g transform="matrix(2.67214,0,0,2.67214,574.213,1225.82)">
            <g transform="matrix(6.2372,0,0,6.2372,0,0)">
                <path d="M0.394,0.01C0.343,0.01 0.297,0.001 0.254,-0.018C0.211,-0.036 0.173,-0.062 0.141,-0.095C0.109,-0.128 0.084,-0.166 0.067,-0.21C0.05,-0.253 0.041,-0.3 0.041,-0.35C0.041,-0.4 0.05,-0.447 0.067,-0.491C0.084,-0.534 0.109,-0.572 0.141,-0.605C0.173,-0.638 0.211,-0.663 0.254,-0.682C0.297,-0.701 0.343,-0.71 0.394,-0.71C0.451,-0.71 0.5,-0.701 0.541,-0.682C0.582,-0.663 0.619,-0.638 0.651,-0.606L0.573,-0.528C0.552,-0.551 0.527,-0.568 0.498,-0.581C0.468,-0.594 0.433,-0.6 0.394,-0.6C0.359,-0.6 0.328,-0.594 0.299,-0.582C0.27,-0.57 0.246,-0.553 0.225,-0.531C0.204,-0.508 0.187,-0.482 0.176,-0.451C0.165,-0.42 0.159,-0.387 0.159,-0.35C0.159,-0.313 0.165,-0.28 0.176,-0.249C0.187,-0.218 0.204,-0.192 0.225,-0.17C0.246,-0.147 0.27,-0.13 0.299,-0.118C0.328,-0.106 0.359,-0.1 0.394,-0.1C0.437,-0.1 0.473,-0.107 0.503,-0.12C0.532,-0.133 0.557,-0.15 0.578,-0.173L0.656,-0.095C0.624,-0.062 0.586,-0.037 0.543,-0.018C0.5,0.001 0.45,0.01 0.394,0.01Z" style="fill:rgb(35,81,119);fill-rule:nonzero;"/>
            </g>
            <g transform="matrix(6.2372,0,0,6.2372,4.26001,0)">
            </g>
        </g>
        <g transform="matrix(0.602938,0,0,-0.602938,158.204,2172.08)">
            <g transform="matrix(1.65854,0,0,-1.65854,506.739,1589.04)">
                <path d="M102.684,28.818L116.619,29.877L107.411,40.39C109.122,36.315 106.759,30.529 102.684,28.818Z" style="fill:rgb(35,81,119);"/>
                <path d="M35.033,29.877C59.143,41.272 83.252,42.279 107.362,33.658" style="fill:none;stroke:rgb(35,81,119);stroke-width:4.17px;"/>
            </g>
        </g>
        <g transform="matrix(4.43186,0,0,4.43186,369.157,914.336)">
            <path d="M24.248,90C29.998,84.633 39.212,81.018 48.052,81.28C54.104,81.459 60.207,82.414 64,90C73.333,108.667 78.784,106.153 92,90C101.509,78.378 102.883,82.688 118.943,94.948C128.65,102.358 131.221,104.817 141.089,94.948" style="fill:none;fill-rule:nonzero;stroke:url(#_Linear1);stroke-width:1.41px;stroke-linejoin:miter;stroke-miterlimit:4;"/>
        </g>
        <g transform="matrix(4.43186,0,0,4.43186,319.94,782.826)">
            <circle cx="64" cy="122" r="5" style="fill:rgb(40,92,131);"/>
        </g>
        <g transform="matrix(4.43186,0,0,4.43186,600.964,838.29)">
            <circle cx="64" cy="122" r="5" style="fill:rgb(94,166,201);"/>
        </g>
        <g transform="matrix(2.65911,0,0,2.65911,368.502,989.058)">
            <circle cx="64" cy="122" r="5" style="fill:rgb(31,70,105);"/>
        </g>
        <g transform="matrix(2.65911,0,0,2.65911,770.718,996.353)">
            <circle cx="64" cy="122" r="5" style="fill:rgb(110,177,207);"/>
        </g>
        <g transform="matrix(2.65911,0,0,2.65911,818.241,1057.46)">
            <circle cx="64" cy="122" r="5" style="fill:rgb(123,186,212);"/>
        </g>
        <g transform="matrix(4.43186,0,0,4.43186,875.891,1387.73)">
            <g transform="matrix(5.64097,0,0,5.64097,0,0)">
                <path d="M0.394,0.01C0.343,0.01 0.297,0.001 0.254,-0.018C0.211,-0.036 0.173,-0.062 0.141,-0.095C0.109,-0.128 0.084,-0.166 0.067,-0.21C0.05,-0.253 0.041,-0.3 0.041,-0.35C0.041,-0.4 0.05,-0.447 0.067,-0.491C0.084,-0.534 0.109,-0.572 0.141,-0.605C0.173,-0.638 0.211,-0.663 0.254,-0.682C0.297,-0.701 0.343,-0.71 0.394,-0.71C0.451,-0.71 0.5,-0.701 0.541,-0.682C0.582,-0.663 0.619,-0.638 0.651,-0.606L0.573,-0.528C0.552,-0.551 0.527,-0.568 0.498,-0.581C0.468,-0.594 0.433,-0.6 0.394,-0.6C0.359,-0.6 0.328,-0.594 0.299,-0.582C0.27,-0.57 0.246,-0.553 0.225,-0.531C0.204,-0.508 0.187,-0.482 0.176,-0.451C0.165,-0.42 0.159,-0.387 0.159,-0.35C0.159,-0.313 0.165,-0.28 0.176,-0.249C0.187,-0.218 0.204,-0.192 0.225,-0.17C0.246,-0.147 0.27,-0.13 0.299,-0.118C0.328,-0.106 0.359,-0.1 0.394,-0.1C0.437,-0.1 0.473,-0.107 0.503,-0.12C0.532,-0.133 0.557,-0.15 0.578,-0.173L0.656,-0.095C0.624,-0.062 0.586,-0.037 0.543,-0.018C0.5,0.001 0.45,0.01 0.394,0.01Z" style="fill:white;fill-rule:nonzero;"/>
            </g>
        </g>
        <g transform="matrix(4.43186,0,0,4.43186,935.093,1326.6)">
            <g transform="matrix(3.76065,0,0,3.76065,0,0)">
                <path d="M0.394,0.01C0.343,0.01 0.297,0.001 0.254,-0.018C0.211,-0.036 0.173,-0.062 0.141,-0.095C0.109,-0.128 0.084,-0.166 0.067,-0.21C0.05,-0.253 0.041,-0.3 0.041,-0.35C0.041,-0.4 0.05,-0.447 0.067,-0.491C0.084,-0.534 0.109,-0.572 0.141,-0.605C0.173,-0.638 0.211,-0.663 0.254,-0.682C0.297,-0.701 0.343,-0.71 0.394,-0.71C0.451,-0.71 0.5,-0.701 0.541,-0.682C0.582,-0.663 0.619,-0.638 0.651,-0.606L0.573,-0.528C0.552,-0.551 0.527,-0.568 0.498,-0.581C0.468,-0.594 0.433,-0.6 0.394,-0.6C0.359,-0.6 0.328,-0.594 0.299,-0.582C0.27,-0.57 0.246,-0.553 0.225,-0.531C0.204,-0.508 0.187,-0.482 0.176,-0.451C0.165,-0.42 0.159,-0.387 0.159,-0.35C0.159,-0.313 0.165,-0.28 0.176,-0.249C0.187,-0.218 0.204,-0.192 0.225,-0.17C0.246,-0.147 0.27,-0.13 0.299,-0.118C0.328,-0.106 0.359,-0.1 0.394,-0.1C0.437,-0.1 0.473,-0.107 0.503,-0.12C0.532,-0.133 0.557,-0.15 0.578,-0.173L0.656,-0.095C0.624,-0.062 0.586,-0.037 0.543,-0.018C0.5,0.001 0.45,0.01 0.394,0.01Z" style="fill:white;fill-rule:nonzero;"/>
            </g>
        </g>
        <g transform="matrix(4.43186,0,0,4.43186,594.867,1332.26)">
            <g transform="matrix(5.64097,0,0,5.64097,0,0)">
                <path d="M0.394,0.01C0.343,0.01 0.297,0.001 0.254,-0.018C0.211,-0.036 0.173,-0.062 0.141,-0.095C0.109,-0.128 0.084,-0.166 0.067,-0.21C0.05,-0.253 0.041,-0.3 0.041,-0.35C0.041,-0.4 0.05,-0.447 0.067,-0.491C0.084,-0.534 0.109,-0.572 0.141,-0.605C0.173,-0.638 0.211,-0.663 0.254,-0.682C0.297,-0.701 0.343,-0.71 0.394,-0.71C0.451,-0.71 0.5,-0.701 0.541,-0.682C0.582,-0.663 0.619,-0.638 0.651,-0.606L0.573,-0.528C0.552,-0.551 0.527,-0.568 0.498,-0.581C0.468,-0.594 0.433,-0.6 0.394,-0.6C0.359,-0.6 0.328,-0.594 0.299,-0.582C0.27,-0.57 0.246,-0.553 0.225,-0.531C0.204,-0.508 0.187,-0.482 0.176,-0.451C0.165,-0.42 0.159,-0.387 0.159,-0.35C0.159,-0.313 0.165,-0.28 0.176,-0.249C0.187,-0.218 0.204,-0.192 0.225,-0.17C0.246,-0.147 0.27,-0.13 0.299,-0.118C0.328,-0.106 0.359,-0.1 0.394,-0.1C0.437,-0.1 0.473,-0.107 0.503,-0.12C0.532,-0.133 0.557,-0.15 0.578,-0.173L0.656,-0.095C0.624,-0.062 0.586,-0.037 0.543,-0.018C0.5,0.001 0.45,0.01 0.394,0.01Z" style="fill:white;fill-rule:nonzero;"/>
            </g>
        </g>
        <g transform="matrix(4.43186,0,0,4.43186,982.616,1387.7)">
            <g transform="matrix(3.76065,0,0,3.76065,0,0)">
                <path d="M0.394,0.01C0.343,0.01 0.297,0.001 0.254,-0.018C0.211,-0.036 0.173,-0.062 0.141,-0.095C0.109,-0.128 0.084,-0.166 0.067,-0.21C0.05,-0.253 0.041,-0.3 0.041,-0.35C0.041,-0.4 0.05,-0.447 0.067,-0.491C0.084,-0.534 0.109,-0.572 0.141,-0.605C0.173,-0.638 0.211,-0.663 0.254,-0.682C0.297,-0.701 0.343,-0.71 0.394,-0.71C0.451,-0.71 0.5,-0.701 0.541,-0.682C0.582,-0.663 0.619,-0.638 0.651,-0.606L0.573,-0.528C0.552,-0.551 0.527,-0.568 0.498,-0.581C0.468,-0.594 0.433,-0.6 0.394,-0.6C0.359,-0.6 0.328,-0.594 0.299,-0.582C0.27,-0.57 0.246,-0.553 0.225,-0.531C0.204,-0.508 0.187,-0.482 0.176,-0.451C0.165,-0.42 0.159,-0.387 0.159,-0.35C0.159,-0.313 0.165,-0.28 0.176,-0.249C0.187,-0.218 0.204,-0.192 0.225,-0.17C0.246,-0.147 0.27,-0.13 0.299,-0.118C0.328,-0.106 0.359,-0.1 0.394,-0.1C0.437,-0.1 0.473,-0.107 0.503,-0.12C0.532,-0.133 0.557,-0.15 0.578,-0.173L0.656,-0.095C0.624,-0.062 0.586,-0.037 0.543,-0.018C0.5,0.001 0.45,0.01 0.394,0.01Z" style="fill:white;fill-rule:nonzero;"/>
            </g>
        </g>
        <g transform="matrix(4.43186,0,0,4.43186,532.877,1319.3)">
            <g transform="matrix(3.76065,0,0,3.76065,0,0)">
                <path d="M0.394,0.01C0.343,0.01 0.297,0.001 0.254,-0.018C0.211,-0.036 0.173,-0.062 0.141,-0.095C0.109,-0.128 0.084,-0.166 0.067,-0.21C0.05,-0.253 0.041,-0.3 0.041,-0.35C0.041,-0.4 0.05,-0.447 0.067,-0.491C0.084,-0.534 0.109,-0.572 0.141,-0.605C0.173,-0.638 0.211,-0.663 0.254,-0.682C0.297,-0.701 0.343,-0.71 0.394,-0.71C0.451,-0.71 0.5,-0.701 0.541,-0.682C0.582,-0.663 0.619,-0.638 0.651,-0.606L0.573,-0.528C0.552,-0.551 0.527,-0.568 0.498,-0.581C0.468,-0.594 0.433,-0.6 0.394,-0.6C0.359,-0.6 0.328,-0.594 0.299,-0.582C0.27,-0.57 0.246,-0.553 0.225,-0.531C0.204,-0.508 0.187,-0.482 0.176,-0.451C0.165,-0.42 0.159,-0.387 0.159,-0.35C0.159,-0.313 0.165,-0.28 0.176,-0.249C0.187,-0.218 0.204,-0.192 0.225,-0.17C0.246,-0.147 0.27,-0.13 0.299,-0.118C0.328,-0.106 0.359,-0.1 0.394,-0.1C0.437,-0.1 0.473,-0.107 0.503,-0.12C0.532,-0.133 0.557,-0.15 0.578,-0.173L0.656,-0.095C0.624,-0.062 0.586,-0.037 0.543,-0.018C0.5,0.001 0.45,0.01 0.394,0.01Z" style="fill:white;fill-rule:nonzero;"/>
            </g>
        </g>
    </g>
    <defs>
        <linearGradient id="_Linear1" x1="0" y1="0" x2="1" y2="0" gradientUnits="userSpaceOnUse" gradientTransform="matrix(109.303,0,0,27.4527,31.7862,90.2739)"><stop offset="0" style="stop-color:rgb(26,58,92);stop-opacity:1"/><stop offset="0.5" style="stop-color:rgb(59,140,187);stop-opacity:1"/><stop offset="1" style="stop-color:rgb(124,187,212);stop-opacity:1"/></linearGradient>
    </defs>
</svg>
