<?xml version="1.0" encoding="UTF-8" standalone="no"?>
<!DOCTYPE svg PUBLIC "-//W3C//DTD SVG 1.1//EN" "http://www.w3.org/Graphics/SVG/1.1/DTD/svg11.dtd">
<svg width="100%" height="100%" viewBox="0 0 2368 356" version="1.1" xmlns="http://www.w3.org/2000/svg" xmlns:xlink="http://www.w3.org/1999/xlink" xml:space="preserve" xmlns:serif="http://www.serif.com/" style="fill-rule:evenodd;clip-rule:evenodd;stroke-linecap:round;stroke-linejoin:round;stroke-miterlimit:1.5;">
    <g transform="matrix(1,0,0,1,-56.4094,-1398.32)">
        <g transform="matrix(0.864959,0,0,0.864959,-121.839,1683.38)">
            <text x="329.127px" y="81.097px" style="font-family:'Arial-BoldMT', 'Arial', sans-serif;font-weight:700;font-size:38.537px;fill:rgb(240,102,61);">m</text>
            <text x="363.393px" y="68.264px" style="font-family:'Arial-BoldMT', 'Arial', sans-serif;font-weight:700;font-size:22.467px;fill:rgb(240,102,61);">5</text>
            <g transform="matrix(38.5375,0,0,38.5375,403.719,81.097)">
            </g>
            <text x="375.888px" y="81.097px" style="font-family:'Arial-BoldMT', 'Arial', sans-serif;font-weight:700;font-size:38.537px;fill:rgb(240,102,61);">C</text>
        </g>
        <g transform="matrix(0.864959,0,0,0.864959,192.987,1683.38)">
            <text x="329.127px" y="81.097px" style="font-family:'Arial-BoldMT', 'Arial', sans-serif;font-weight:700;font-size:38.537px;fill:rgb(126,149,205);">hm</text>
            <text x="386.933px" y="68.264px" style="font-family:'Arial-BoldMT', 'Arial', sans-serif;font-weight:700;font-size:22.467px;fill:rgb(126,149,205);">5</text>
            <g transform="matrix(38.5375,0,0,38.5375,427.259,81.097)">
            </g>
            <text x="399.429px" y="81.097px" style="font-family:'Arial-BoldMT', 'Arial', sans-serif;font-weight:700;font-size:38.537px;fill:rgb(126,149,205);">C</text>
        </g>
        <g transform="matrix(0.144197,0,0,0.144197,277.778,1481.62)">
            <text x="0px" y="0px" style="font-family:'ArialMT', 'Arial', sans-serif;font-size:200px;">N</text>
        </g>
        <g transform="matrix(0.144197,0,0,0.144197,-34.7992,1305.16)">
            <path d="M1734.76,1149.19L1740.76,1145.73L1746.76,1149.19L1746.76,1430.27L1734.76,1437.18L1734.76,1149.19Z" style="fill-rule:nonzero;"/>
        </g>
        <g transform="matrix(0.144197,0,0,0.144197,-34.7992,1305.16)">
            <rect x="1786.6" y="1175.65" width="12" height="228.2" style="fill-rule:nonzero;"/>
        </g>
        <g transform="matrix(0.144197,0,0,0.144197,-34.7992,1305.16)">
            <path d="M2245.92,1437.19L2233.92,1430.26L2233.92,1254.89L2245.92,1254.89L2245.92,1437.19Z" style="fill-rule:nonzero;"/>
        </g>
        <g transform="matrix(0.144197,0,0,0.144197,-34.7992,1305.16)">
            <path d="M2145.81,1084.56L2139.82,1094.96L1990.09,1008.67L1990.08,1001.75L1996.08,998.278L2145.81,1084.56Z" style="fill-rule:nonzero;"/>
        </g>
        <g transform="matrix(0.144197,0,0,0.144197,-34.7992,1305.16)">
            <path d="M2119.89,1129.53L2113.9,1139.93L1987.11,1066.87L1993.11,1056.47L2119.89,1129.53Z" style="fill-rule:nonzero;"/>
        </g>
        <g transform="matrix(0.144197,0,0,0.144197,-34.7992,1305.16)">
            <path d="M1746.76,1149.19L1740.76,1145.73L1740.76,1138.8L1984.08,998.282L1990.08,1001.75L1990.09,1008.67L1746.76,1149.19Z" style="fill-rule:nonzero;"/>
        </g>
        <g transform="matrix(0.144197,0,0,0.144197,241.751,1422.27)">
            <text x="0px" y="0px" style="font-family:'ArialMT', 'Arial', sans-serif;font-size:200px;">NH</text>
        </g>
        <g transform="matrix(0.144197,0,0,0.144197,283.406,1428.61)">
            <text x="0px" y="0px" style="font-family:'ArialMT', 'Arial', sans-serif;font-size:150px;">2</text>
        </g>
        <g transform="matrix(0.144197,0,0,0.144197,-34.7992,1305.16)">
            <path d="M1996.08,998.278L1990.08,1001.75L1984.08,998.282L1984.08,845.265L1996.08,845.265L1996.08,998.278Z" style="fill-rule:nonzero;"/>
        </g>
        <g transform="matrix(0.144197,0,0,0.144197,312.999,1543.99)">
            <text x="0px" y="0px" style="font-family:'ArialMT', 'Arial', sans-serif;font-size:200px;">O</text>
        </g>
        <g transform="matrix(0.144197,0,0,0.144197,-34.7992,1305.16)">
            <path d="M2236.92,1408.91L2242.93,1398.52L2419.21,1500.48L2413.2,1510.87L2236.92,1408.91Z" style="fill-rule:nonzero;"/>
        </g>
        <g transform="matrix(0.144197,0,0,0.144197,-34.7992,1305.16)">
            <path d="M2210.98,1453.92L2216.98,1443.54L2393.2,1545.45L2387.2,1555.84L2210.98,1453.92Z" style="fill-rule:nonzero;"/>
        </g>
        <g transform="matrix(0.144197,0,0,0.144197,241.751,1543.99)">
            <text x="0px" y="0px" style="font-family:'ArialMT', 'Arial', sans-serif;font-size:200px;">N</text>
        </g>
        <g transform="matrix(0.144197,0,0,0.144197,184.746,1605.77)">
            <text x="0px" y="0px" style="font-family:'ArialMT', 'Arial', sans-serif;font-size:200px;">O</text>
        </g>
        <g transform="matrix(0.144197,0,0,0.144197,-34.7992,1305.16)">
            <path d="M1364.63,2340.11L1358.63,2320.11L1380.98,2300.11L1820.74,2300.11L1843.04,2320.11L1837.04,2340.11L1364.63,2340.11Z" style="fill-rule:nonzero;"/>
        </g>
        <g transform="matrix(0.144197,0,0,0.144197,-34.7992,1305.16)">
            <path d="M1849.04,2363.62L1843.04,2320.11L1820.74,2300.11L1978.89,2153.41L1990.08,2151.16L1996.08,2152.99L1849.04,2363.62Z" style="fill-rule:nonzero;"/>
        </g>
        <g transform="matrix(0.144197,0,0,0.144197,-34.7992,1305.16)">
            <path d="M1984.08,2142.54L1990.08,2151.16L1978.89,2153.41L1695.59,2048.38L1699.77,2037.13L1984.08,2142.54Z" style="fill-rule:nonzero;"/>
        </g>
        <g transform="matrix(0.144197,0,0,0.144197,-34.7992,1305.16)">
            <path d="M1499.47,2037.47L1503.62,2048.72L1219.83,2153.39L1208.53,2151.16L1214.53,2142.55L1499.47,2037.47Z" style="fill-rule:nonzero;"/>
        </g>
        <g transform="matrix(0.144197,0,0,0.144197,-34.7992,1305.16)">
            <path d="M1380.98,2300.11L1358.63,2320.11L1352.63,2363.01L1202.53,2153.03L1208.53,2151.16L1219.83,2153.39L1380.98,2300.11Z" style="fill-rule:nonzero;"/>
        </g>
        <g transform="matrix(0.144197,0,0,0.144197,219.746,1678.4)">
            <text x="0px" y="0px" style="font-family:'ArialMT', 'Arial', sans-serif;font-size:200px;">OH</text>
        </g>
        <g transform="matrix(0.144197,0,0,0.144197,-34.7992,1305.16)">
            <path d="M1837.04,2340.11L1843.04,2320.11L1849.04,2363.62L1849.04,2413.23L1837.04,2413.23L1837.04,2340.11Z" style="fill-rule:nonzero;"/>
        </g>
        <g transform="matrix(0.144197,0,0,0.144197,149.895,1678.4)">
            <text x="0px" y="0px" style="font-family:'ArialMT', 'Arial', sans-serif;font-size:200px;">O</text>
        </g>
        <g transform="matrix(0.144197,0,0,0.144197,-34.7992,1305.16)">
            <path d="M1352.63,2363.01L1358.63,2320.11L1364.63,2340.11L1364.63,2413.23L1352.63,2413.23L1352.63,2363.01Z" style="fill-rule:nonzero;"/>
        </g>
        <g transform="matrix(0.144197,0,0,0.144197,-34.7992,1305.16)">
            <path d="M1214.53,2142.55L1208.53,2151.16L1202.53,2153.03L1202.53,1926.17L1214.53,1914.17L1214.53,2142.55Z" style="fill-rule:nonzero;"/>
        </g>
        <g transform="matrix(0.144197,0,0,0.144197,-34.7992,1305.16)">
            <path d="M1984.08,1687.39L1996.08,1687.39L1996.08,2152.99L1990.08,2151.16L1984.08,2142.54L1984.08,1687.39Z" style="fill-rule:nonzero;"/>
        </g>
        <g transform="matrix(0.144197,0,0,0.144197,86.7219,1593.29)">
            <text x="0px" y="0px" style="font-family:'ArialMT', 'Arial', sans-serif;font-size:200px;">O</text>
        </g>
        <g transform="matrix(0.144197,0,0,0.144197,-34.7992,1305.16)">
            <path d="M1214.53,1914.17L1202.53,1926.17L1019.75,1926.17L1019.75,1914.17L1214.53,1914.17Z" style="fill-rule:nonzero;"/>
        </g>
        <g transform="matrix(0.144197,0,0,0.144197,-34.7992,1305.16)">
            <path d="M2089.07,1527.9L2083.06,1517.52L2233.92,1430.26L2245.92,1437.19L2089.07,1527.9Z" style="fill-rule:nonzero;"/>
        </g>
        <g transform="matrix(0.144197,0,0,0.144197,-34.7992,1305.16)">
            <path d="M1896.06,1516.8L1890.05,1527.18L1734.76,1437.18L1746.76,1430.27L1896.06,1516.8Z" style="fill-rule:nonzero;"/>
        </g>
        <g transform="matrix(0.144197,0,0,0.144197,-34.7992,1305.16)">
            <rect x="807.746" y="1900.17" width="12" height="40" style="fill-rule:nonzero;"/>
        </g>
        <g transform="matrix(0.144197,0,0,0.144197,-34.7992,1305.16)">
            <rect x="749.34" y="1900.17" width="12" height="40" style="fill-rule:nonzero;"/>
        </g>
        <g transform="matrix(0.144197,0,0,0.144197,-34.7992,1305.16)">
            <rect x="690.935" y="1900.17" width="12" height="40" style="fill-rule:nonzero;"/>
        </g>
        <g transform="matrix(0.144197,0,0,0.144197,-34.7992,1305.16)">
            <rect x="632.529" y="1900.17" width="12" height="40" style="fill-rule:nonzero;"/>
        </g>
        <g transform="matrix(0.144197,0,0,0.144197,-34.7992,1305.16)">
            <rect x="1338.63" y="2622.23" width="40" height="12" style="fill-rule:nonzero;"/>
        </g>
        <g transform="matrix(0.144197,0,0,0.144197,-34.7992,1305.16)">
            <rect x="1338.63" y="2676.95" width="40" height="12" style="fill-rule:nonzero;"/>
        </g>
        <g transform="matrix(0.144197,0,0,0.144197,-34.7992,1305.16)">
            <rect x="1338.63" y="2731.67" width="40" height="12" style="fill-rule:nonzero;"/>
        </g>
        <g transform="matrix(0.144197,0,0,0.144197,-34.7992,1305.16)">
            <rect x="1338.63" y="2786.4" width="40" height="12" style="fill-rule:nonzero;"/>
        </g>
        <g transform="matrix(0.144197,0,0,0.144197,136.977,1460.86)">
            <text x="0px" y="0px" style="font-family:'ArialMT', 'Arial', sans-serif;font-size:200px;fill:rgb(240,102,61);">H</text>
        </g>
        <g transform="matrix(0.144197,0,0,0.144197,157.804,1467.2)">
            <text x="0px" y="0px" style="font-family:'ArialMT', 'Arial', sans-serif;font-size:150px;fill:rgb(240,102,61);">3</text>
        </g>
        <g transform="matrix(0.144197,0,0,0.144197,169.834,1460.86)">
            <text x="0px" y="0px" style="font-family:'ArialMT', 'Arial', sans-serif;font-size:200px;fill:rgb(240,102,61);">C</text>
        </g>
        <g transform="matrix(0.144197,0,0,0.144197,-34.7992,1305.16)">
            <path d="M1740.76,1138.8L1740.76,1145.73L1734.76,1149.19L1580.56,1060.17L1586.56,1049.78L1740.76,1138.8Z" style="fill:rgb(240,102,61);fill-rule:nonzero;"/>
        </g>
        <g transform="matrix(0.144197,0,0,0.144197,602.945,1481.62)">
            <text x="0px" y="0px" style="font-family:'ArialMT', 'Arial', sans-serif;font-size:200px;">N</text>
        </g>
        <g transform="matrix(0.144197,0,0,0.144197,275.593,905.214)">
            <path d="M1837.23,3922.84L1843.23,3919.37L1849.23,3922.84L1849.23,4203.92L1837.23,4210.83L1837.23,3922.84Z" style="fill-rule:nonzero;"/>
        </g>
        <g transform="matrix(0.144197,0,0,0.144197,275.593,905.214)">
            <rect x="1889.07" y="3949.3" width="12" height="228.2" style="fill-rule:nonzero;"/>
        </g>
        <g transform="matrix(0.144197,0,0,0.144197,275.593,905.214)">
            <path d="M2348.39,4210.83L2336.39,4203.91L2336.39,4028.54L2348.39,4028.54L2348.39,4210.83Z" style="fill-rule:nonzero;"/>
        </g>
        <g transform="matrix(0.144197,0,0,0.144197,275.593,905.214)">
            <path d="M2248.28,3858.21L2242.29,3868.61L2092.56,3782.32L2092.55,3775.39L2098.55,3771.93L2248.28,3858.21Z" style="fill-rule:nonzero;"/>
        </g>
        <g transform="matrix(0.144197,0,0,0.144197,275.593,905.214)">
            <path d="M2222.36,3903.18L2216.37,3913.58L2089.59,3840.51L2095.58,3830.12L2222.36,3903.18Z" style="fill-rule:nonzero;"/>
        </g>
        <g transform="matrix(0.144197,0,0,0.144197,275.593,905.214)">
            <path d="M1849.23,3922.84L1843.23,3919.37L1843.23,3912.45L2086.55,3771.93L2092.55,3775.39L2092.56,3782.32L1849.23,3922.84Z" style="fill-rule:nonzero;"/>
        </g>
        <g transform="matrix(0.144197,0,0,0.144197,566.92,1422.27)">
            <text x="0px" y="0px" style="font-family:'ArialMT', 'Arial', sans-serif;font-size:200px;">NH</text>
        </g>
        <g transform="matrix(0.144197,0,0,0.144197,608.573,1428.61)">
            <text x="0px" y="0px" style="font-family:'ArialMT', 'Arial', sans-serif;font-size:150px;">2</text>
        </g>
        <g transform="matrix(0.144197,0,0,0.144197,275.593,905.214)">
            <path d="M2098.55,3771.93L2092.55,3775.39L2086.55,3771.93L2086.55,3618.91L2098.55,3618.91L2098.55,3771.93Z" style="fill-rule:nonzero;"/>
        </g>
        <g transform="matrix(0.144197,0,0,0.144197,638.169,1543.99)">
            <text x="0px" y="0px" style="font-family:'ArialMT', 'Arial', sans-serif;font-size:200px;">O</text>
        </g>
        <g transform="matrix(0.144197,0,0,0.144197,275.593,905.214)">
            <path d="M2339.39,4182.56L2345.4,4172.17L2521.68,4274.13L2515.68,4284.52L2339.39,4182.56Z" style="fill-rule:nonzero;"/>
        </g>
        <g transform="matrix(0.144197,0,0,0.144197,275.593,905.214)">
            <path d="M2313.45,4227.57L2319.46,4217.18L2495.67,4319.1L2489.67,4329.49L2313.45,4227.57Z" style="fill-rule:nonzero;"/>
        </g>
        <g transform="matrix(0.144197,0,0,0.144197,566.92,1543.99)">
            <text x="0px" y="0px" style="font-family:'ArialMT', 'Arial', sans-serif;font-size:200px;">N</text>
        </g>
        <g transform="matrix(0.144197,0,0,0.144197,509.914,1605.77)">
            <text x="0px" y="0px" style="font-family:'ArialMT', 'Arial', sans-serif;font-size:200px;">O</text>
        </g>
        <g transform="matrix(0.144197,0,0,0.144197,275.593,905.214)">
            <path d="M1467.1,5113.75L1461.1,5093.75L1483.45,5073.75L1923.21,5073.75L1945.51,5093.75L1939.51,5113.75L1467.1,5113.75Z" style="fill-rule:nonzero;"/>
        </g>
        <g transform="matrix(0.144197,0,0,0.144197,275.593,905.214)">
            <path d="M1951.51,5137.27L1945.51,5093.75L1923.21,5073.75L2081.36,4927.06L2092.55,4924.81L2098.55,4926.64L1951.51,5137.27Z" style="fill-rule:nonzero;"/>
        </g>
        <g transform="matrix(0.144197,0,0,0.144197,275.593,905.214)">
            <path d="M2086.55,4916.19L2092.55,4924.81L2081.36,4927.06L1798.07,4822.03L1802.24,4810.78L2086.55,4916.19Z" style="fill-rule:nonzero;"/>
        </g>
        <g transform="matrix(0.144197,0,0,0.144197,275.593,905.214)">
            <path d="M1601.94,4811.11L1606.09,4822.37L1322.31,4927.03L1311,4924.81L1317,4916.2L1601.94,4811.11Z" style="fill-rule:nonzero;"/>
        </g>
        <g transform="matrix(0.144197,0,0,0.144197,275.593,905.214)">
            <path d="M1483.45,5073.75L1461.1,5093.75L1455.1,5136.66L1305,4926.68L1311,4924.81L1322.31,4927.03L1483.45,5073.75Z" style="fill-rule:nonzero;"/>
        </g>
        <g transform="matrix(0.144197,0,0,0.144197,544.914,1678.4)">
            <text x="0px" y="0px" style="font-family:'ArialMT', 'Arial', sans-serif;font-size:200px;">OH</text>
        </g>
        <g transform="matrix(0.144197,0,0,0.144197,275.593,905.214)">
            <path d="M1939.51,5113.75L1945.51,5093.75L1951.51,5137.27L1951.51,5186.88L1939.51,5186.88L1939.51,5113.75Z" style="fill-rule:nonzero;"/>
        </g>
        <g transform="matrix(0.144197,0,0,0.144197,475.063,1678.4)">
            <text x="0px" y="0px" style="font-family:'ArialMT', 'Arial', sans-serif;font-size:200px;">O</text>
        </g>
        <g transform="matrix(0.144197,0,0,0.144197,275.593,905.214)">
            <path d="M1455.1,5136.66L1461.1,5093.75L1467.1,5113.75L1467.1,5186.88L1455.1,5186.88L1455.1,5136.66Z" style="fill-rule:nonzero;"/>
        </g>
        <g transform="matrix(0.144197,0,0,0.144197,275.593,905.214)">
            <path d="M1317,4916.2L1311,4924.81L1305,4926.68L1305,4699.81L1317,4687.81L1317,4916.2Z" style="fill-rule:nonzero;"/>
        </g>
        <g transform="matrix(0.144197,0,0,0.144197,275.593,905.214)">
            <path d="M2086.55,4461.04L2098.55,4461.04L2098.55,4926.64L2092.55,4924.81L2086.55,4916.19L2086.55,4461.04Z" style="fill-rule:nonzero;"/>
        </g>
        <g transform="matrix(0.144197,0,0,0.144197,411.891,1593.29)">
            <text x="0px" y="0px" style="font-family:'ArialMT', 'Arial', sans-serif;font-size:200px;">O</text>
        </g>
        <g transform="matrix(0.144197,0,0,0.144197,275.593,905.214)">
            <path d="M1317,4687.81L1305,4699.81L1122.22,4699.81L1122.22,4687.81L1317,4687.81Z" style="fill-rule:nonzero;"/>
        </g>
        <g transform="matrix(0.144197,0,0,0.144197,275.593,905.214)">
            <path d="M2191.54,4301.55L2185.53,4291.16L2336.39,4203.91L2348.39,4210.83L2191.54,4301.55Z" style="fill-rule:nonzero;"/>
        </g>
        <g transform="matrix(0.144197,0,0,0.144197,275.593,905.214)">
            <path d="M1998.54,4290.45L1992.52,4300.83L1837.23,4210.83L1849.23,4203.92L1998.54,4290.45Z" style="fill-rule:nonzero;"/>
        </g>
        <g transform="matrix(0.144197,0,0,0.144197,275.593,905.214)">
            <rect x="910.217" y="4673.81" width="12" height="40" style="fill-rule:nonzero;"/>
        </g>
        <g transform="matrix(0.144197,0,0,0.144197,275.593,905.214)">
            <rect x="851.811" y="4673.81" width="12" height="40" style="fill-rule:nonzero;"/>
        </g>
        <g transform="matrix(0.144197,0,0,0.144197,275.593,905.214)">
            <rect x="793.406" y="4673.81" width="11.999" height="40" style="fill-rule:nonzero;"/>
        </g>
        <g transform="matrix(0.144197,0,0,0.144197,275.593,905.214)">
            <rect x="735" y="4673.81" width="12" height="40" style="fill-rule:nonzero;"/>
        </g>
        <g transform="matrix(0.144197,0,0,0.144197,275.593,905.214)">
            <rect x="1441.1" y="5395.88" width="40" height="12" style="fill-rule:nonzero;"/>
        </g>
        <g transform="matrix(0.144197,0,0,0.144197,275.593,905.214)">
            <rect x="1441.1" y="5450.6" width="40" height="12" style="fill-rule:nonzero;"/>
        </g>
        <g transform="matrix(0.144197,0,0,0.144197,275.593,905.214)">
            <rect x="1441.1" y="5505.32" width="40" height="12" style="fill-rule:nonzero;"/>
        </g>
        <g transform="matrix(0.144197,0,0,0.144197,275.593,905.214)">
            <rect x="1441.1" y="5560.04" width="40" height="12" style="fill-rule:nonzero;"/>
        </g>
        <g transform="matrix(0.144197,0,0,0.144197,275.593,905.214)">
            <path d="M1843.23,3912.45L1843.23,3919.37L1837.23,3922.84L1593.81,3782.31L1593.81,3768.46L1843.23,3912.45Z" style="fill:rgb(126,149,205);fill-rule:nonzero;"/>
        </g>
        <g transform="matrix(0.144197,0,0,0.144197,437.409,1481.63)">
            <text x="0px" y="0px" style="font-family:'ArialMT', 'Arial', sans-serif;font-size:200px;fill:rgb(126,149,205);">HO</text>
        </g>
        <g transform="matrix(0.144197,0,0,0.144197,275.593,905.214)">
            <path d="M1593.81,3768.46L1593.81,3782.31L1432.38,3875.53L1426.38,3865.14L1593.81,3768.46Z" style="fill:rgb(126,149,205);fill-rule:nonzero;"/>
        </g>
        <g transform="matrix(0.801376,0,0,0.801376,-44.7715,1300.3)">
            <path d="M502.421,147.458L502.421,488.573" style="fill:none;stroke:black;stroke-width:5.2px;"/>
        </g>
        <g transform="matrix(0.864959,0,0,0.864959,1003.32,1683.38)">
            <text x="329.127px" y="81.097px" style="font-family:'Arial-BoldMT', 'Arial', sans-serif;font-weight:700;font-size:38.537px;fill:rgb(178,106,212);">ca</text>
            <text x="371.993px" y="68.264px" style="font-family:'Arial-BoldMT', 'Arial', sans-serif;font-weight:700;font-size:22.467px;fill:rgb(178,106,212);">5</text>
            <g transform="matrix(38.5375,0,0,38.5375,412.318,81.097)">
            </g>
            <text x="384.488px" y="81.097px" style="font-family:'Arial-BoldMT', 'Arial', sans-serif;font-weight:700;font-size:38.537px;fill:rgb(178,106,212);">C</text>
        </g>
        <g transform="matrix(0.144197,0,0,0.144197,1406.32,1481.62)">
            <text x="0px" y="0px" style="font-family:'ArialMT', 'Arial', sans-serif;font-size:200px;">N</text>
        </g>
        <g transform="matrix(0.144197,0,0,0.144197,704.779,1297.68)">
            <path d="M4432.23,1201.11L4438.23,1197.65L4444.23,1201.11L4444.23,1482.19L4432.23,1489.1L4432.23,1201.11Z" style="fill-rule:nonzero;"/>
        </g>
        <g transform="matrix(0.144197,0,0,0.144197,704.779,1297.68)">
            <rect x="4484.07" y="1227.57" width="12" height="228.2" style="fill-rule:nonzero;"/>
        </g>
        <g transform="matrix(0.144197,0,0,0.144197,704.779,1297.68)">
            <path d="M4943.39,1489.11L4931.39,1482.18L4931.39,1306.81L4943.39,1306.81L4943.39,1489.11Z" style="fill-rule:nonzero;"/>
        </g>
        <g transform="matrix(0.144197,0,0,0.144197,704.779,1297.68)">
            <path d="M4843.27,1136.48L4837.28,1146.88L4687.55,1060.59L4687.55,1053.67L4693.55,1050.2L4843.27,1136.48Z" style="fill-rule:nonzero;"/>
        </g>
        <g transform="matrix(0.144197,0,0,0.144197,704.779,1297.68)">
            <path d="M4817.36,1181.45L4811.36,1191.85L4684.58,1118.79L4690.57,1108.39L4817.36,1181.45Z" style="fill-rule:nonzero;"/>
        </g>
        <g transform="matrix(0.144197,0,0,0.144197,704.779,1297.68)">
            <path d="M4444.23,1201.11L4438.23,1197.65L4438.23,1190.72L4681.55,1050.2L4687.55,1053.67L4687.55,1060.59L4444.23,1201.11Z" style="fill-rule:nonzero;"/>
        </g>
        <g transform="matrix(0.144197,0,0,0.144197,1370.3,1422.27)">
            <text x="0px" y="0px" style="font-family:'ArialMT', 'Arial', sans-serif;font-size:200px;">NH</text>
        </g>
        <g transform="matrix(0.144197,0,0,0.144197,1411.95,1428.61)">
            <text x="0px" y="0px" style="font-family:'ArialMT', 'Arial', sans-serif;font-size:150px;">2</text>
        </g>
        <g transform="matrix(0.144197,0,0,0.144197,704.779,1297.68)">
            <path d="M4693.55,1050.2L4687.55,1053.67L4681.55,1050.2L4681.55,897.185L4693.55,897.185L4693.55,1050.2Z" style="fill-rule:nonzero;"/>
        </g>
        <g transform="matrix(0.144197,0,0,0.144197,1441.54,1543.99)">
            <text x="0px" y="0px" style="font-family:'ArialMT', 'Arial', sans-serif;font-size:200px;">O</text>
        </g>
        <g transform="matrix(0.144197,0,0,0.144197,704.779,1297.68)">
            <path d="M4934.38,1460.83L4940.39,1450.44L5116.68,1552.4L5110.67,1562.79L4934.38,1460.83Z" style="fill-rule:nonzero;"/>
        </g>
        <g transform="matrix(0.144197,0,0,0.144197,704.779,1297.68)">
            <path d="M4908.44,1505.84L4914.45,1495.45L5090.67,1597.37L5084.66,1607.76L4908.44,1505.84Z" style="fill-rule:nonzero;"/>
        </g>
        <g transform="matrix(0.144197,0,0,0.144197,1370.3,1543.99)">
            <text x="0px" y="0px" style="font-family:'ArialMT', 'Arial', sans-serif;font-size:200px;">N</text>
        </g>
        <g transform="matrix(0.144197,0,0,0.144197,1313.29,1605.77)">
            <text x="0px" y="0px" style="font-family:'ArialMT', 'Arial', sans-serif;font-size:200px;">O</text>
        </g>
        <g transform="matrix(0.144197,0,0,0.144197,704.779,1297.68)">
            <path d="M4062.09,2392.02L4056.09,2372.02L4078.44,2352.02L4518.21,2352.02L4540.51,2372.02L4534.51,2392.02L4062.09,2392.02Z" style="fill-rule:nonzero;"/>
        </g>
        <g transform="matrix(0.144197,0,0,0.144197,704.779,1297.68)">
            <path d="M4546.51,2415.54L4540.51,2372.02L4518.21,2352.02L4676.35,2205.33L4687.55,2203.08L4693.55,2204.91L4546.51,2415.54Z" style="fill-rule:nonzero;"/>
        </g>
        <g transform="matrix(0.144197,0,0,0.144197,704.779,1297.68)">
            <path d="M4681.55,2194.46L4687.55,2203.08L4676.35,2205.33L4393.06,2100.3L4397.23,2089.05L4681.55,2194.46Z" style="fill-rule:nonzero;"/>
        </g>
        <g transform="matrix(0.144197,0,0,0.144197,704.779,1297.68)">
            <path d="M4196.93,2089.38L4201.08,2100.64L3917.3,2205.31L3905.99,2203.08L3911.99,2194.47L4196.93,2089.38Z" style="fill-rule:nonzero;"/>
        </g>
        <g transform="matrix(0.144197,0,0,0.144197,704.779,1297.68)">
            <path d="M4078.44,2352.02L4056.09,2372.02L4050.09,2414.93L3899.99,2204.95L3905.99,2203.08L3917.3,2205.31L4078.44,2352.02Z" style="fill-rule:nonzero;"/>
        </g>
        <g transform="matrix(0.144197,0,0,0.144197,1348.29,1678.4)">
            <text x="0px" y="0px" style="font-family:'ArialMT', 'Arial', sans-serif;font-size:200px;">OH</text>
        </g>
        <g transform="matrix(0.144197,0,0,0.144197,704.779,1297.68)">
            <path d="M4534.51,2392.02L4540.51,2372.02L4546.51,2415.54L4546.51,2465.15L4534.51,2465.15L4534.51,2392.02Z" style="fill-rule:nonzero;"/>
        </g>
        <g transform="matrix(0.144197,0,0,0.144197,1278.44,1678.4)">
            <text x="0px" y="0px" style="font-family:'ArialMT', 'Arial', sans-serif;font-size:200px;">O</text>
        </g>
        <g transform="matrix(0.144197,0,0,0.144197,704.779,1297.68)">
            <path d="M4050.09,2414.93L4056.09,2372.02L4062.09,2392.02L4062.09,2465.15L4050.09,2465.15L4050.09,2414.93Z" style="fill-rule:nonzero;"/>
        </g>
        <g transform="matrix(0.144197,0,0,0.144197,704.779,1297.68)">
            <path d="M3911.99,2194.47L3905.99,2203.08L3899.99,2204.95L3899.99,1978.08L3911.99,1966.08L3911.99,2194.47Z" style="fill-rule:nonzero;"/>
        </g>
        <g transform="matrix(0.144197,0,0,0.144197,704.779,1297.68)">
            <path d="M4681.55,1739.31L4693.55,1739.31L4693.55,2204.91L4687.55,2203.08L4681.55,2194.46L4681.55,1739.31Z" style="fill-rule:nonzero;"/>
        </g>
        <g transform="matrix(0.144197,0,0,0.144197,1215.27,1593.29)">
            <text x="0px" y="0px" style="font-family:'ArialMT', 'Arial', sans-serif;font-size:200px;">O</text>
        </g>
        <g transform="matrix(0.144197,0,0,0.144197,704.779,1297.68)">
            <path d="M3911.99,1966.08L3899.99,1978.08L3717.21,1978.08L3717.21,1966.08L3911.99,1966.08Z" style="fill-rule:nonzero;"/>
        </g>
        <g transform="matrix(0.144197,0,0,0.144197,704.779,1297.68)">
            <path d="M4786.53,1579.82L4780.53,1569.44L4931.39,1482.18L4943.39,1489.11L4786.53,1579.82Z" style="fill-rule:nonzero;"/>
        </g>
        <g transform="matrix(0.144197,0,0,0.144197,704.779,1297.68)">
            <path d="M4593.53,1568.72L4587.51,1579.1L4432.23,1489.1L4444.23,1482.19L4593.53,1568.72Z" style="fill-rule:nonzero;"/>
        </g>
        <g transform="matrix(0.144197,0,0,0.144197,704.779,1297.68)">
            <rect x="3505.21" y="1952.08" width="12" height="40" style="fill-rule:nonzero;"/>
        </g>
        <g transform="matrix(0.144197,0,0,0.144197,704.779,1297.68)">
            <rect x="3446.8" y="1952.08" width="12" height="40" style="fill-rule:nonzero;"/>
        </g>
        <g transform="matrix(0.144197,0,0,0.144197,704.779,1297.68)">
            <rect x="3388.4" y="1952.08" width="12" height="40" style="fill-rule:nonzero;"/>
        </g>
        <g transform="matrix(0.144197,0,0,0.144197,704.779,1297.68)">
            <rect x="3329.99" y="1952.08" width="12" height="40" style="fill-rule:nonzero;"/>
        </g>
        <g transform="matrix(0.144197,0,0,0.144197,704.779,1297.68)">
            <rect x="4036.09" y="2674.15" width="40" height="12" style="fill-rule:nonzero;"/>
        </g>
        <g transform="matrix(0.144197,0,0,0.144197,704.779,1297.68)">
            <rect x="4036.09" y="2728.87" width="40" height="12" style="fill-rule:nonzero;"/>
        </g>
        <g transform="matrix(0.144197,0,0,0.144197,704.779,1297.68)">
            <rect x="4036.09" y="2783.59" width="40" height="12" style="fill-rule:nonzero;"/>
        </g>
        <g transform="matrix(0.144197,0,0,0.144197,704.779,1297.68)">
            <rect x="4036.09" y="2838.32" width="40" height="12" style="fill-rule:nonzero;"/>
        </g>
        <g transform="matrix(0.144197,0,0,0.144197,704.779,1297.68)">
            <path d="M4438.23,1190.72L4438.23,1197.65L4432.23,1201.11L4188.8,1060.59L4188.8,1046.73L4438.23,1190.72Z" style="fill:rgb(178,106,212);fill-rule:nonzero;"/>
        </g>
        <g transform="matrix(0.144197,0,0,0.144197,1240.78,1481.62)">
            <text x="0px" y="0px" style="font-family:'ArialMT', 'Arial', sans-serif;font-size:200px;fill:rgb(178,106,212);">HO</text>
        </g>
        <g transform="matrix(0.144197,0,0,0.144197,704.779,1297.68)">
            <path d="M4188.8,1046.73L4188.8,1060.59L4027.37,1153.8L4021.37,1143.41L4188.8,1046.73Z" style="fill:rgb(178,106,212);fill-rule:nonzero;"/>
        </g>
        <g transform="matrix(0.144197,0,0,0.144197,1297.57,1419.33)">
            <text x="0px" y="0px" style="font-family:'ArialMT', 'Arial', sans-serif;font-size:200px;fill:rgb(178,106,212);">O</text>
        </g>
        <g transform="matrix(0.144197,0,0,0.144197,704.779,1297.68)">
            <path d="M4168.88,1068.62L4156.88,1068.62L4156.87,877.493L4168.87,877.492L4168.88,1068.62Z" style="fill:rgb(178,106,212);fill-rule:nonzero;"/>
        </g>
        <g transform="matrix(0.144197,0,0,0.144197,704.779,1297.68)">
            <path d="M4220.72,1068.62L4208.72,1068.62L4208.71,877.49L4220.71,877.49L4220.72,1068.62Z" style="fill:rgb(178,106,212);fill-rule:nonzero;"/>
        </g>
        <g transform="matrix(0.801376,0,0,0.801376,758.808,1300.3)">
            <path d="M502.421,147.458L502.421,488.573" style="fill:none;stroke:black;stroke-width:5.2px;"/>
        </g>
        <g transform="matrix(0.143187,0,0,0.143187,1082.01,1483.19)">
            <text x="0px" y="0px" style="font-family:'ArialMT', 'Arial', sans-serif;font-size:200px;">N</text>
        </g>
        <g transform="matrix(0.143187,0,0,0.143187,369.129,914.21)">
            <path d="M4545.7,3899.18L4551.7,3895.72L4557.7,3899.18L4557.7,4180.26L4545.7,4187.18L4545.7,3899.18Z" style="fill-rule:nonzero;"/>
        </g>
        <g transform="matrix(0.143187,0,0,0.143187,369.129,914.21)">
            <rect x="4597.54" y="3925.65" width="12" height="228.2" style="fill-rule:nonzero;"/>
        </g>
        <g transform="matrix(0.143187,0,0,0.143187,369.129,914.21)">
            <path d="M5056.9,4187.18L5044.9,4180.26L5044.9,4004.88L5056.9,4004.88L5056.9,4187.18Z" style="fill-rule:nonzero;"/>
        </g>
        <g transform="matrix(0.143187,0,0,0.143187,369.129,914.21)">
            <path d="M4956.79,3834.54L4950.8,3844.94L4801.1,3758.65L4801.1,3751.72L4807.1,3748.25L4956.79,3834.54Z" style="fill-rule:nonzero;"/>
        </g>
        <g transform="matrix(0.143187,0,0,0.143187,369.129,914.21)">
            <path d="M4930.87,3879.51L4924.88,3889.9L4798.12,3816.83L4804.12,3806.44L4930.87,3879.51Z" style="fill-rule:nonzero;"/>
        </g>
        <g transform="matrix(0.143187,0,0,0.143187,369.129,914.21)">
            <path d="M4557.7,3899.18L4551.7,3895.72L4551.7,3888.79L4795.1,3748.25L4801.1,3751.72L4801.1,3758.65L4557.7,3899.18Z" style="fill-rule:nonzero;"/>
        </g>
        <g transform="matrix(0.143187,0,0,0.143187,1046.24,1424.26)">
            <text x="0px" y="0px" style="font-family:'ArialMT', 'Arial', sans-serif;font-size:200px;">NH</text>
        </g>
        <g transform="matrix(0.143187,0,0,0.143187,1087.6,1430.56)">
            <text x="0px" y="0px" style="font-family:'ArialMT', 'Arial', sans-serif;font-size:150px;">2</text>
        </g>
        <g transform="matrix(0.143187,0,0,0.143187,369.129,914.21)">
            <path d="M4807.1,3748.25L4801.1,3751.72L4795.1,3748.25L4795.1,3595.28L4807.1,3595.28L4807.1,3748.25Z" style="fill-rule:nonzero;"/>
        </g>
        <g transform="matrix(0.143187,0,0,0.143187,1116.98,1545.14)">
            <text x="0px" y="0px" style="font-family:'ArialMT', 'Arial', sans-serif;font-size:200px;">O</text>
        </g>
        <g transform="matrix(0.143187,0,0,0.143187,369.129,914.21)">
            <path d="M5047.89,4158.9L5053.9,4148.51L5231.24,4251.17L5225.23,4261.55L5047.89,4158.9Z" style="fill-rule:nonzero;"/>
        </g>
        <g transform="matrix(0.143187,0,0,0.143187,369.129,914.21)">
            <path d="M5021.97,4203.92L5027.98,4193.53L5205.22,4296.13L5199.2,4306.52L5021.97,4203.92Z" style="fill-rule:nonzero;"/>
        </g>
        <g transform="matrix(0.143187,0,0,0.143187,1046.24,1545.14)">
            <text x="0px" y="0px" style="font-family:'ArialMT', 'Arial', sans-serif;font-size:200px;">N</text>
        </g>
        <g transform="matrix(0.143187,0,0,0.143187,989.63,1606.48)">
            <text x="0px" y="0px" style="font-family:'ArialMT', 'Arial', sans-serif;font-size:200px;">O</text>
        </g>
        <g transform="matrix(0.143187,0,0,0.143187,369.129,914.21)">
            <path d="M4175.5,5090.12L4169.5,5070.12L4191.84,5050.12L4631.8,5050.12L4654.1,5070.12L4648.1,5090.12L4175.5,5090.12Z" style="fill-rule:nonzero;"/>
        </g>
        <g transform="matrix(0.143187,0,0,0.143187,369.129,914.21)">
            <path d="M4660.1,5113.65L4654.1,5070.12L4631.8,5050.12L4789.9,4903.37L4801.1,4901.12L4807.1,4902.94L4660.1,5113.65Z" style="fill-rule:nonzero;"/>
        </g>
        <g transform="matrix(0.143187,0,0,0.143187,369.129,914.21)">
            <path d="M4795.1,4892.5L4801.1,4901.12L4789.9,4903.37L4507.79,4798.86L4511.95,4787.61L4795.1,4892.5Z" style="fill-rule:nonzero;"/>
        </g>
        <g transform="matrix(0.143187,0,0,0.143187,369.129,914.21)">
            <path d="M4311.32,4787.17L4315.47,4798.43L4030.8,4903.35L4019.5,4901.12L4025.5,4892.51L4311.32,4787.17Z" style="fill-rule:nonzero;"/>
        </g>
        <g transform="matrix(0.143187,0,0,0.143187,369.129,914.21)">
            <path d="M4191.84,5050.12L4169.5,5070.12L4163.5,5113.05L4013.5,4902.98L4019.5,4901.12L4030.8,4903.35L4191.84,5050.12Z" style="fill-rule:nonzero;"/>
        </g>
        <g transform="matrix(0.143187,0,0,0.143187,1024.4,1678.61)">
            <text x="0px" y="0px" style="font-family:'ArialMT', 'Arial', sans-serif;font-size:200px;">OH</text>
        </g>
        <g transform="matrix(0.143187,0,0,0.143187,369.129,914.21)">
            <path d="M4648.1,5090.12L4654.1,5070.12L4660.1,5113.65L4660.1,5163.35L4648.1,5163.35L4648.1,5090.12Z" style="fill-rule:nonzero;"/>
        </g>
        <g transform="matrix(0.143187,0,0,0.143187,955.008,1678.61)">
            <text x="0px" y="0px" style="font-family:'ArialMT', 'Arial', sans-serif;font-size:200px;">O</text>
        </g>
        <g transform="matrix(0.143187,0,0,0.143187,369.129,914.21)">
            <path d="M4163.5,5113.05L4169.5,5070.12L4175.5,5090.12L4175.5,5163.35L4163.5,5163.35L4163.5,5113.05Z" style="fill-rule:nonzero;"/>
        </g>
        <g transform="matrix(0.143187,0,0,0.143187,369.129,914.21)">
            <path d="M4025.5,4892.51L4019.5,4901.12L4013.5,4902.98L4013.5,4676.12L4025.5,4664.12L4025.5,4892.51Z" style="fill-rule:nonzero;"/>
        </g>
        <g transform="matrix(0.143187,0,0,0.143187,369.129,914.21)">
            <path d="M4795.1,4437.48L4807.1,4437.48L4807.1,4902.94L4801.1,4901.12L4795.1,4892.5L4795.1,4437.48Z" style="fill-rule:nonzero;"/>
        </g>
        <g transform="matrix(0.143187,0,0,0.143187,892.292,1594.08)">
            <text x="0px" y="0px" style="font-family:'ArialMT', 'Arial', sans-serif;font-size:200px;">O</text>
        </g>
        <g transform="matrix(0.143187,0,0,0.143187,369.129,914.21)">
            <path d="M4025.5,4664.12L4013.5,4676.12L3831.72,4676.12L3831.72,4664.12L4025.5,4664.12Z" style="fill-rule:nonzero;"/>
        </g>
        <g transform="matrix(0.143187,0,0,0.143187,369.129,914.21)">
            <path d="M4900.82,4277.52L4894.81,4267.14L5044.9,4180.26L5056.9,4187.18L4900.82,4277.52Z" style="fill-rule:nonzero;"/>
        </g>
        <g transform="matrix(0.143187,0,0,0.143187,369.129,914.21)">
            <path d="M4707.09,4266.88L4701.07,4277.26L4545.7,4187.18L4557.7,4180.26L4707.09,4266.88Z" style="fill-rule:nonzero;"/>
        </g>
        <g transform="matrix(0.143187,0,0,0.143187,369.129,914.21)">
            <rect x="3619.72" y="4650.12" width="12" height="40" style="fill-rule:nonzero;"/>
        </g>
        <g transform="matrix(0.143187,0,0,0.143187,369.129,914.21)">
            <rect x="3560.98" y="4650.12" width="12" height="40" style="fill-rule:nonzero;"/>
        </g>
        <g transform="matrix(0.143187,0,0,0.143187,369.129,914.21)">
            <rect x="3502.24" y="4650.12" width="12" height="40" style="fill-rule:nonzero;"/>
        </g>
        <g transform="matrix(0.143187,0,0,0.143187,369.129,914.21)">
            <rect x="3443.5" y="4650.12" width="12" height="40" style="fill-rule:nonzero;"/>
        </g>
        <g transform="matrix(0.143187,0,0,0.143187,369.129,914.21)">
            <rect x="4149.5" y="5372.35" width="40" height="12" style="fill-rule:nonzero;"/>
        </g>
        <g transform="matrix(0.143187,0,0,0.143187,369.129,914.21)">
            <rect x="4149.5" y="5427.07" width="40" height="12" style="fill-rule:nonzero;"/>
        </g>
        <g transform="matrix(0.143187,0,0,0.143187,369.129,914.21)">
            <rect x="4149.5" y="5481.8" width="40" height="12" style="fill-rule:nonzero;"/>
        </g>
        <g transform="matrix(0.143187,0,0,0.143187,369.129,914.21)">
            <rect x="4149.5" y="5536.52" width="40" height="12" style="fill-rule:nonzero;"/>
        </g>
        <g transform="matrix(0.143187,0,0,0.143187,369.129,914.21)">
            <path d="M4551.7,3888.79L4551.7,3895.72L4545.7,3899.18L4296.3,3755.18L4308.3,3748.25L4551.7,3888.79Z" style="fill:rgb(235,136,196);fill-rule:nonzero;"/>
        </g>
        <g transform="matrix(0.143187,0,0,0.143187,977.733,1421.34)">
            <text x="0px" y="0px" style="font-family:'ArialMT', 'Arial', sans-serif;font-size:200px;fill:rgb(235,136,196);">O</text>
        </g>
        <g transform="matrix(0.143187,0,0,0.143187,369.129,914.21)">
            <path d="M4308.3,3748.25L4296.3,3755.18L4296.3,3575.55L4308.3,3575.55L4308.3,3748.25Z" style="fill:rgb(235,136,196);fill-rule:nonzero;"/>
        </g>
        <g transform="matrix(0.143187,0,0,0.143187,369.129,914.21)">
            <rect x="4348.14" y="3575.55" width="12" height="146.24" style="fill:rgb(235,136,196);fill-rule:nonzero;"/>
        </g>
        <g transform="matrix(0.864959,0,0,0.864959,693.068,1683.38)">
            <text x="329.127px" y="81.097px" style="font-family:'Arial-BoldMT', 'Arial', sans-serif;font-weight:700;font-size:38.537px;fill:rgb(235,136,196);">f</text>
            <text x="341.961px" y="68.264px" style="font-family:'Arial-BoldMT', 'Arial', sans-serif;font-weight:700;font-size:22.467px;fill:rgb(235,136,196);">5</text>
            <g transform="matrix(38.5375,0,0,38.5375,382.286,81.097)">
            </g>
            <text x="354.456px" y="81.097px" style="font-family:'Arial-BoldMT', 'Arial', sans-serif;font-weight:700;font-size:38.537px;fill:rgb(235,136,196);">C</text>
        </g>
        <g transform="matrix(0.864959,0,0,0.864959,1483.76,1682.55)">
            <g transform="matrix(38.5375,0,0,38.5375,412.619,81.097)">
            </g>
            <text x="329.127px" y="81.097px" style="font-family:'Arial-BoldMT', 'Arial', sans-serif;font-weight:700;font-size:38.537px;fill:rgb(166,215,86);">DHU</text>
        </g>
        <g transform="matrix(0.144197,0,0,0.144197,1886.93,1481.62)">
            <text x="0px" y="0px" style="font-family:'ArialMT', 'Arial', sans-serif;font-size:200px;">NH</text>
        </g>
        <g transform="matrix(0.144197,0,0,0.144197,788.483,1296.52)">
            <path d="M7695.93,1497.11L7683.93,1490.19L7683.93,1314.82L7695.93,1314.82L7695.93,1497.11Z" style="fill-rule:nonzero;"/>
        </g>
        <g transform="matrix(0.144197,0,0,0.144197,788.483,1296.52)">
            <path d="M7196.77,1209.12L7184.77,1202.19L7440.09,1054.75L7440.09,1068.6L7196.77,1209.12Z" style="fill-rule:nonzero;"/>
        </g>
        <g transform="matrix(0.144197,0,0,0.144197,1850.11,1422.27)">
            <text x="0px" y="0px" style="font-family:'ArialMT', 'Arial', sans-serif;font-size:200px;">O</text>
        </g>
        <g transform="matrix(0.144197,0,0,0.144197,788.483,1296.52)">
            <rect x="7410" y="905.86" width="12" height="169.72" style="fill-rule:nonzero;"/>
        </g>
        <g transform="matrix(0.144197,0,0,0.144197,788.483,1296.52)">
            <rect x="7458.18" y="905.86" width="12" height="169.7" style="fill-rule:nonzero;"/>
        </g>
        <g transform="matrix(0.144197,0,0,0.144197,1922.16,1543.99)">
            <text x="0px" y="0px" style="font-family:'ArialMT', 'Arial', sans-serif;font-size:200px;">O</text>
        </g>
        <g transform="matrix(0.144197,0,0,0.144197,788.483,1296.52)">
            <path d="M7686.93,1468.84L7692.93,1458.45L7869.22,1560.41L7863.21,1570.8L7686.93,1468.84Z" style="fill-rule:nonzero;"/>
        </g>
        <g transform="matrix(0.144197,0,0,0.144197,788.483,1296.52)">
            <path d="M7660.98,1513.85L7666.99,1503.46L7843.21,1605.38L7837.2,1615.77L7660.98,1513.85Z" style="fill-rule:nonzero;"/>
        </g>
        <g transform="matrix(0.144197,0,0,0.144197,1850.91,1543.99)">
            <text x="0px" y="0px" style="font-family:'ArialMT', 'Arial', sans-serif;font-size:200px;">N</text>
        </g>
        <g transform="matrix(0.144197,0,0,0.144197,1793.9,1605.77)">
            <text x="0px" y="0px" style="font-family:'ArialMT', 'Arial', sans-serif;font-size:200px;">O</text>
        </g>
        <g transform="matrix(0.144197,0,0,0.144197,788.483,1296.52)">
            <path d="M6814.64,2400.03L6808.64,2380.03L6830.98,2360.03L7270.75,2360.03L7293.05,2380.03L7287.05,2400.03L6814.64,2400.03Z" style="fill-rule:nonzero;"/>
        </g>
        <g transform="matrix(0.144197,0,0,0.144197,788.483,1296.52)">
            <path d="M7299.05,2423.55L7293.05,2380.03L7270.75,2360.03L7428.9,2213.34L7440.09,2211.09L7446.09,2212.92L7299.05,2423.55Z" style="fill-rule:nonzero;"/>
        </g>
        <g transform="matrix(0.144197,0,0,0.144197,788.483,1296.52)">
            <path d="M7434.09,2202.47L7440.09,2211.09L7428.9,2213.34L7145.6,2108.31L7149.77,2097.06L7434.09,2202.47Z" style="fill-rule:nonzero;"/>
        </g>
        <g transform="matrix(0.144197,0,0,0.144197,788.483,1296.52)">
            <path d="M6949.47,2097.39L6953.63,2108.65L6669.84,2213.31L6658.54,2211.09L6664.54,2202.48L6949.47,2097.39Z" style="fill-rule:nonzero;"/>
        </g>
        <g transform="matrix(0.144197,0,0,0.144197,788.483,1296.52)">
            <path d="M6830.98,2360.03L6808.64,2380.03L6802.64,2422.94L6652.54,2212.96L6658.54,2211.09L6669.84,2213.31L6830.98,2360.03Z" style="fill-rule:nonzero;"/>
        </g>
        <g transform="matrix(0.144197,0,0,0.144197,1828.9,1678.4)">
            <text x="0px" y="0px" style="font-family:'ArialMT', 'Arial', sans-serif;font-size:200px;">OH</text>
        </g>
        <g transform="matrix(0.144197,0,0,0.144197,788.483,1296.52)">
            <path d="M7287.05,2400.03L7293.05,2380.03L7299.05,2423.55L7299.05,2473.16L7287.05,2473.16L7287.05,2400.03Z" style="fill-rule:nonzero;"/>
        </g>
        <g transform="matrix(0.144197,0,0,0.144197,1759.05,1678.4)">
            <text x="0px" y="0px" style="font-family:'ArialMT', 'Arial', sans-serif;font-size:200px;">O</text>
        </g>
        <g transform="matrix(0.144197,0,0,0.144197,788.483,1296.52)">
            <path d="M6802.64,2422.94L6808.64,2380.03L6814.64,2400.03L6814.64,2473.16L6802.64,2473.16L6802.64,2422.94Z" style="fill-rule:nonzero;"/>
        </g>
        <g transform="matrix(0.144197,0,0,0.144197,788.483,1296.52)">
            <path d="M6664.54,2202.48L6658.54,2211.09L6652.54,2212.96L6652.54,1986.09L6664.54,1974.09L6664.54,2202.48Z" style="fill-rule:nonzero;"/>
        </g>
        <g transform="matrix(0.144197,0,0,0.144197,788.483,1296.52)">
            <path d="M7434.09,1747.32L7446.09,1747.32L7446.09,2212.92L7440.09,2211.09L7434.09,2202.47L7434.09,1747.32Z" style="fill-rule:nonzero;"/>
        </g>
        <g transform="matrix(0.144197,0,0,0.144197,1695.88,1593.29)">
            <text x="0px" y="0px" style="font-family:'ArialMT', 'Arial', sans-serif;font-size:200px;">O</text>
        </g>
        <g transform="matrix(0.144197,0,0,0.144197,788.483,1296.52)">
            <path d="M6664.54,1974.09L6652.54,1986.09L6469.75,1986.09L6469.75,1974.09L6664.54,1974.09Z" style="fill-rule:nonzero;"/>
        </g>
        <g transform="matrix(0.144197,0,0,0.144197,788.483,1296.52)">
            <path d="M7539.08,1587.83L7533.07,1577.44L7683.93,1490.19L7695.93,1497.11L7539.08,1587.83Z" style="fill-rule:nonzero;"/>
        </g>
        <g transform="matrix(0.144197,0,0,0.144197,788.483,1296.52)">
            <path d="M7346.07,1576.73L7340.06,1587.11L7184.77,1497.11L7196.77,1490.2L7346.07,1576.73Z" style="fill-rule:nonzero;"/>
        </g>
        <g transform="matrix(0.144197,0,0,0.144197,788.483,1296.52)">
            <rect x="6257.75" y="1960.09" width="12" height="40" style="fill-rule:nonzero;"/>
        </g>
        <g transform="matrix(0.144197,0,0,0.144197,788.483,1296.52)">
            <rect x="6199.35" y="1960.09" width="12" height="40" style="fill-rule:nonzero;"/>
        </g>
        <g transform="matrix(0.144197,0,0,0.144197,788.483,1296.52)">
            <rect x="6140.94" y="1960.09" width="12" height="40" style="fill-rule:nonzero;"/>
        </g>
        <g transform="matrix(0.144197,0,0,0.144197,788.483,1296.52)">
            <rect x="6082.54" y="1960.09" width="12" height="40" style="fill-rule:nonzero;"/>
        </g>
        <g transform="matrix(0.144197,0,0,0.144197,788.483,1296.52)">
            <rect x="6788.64" y="2682.16" width="40" height="12" style="fill-rule:nonzero;"/>
        </g>
        <g transform="matrix(0.144197,0,0,0.144197,788.483,1296.52)">
            <rect x="6788.64" y="2736.88" width="40" height="12" style="fill-rule:nonzero;"/>
        </g>
        <g transform="matrix(0.144197,0,0,0.144197,788.483,1296.52)">
            <rect x="6788.64" y="2791.6" width="40" height="12" style="fill-rule:nonzero;"/>
        </g>
        <g transform="matrix(0.144197,0,0,0.144197,788.483,1296.52)">
            <rect x="6788.64" y="2846.32" width="40" height="12" style="fill-rule:nonzero;"/>
        </g>
        <g transform="matrix(0.144197,0,0,0.144197,788.483,1296.52)">
            <path d="M7184.77,1202.19L7196.77,1209.12L7196.77,1490.2L7184.77,1497.11L7184.77,1202.19Z" style="fill-rule:nonzero;"/>
        </g>
        <g transform="matrix(0.144197,0,0,0.144197,788.483,1296.52)">
            <path d="M7440.09,1068.6L7440.09,1054.75L7595.82,1144.49L7589.82,1154.89L7440.09,1068.6Z" style="fill-rule:nonzero;"/>
        </g>
        <g transform="matrix(0.71474,0,0,0.646307,322.249,1158.75)">
            <path d="M2119.57,486.118L2119.57,540.941C2119.57,551.027 2112.17,559.216 2103.05,559.216C2093.93,559.216 2086.52,551.027 2086.52,540.941L2086.52,486.118C2086.52,476.032 2093.93,467.843 2103.05,467.843C2112.17,467.843 2119.57,476.032 2119.57,486.118Z" style="fill:rgb(166,215,86);fill-opacity:0.4;"/>
        </g>
        <g transform="matrix(0.864959,0,0,0.864959,1706.9,1528.33)">
            <g transform="matrix(38.5375,0,0,38.5375,430.023,81.097)">
            </g>
            <text x="348.658px" y="81.097px" style="font-family:'ArialMT', 'Arial', sans-serif;font-size:38.537px;">PCR</text>
        </g>
        <g transform="matrix(0.801376,0,0,0.801376,1321.87,1032.42)">
            <g transform="matrix(1.24785,-0,-0,1.24785,-1579.11,456.588)">
                <path d="M2050.32,223.46L2062.82,229.71L2050.32,235.96C2053.45,232.835 2053.45,226.585 2050.32,223.46Z"/>
                <path d="M1913.83,229.71L2052.82,229.71" style="fill:none;stroke:black;stroke-width:4.17px;"/>
            </g>
        </g>
        <g transform="matrix(0.864959,0,0,0.864959,1226.77,1498.56)">
            <text x="319.727px" y="81.097px" style="font-family:'ArialMT', 'Arial', sans-serif;font-size:38.537px;">Pyridine</text>
            <g transform="matrix(38.5375,0,0,38.5375,449.339,120.895)">
            </g>
            <text x="329.342px" y="120.895px" style="font-family:'ArialMT', 'Arial', sans-serif;font-size:38.537px;">borane</text>
        </g>
        <g transform="matrix(0.864959,0,0,0.864959,1227.2,1602.26)">
            <g transform="matrix(38.5375,0,0,38.5375,476.106,81.097)">
            </g>
            <text x="302.575px" y="81.097px" style="font-family:'ArialMT', 'Arial', sans-serif;font-size:38.537px;">Reduction</text>
        </g>
        <g transform="matrix(0.801376,0,0,0.801376,841.255,1032.42)">
            <g transform="matrix(1.24785,-0,-0,1.24785,-979.373,456.588)">
                <path d="M1569.71,223.46L1582.21,229.71L1569.71,235.96C1572.83,232.835 1572.83,226.585 1569.71,223.46Z"/>
                <path d="M1433.22,229.71L1572.21,229.71" style="fill:none;stroke:black;stroke-width:4.17px;"/>
            </g>
        </g>
        <g transform="matrix(0.864959,0,0,0.864959,423.597,1528.33)">
            <g transform="matrix(38.5375,0,0,38.5375,457.882,81.097)">
            </g>
            <text x="320.799px" y="81.097px" style="font-family:'ArialMT', 'Arial', sans-serif;font-size:38.537px;">hpTET3</text>
        </g>
        <g transform="matrix(0.864959,0,0,0.864959,424.281,1602.47)">
            <g transform="matrix(38.5375,0,0,38.5375,470.743,81.097)">
            </g>
            <text x="307.938px" y="81.097px" style="font-family:'ArialMT', 'Arial', sans-serif;font-size:38.537px;">Oxidation</text>
        </g>
        <g transform="matrix(0.801376,0,0,0.801376,37.8809,1032.42)">
            <g transform="matrix(1.24785,-0,-0,1.24785,23.1209,456.588)">
                <path d="M766.334,223.46L778.834,229.71L766.334,235.96C769.459,232.835 769.459,226.585 766.334,223.46Z"/>
                <path d="M629.845,229.71L768.834,229.71" style="fill:none;stroke:black;stroke-width:4.17px;"/>
            </g>
        </g>
        <g transform="matrix(0.864959,0,0,0.864959,1979.66,1682.55)">
            <g transform="matrix(38.5375,0,0,38.5375,376.208,81.097)">
            </g>
            <text x="329.127px" y="81.097px" style="font-family:'Arial-BoldMT', 'Arial', sans-serif;font-weight:700;font-size:38.537px;">dT</text>
        </g>
        <g transform="matrix(0.144197,0,0,0.144197,2367.55,1481.62)">
            <text x="0px" y="0px" style="font-family:'ArialMT', 'Arial', sans-serif;font-size:200px;">NH</text>
        </g>
        <g transform="matrix(0.144197,0,0,0.144197,912.936,1273.7)">
            <path d="M9654.73,1367.36L9660.73,1363.9L9666.73,1367.36L9666.73,1648.44L9654.73,1655.35L9654.73,1367.36Z" style="fill-rule:nonzero;"/>
        </g>
        <g transform="matrix(0.144197,0,0,0.144197,912.936,1273.7)">
            <rect x="9706.57" y="1393.82" width="12" height="228.2" style="fill-rule:nonzero;"/>
        </g>
        <g transform="matrix(0.144197,0,0,0.144197,912.936,1273.7)">
            <path d="M10165.9,1655.36L10153.9,1648.43L10153.9,1473.06L10165.9,1473.06L10165.9,1655.36Z" style="fill-rule:nonzero;"/>
        </g>
        <g transform="matrix(0.144197,0,0,0.144197,912.936,1273.7)">
            <path d="M9666.73,1367.36L9660.73,1363.9L9660.73,1356.97L9910.04,1212.99L9910.05,1226.84L9666.73,1367.36Z" style="fill-rule:nonzero;"/>
        </g>
        <g transform="matrix(0.144197,0,0,0.144197,2330.72,1422.27)">
            <text x="0px" y="0px" style="font-family:'ArialMT', 'Arial', sans-serif;font-size:200px;">O</text>
        </g>
        <g transform="matrix(0.144197,0,0,0.144197,912.936,1273.7)">
            <rect x="9879.96" y="1064.1" width="12" height="169.73" style="fill-rule:nonzero;"/>
        </g>
        <g transform="matrix(0.144197,0,0,0.144197,912.936,1273.7)">
            <rect x="9928.14" y="1064.1" width="12" height="169.7" style="fill-rule:nonzero;"/>
        </g>
        <g transform="matrix(0.144197,0,0,0.144197,2402.77,1543.99)">
            <text x="0px" y="0px" style="font-family:'ArialMT', 'Arial', sans-serif;font-size:200px;">O</text>
        </g>
        <g transform="matrix(0.144197,0,0,0.144197,912.936,1273.7)">
            <path d="M10156.9,1627.08L10162.9,1616.69L10339.2,1718.65L10333.2,1729.04L10156.9,1627.08Z" style="fill-rule:nonzero;"/>
        </g>
        <g transform="matrix(0.144197,0,0,0.144197,912.936,1273.7)">
            <path d="M10130.9,1672.09L10136.9,1661.7L10313.2,1763.62L10307.2,1774.01L10130.9,1672.09Z" style="fill-rule:nonzero;"/>
        </g>
        <g transform="matrix(0.144197,0,0,0.144197,2331.52,1543.99)">
            <text x="0px" y="0px" style="font-family:'ArialMT', 'Arial', sans-serif;font-size:200px;">N</text>
        </g>
        <g transform="matrix(0.144197,0,0,0.144197,2274.51,1605.77)">
            <text x="0px" y="0px" style="font-family:'ArialMT', 'Arial', sans-serif;font-size:200px;">O</text>
        </g>
        <g transform="matrix(0.144197,0,0,0.144197,912.936,1273.7)">
            <path d="M9284.59,2558.27L9278.59,2538.27L9300.94,2518.27L9740.71,2518.27L9763.01,2538.27L9757.01,2558.27L9284.59,2558.27Z" style="fill-rule:nonzero;"/>
        </g>
        <g transform="matrix(0.144197,0,0,0.144197,912.936,1273.7)">
            <path d="M9769.01,2581.79L9763.01,2538.27L9740.71,2518.27L9898.85,2371.58L9910.05,2369.33L9916.05,2371.16L9769.01,2581.79Z" style="fill-rule:nonzero;"/>
        </g>
        <g transform="matrix(0.144197,0,0,0.144197,912.936,1273.7)">
            <path d="M9904.05,2360.71L9910.05,2369.33L9898.85,2371.58L9615.56,2266.55L9619.73,2255.3L9904.05,2360.71Z" style="fill-rule:nonzero;"/>
        </g>
        <g transform="matrix(0.144197,0,0,0.144197,912.936,1273.7)">
            <path d="M9419.43,2255.63L9423.58,2266.89L9139.8,2371.56L9128.49,2369.33L9134.49,2360.72L9419.43,2255.63Z" style="fill-rule:nonzero;"/>
        </g>
        <g transform="matrix(0.144197,0,0,0.144197,912.936,1273.7)">
            <path d="M9300.94,2518.27L9278.59,2538.27L9272.59,2581.18L9122.49,2371.2L9128.49,2369.33L9139.8,2371.56L9300.94,2518.27Z" style="fill-rule:nonzero;"/>
        </g>
        <g transform="matrix(0.144197,0,0,0.144197,2310.32,1678.4)">
            <text x="0px" y="0px" style="font-family:'ArialMT', 'Arial', sans-serif;font-size:200px;">H</text>
        </g>
        <g transform="matrix(0.144197,0,0,0.144197,912.936,1273.7)">
            <path d="M9757.01,2558.27L9763.01,2538.27L9769.01,2581.79L9769.01,2633.73L9757.01,2633.73L9757.01,2558.27Z" style="fill-rule:nonzero;"/>
        </g>
        <g transform="matrix(0.144197,0,0,0.144197,2239.66,1678.4)">
            <text x="0px" y="0px" style="font-family:'ArialMT', 'Arial', sans-serif;font-size:200px;">O</text>
        </g>
        <g transform="matrix(0.144197,0,0,0.144197,912.936,1273.7)">
            <path d="M9272.59,2581.18L9278.59,2538.27L9284.59,2558.27L9284.59,2631.4L9272.59,2631.4L9272.59,2581.18Z" style="fill-rule:nonzero;"/>
        </g>
        <g transform="matrix(0.144197,0,0,0.144197,912.936,1273.7)">
            <path d="M9134.49,2360.72L9128.49,2369.33L9122.49,2371.2L9122.49,2144.33L9134.49,2132.33L9134.49,2360.72Z" style="fill-rule:nonzero;"/>
        </g>
        <g transform="matrix(0.144197,0,0,0.144197,912.936,1273.7)">
            <path d="M9904.05,1905.56L9916.05,1905.56L9916.05,2371.16L9910.05,2369.33L9904.05,2360.71L9904.05,1905.56Z" style="fill-rule:nonzero;"/>
        </g>
        <g transform="matrix(0.144197,0,0,0.144197,2176.49,1593.29)">
            <text x="0px" y="0px" style="font-family:'ArialMT', 'Arial', sans-serif;font-size:200px;">O</text>
        </g>
        <g transform="matrix(0.144197,0,0,0.144197,912.936,1273.7)">
            <path d="M9134.49,2132.33L9122.49,2144.33L8939.71,2144.33L8939.71,2132.33L9134.49,2132.33Z" style="fill-rule:nonzero;"/>
        </g>
        <g transform="matrix(0.144197,0,0,0.144197,912.936,1273.7)">
            <path d="M10009,1746.07L10003,1735.69L10153.9,1648.43L10165.9,1655.36L10009,1746.07Z" style="fill-rule:nonzero;"/>
        </g>
        <g transform="matrix(0.144197,0,0,0.144197,912.936,1273.7)">
            <path d="M9816.03,1734.97L9810.01,1745.35L9654.73,1655.35L9666.73,1648.44L9816.03,1734.97Z" style="fill-rule:nonzero;"/>
        </g>
        <g transform="matrix(0.144197,0,0,0.144197,912.936,1273.7)">
            <rect x="8727.71" y="2118.33" width="12" height="40" style="fill-rule:nonzero;"/>
        </g>
        <g transform="matrix(0.144197,0,0,0.144197,912.936,1273.7)">
            <rect x="8669.3" y="2118.33" width="12" height="40" style="fill-rule:nonzero;"/>
        </g>
        <g transform="matrix(0.144197,0,0,0.144197,912.936,1273.7)">
            <rect x="8610.9" y="2118.33" width="12" height="40" style="fill-rule:nonzero;"/>
        </g>
        <g transform="matrix(0.144197,0,0,0.144197,912.936,1273.7)">
            <rect x="8552.49" y="2118.33" width="12" height="40" style="fill-rule:nonzero;"/>
        </g>
        <g transform="matrix(0.144197,0,0,0.144197,912.936,1273.7)">
            <rect x="9258.59" y="2840.4" width="40" height="12" style="fill-rule:nonzero;"/>
        </g>
        <g transform="matrix(0.144197,0,0,0.144197,912.936,1273.7)">
            <rect x="9258.59" y="2895.12" width="40" height="12" style="fill-rule:nonzero;"/>
        </g>
        <g transform="matrix(0.144197,0,0,0.144197,912.936,1273.7)">
            <rect x="9258.59" y="2949.84" width="40" height="12" style="fill-rule:nonzero;"/>
        </g>
        <g transform="matrix(0.144197,0,0,0.144197,912.936,1273.7)">
            <rect x="9258.59" y="3004.57" width="40" height="12" style="fill-rule:nonzero;"/>
        </g>
        <g transform="matrix(0.144197,0,0,0.144197,2226.75,1460.86)">
            <text x="0px" y="0px" style="font-family:'ArialMT', 'Arial', sans-serif;font-size:200px;">H</text>
        </g>
        <g transform="matrix(0.144197,0,0,0.144197,2247.57,1467.2)">
            <text x="0px" y="0px" style="font-family:'ArialMT', 'Arial', sans-serif;font-size:150px;">3</text>
        </g>
        <g transform="matrix(0.144197,0,0,0.144197,2259.6,1460.86)">
            <text x="0px" y="0px" style="font-family:'ArialMT', 'Arial', sans-serif;font-size:200px;">C</text>
        </g>
        <g transform="matrix(0.144197,0,0,0.144197,912.936,1273.7)">
            <path d="M9660.73,1356.97L9660.73,1363.9L9654.73,1367.36L9500.52,1278.34L9506.52,1267.95L9660.73,1356.97Z" style="fill-rule:nonzero;"/>
        </g>
        <g transform="matrix(0.144197,0,0,0.144197,912.936,1273.7)">
            <path d="M9910.05,1226.84L9910.04,1212.99L10065.8,1302.73L10059.8,1313.13L9910.05,1226.84Z" style="fill-rule:nonzero;"/>
        </g>
    </g>
</svg>
